<svg width="36" height="36" viewBox="0 0 36 36" fill="none" xmlns="http://www.w3.org/2000/svg">
<path d="M31.5 13.5H22.5V4.5C22.5 3.30653 22.0259 2.16193 21.182 1.31802C20.3381 0.474106 19.1935 0 18 0C16.8065 0 15.6619 0.474106 14.818 1.31802C13.9741 2.16193 13.5 3.30653 13.5 4.5L13.6597 13.5H4.5C3.30653 13.5 2.16193 13.9741 1.31802 14.818C0.474106 15.6619 0 16.8065 0 18C0 19.1935 0.474106 20.3381 1.31802 21.182C2.16193 22.0259 3.30653 22.5 4.5 22.5L13.6597 22.3403L13.5 31.5C13.5 32.6935 13.9741 33.8381 14.818 34.682C15.6619 35.5259 16.8065 36 18 36C19.1935 36 20.3381 35.5259 21.182 34.682C22.0259 33.8381 22.5 32.6935 22.5 31.5V22.3403L31.5 22.5C32.6935 22.5 33.8381 22.0259 34.682 21.182C35.5259 20.3381 36 19.1935 36 18C36 16.8065 35.5259 15.6619 34.682 14.818C33.8381 13.9741 32.6935 13.5 31.5 13.5Z" fill="#FF3B99"/>
</svg>
