<svg width="319" height="320" viewBox="0 0 319 320" fill="none" xmlns="http://www.w3.org/2000/svg">
<path d="M151.041 5.00652C151.577 3.99329 153.125 2.50326 154.435 1.60924C156.102 0.41721 157.471 0 159.436 0C161.103 0 162.949 0.476811 164.378 1.31123C165.628 2.02645 167.176 3.45688 167.772 4.4105C168.486 5.54293 169.677 10.6687 170.987 18.1188C172.118 24.675 173.785 33.3768 174.618 37.4893C175.452 41.6018 177.119 48.6944 178.31 53.2837C179.441 57.873 181.585 65.0251 183.013 69.2568C184.442 73.4289 186.764 79.4487 188.193 82.6076C189.563 85.826 192.182 90.8922 193.909 93.8126C195.695 96.7331 198.791 101.322 200.816 103.945C202.84 106.567 206.889 110.978 209.806 113.719C212.723 116.461 217.665 120.395 220.761 122.481C223.857 124.507 229.751 127.845 233.86 129.812C237.968 131.779 244.934 134.58 249.34 136.13C253.746 137.62 260.831 139.765 265.117 140.898C269.345 142.03 277.382 143.878 282.979 145.01C288.576 146.143 297.387 147.812 302.627 148.646C307.866 149.54 313.165 150.792 314.356 151.388C315.844 152.103 317.035 153.354 317.809 154.904C318.464 156.215 319 158.361 319 159.672C319 160.983 318.643 162.95 318.226 164.023C317.75 165.036 316.618 166.586 315.666 167.48C314.356 168.612 312.57 169.208 308.283 169.983C305.187 170.579 297.387 172.01 291.017 173.142C284.646 174.334 274.703 176.48 268.987 177.91C263.272 179.341 254.52 181.844 249.637 183.513C244.696 185.182 237.491 188.102 233.562 190.009C229.632 191.917 223.976 195.135 221.059 197.102C218.082 199.069 213.914 202.228 211.771 204.194C209.568 206.102 206.115 209.499 204.09 211.823C202.006 214.148 198.732 218.439 196.826 221.36C194.862 224.28 192.182 228.869 190.873 231.492C189.503 234.114 187.241 239.18 185.812 242.816C184.383 246.452 182.001 253.246 180.572 258.015C179.203 262.783 177.06 271.067 175.869 276.491C174.618 281.915 172.594 292.285 171.284 299.557C170.034 306.888 168.605 313.563 168.129 314.457C167.652 315.411 166.819 316.543 166.224 317.08C165.569 317.616 164.199 318.51 163.128 319.046C162.115 319.583 160.567 320 159.734 320C158.9 320 156.995 319.404 155.447 318.629C153.959 317.914 152.232 316.662 151.637 315.828C151.101 314.993 150.327 313.146 149.969 311.656C149.612 310.166 148.362 303.49 147.171 296.755C146.04 290.02 144.254 281.021 143.301 276.789C142.348 272.557 140.622 265.524 139.431 261.293C138.24 257.061 136.216 250.624 134.906 246.988C133.596 243.353 131.096 237.512 129.369 233.876C127.642 230.24 124.249 224.399 121.867 220.764C119.069 216.532 115.377 212.062 111.507 208.247C108.233 204.969 103.112 200.618 100.195 198.532C97.2181 196.446 92.0382 193.347 88.585 191.559C85.1317 189.831 79.6542 187.327 76.3795 186.016C73.1049 184.705 66.7938 182.559 62.3879 181.188C57.982 179.877 51.5519 178.089 48.0986 177.314C44.6454 176.48 38.5129 175.169 34.4047 174.334C30.2965 173.5 22.7946 172.188 17.7338 171.354C12.673 170.46 7.37409 169.387 5.94516 168.91C4.57577 168.434 2.90868 167.301 2.25376 166.348C1.53929 165.454 0.705748 163.785 0.348515 162.652C0.0508213 161.52 -0.127795 159.434 0.11036 158.003C0.348515 156.513 1.12252 154.725 2.07514 153.593C3.02776 152.58 4.51623 151.388 5.52839 150.97C6.48101 150.553 12.9112 149.242 19.8177 148.11C26.6647 146.917 36.6076 144.951 41.847 143.818C47.0864 142.626 55.3623 140.54 60.3041 139.11C65.1862 137.679 72.0332 135.414 75.4864 134.103C78.9397 132.732 84.4173 130.229 87.6919 128.62C90.9665 126.951 95.7892 124.15 98.4089 122.421C101.029 120.633 105.077 117.534 107.399 115.448C109.721 113.362 113.294 109.786 115.318 107.521C117.342 105.256 120.557 101.084 122.403 98.2827C124.189 95.4815 127.404 89.7597 129.429 85.4684C131.512 81.1771 134.43 74.0846 135.918 69.6741C137.407 65.2635 139.55 58.171 140.681 53.8797C141.813 49.5884 143.539 42.2574 144.492 37.4893C145.445 32.7212 147.112 23.9002 148.124 17.8208C149.195 11.5031 150.446 6.01974 151.041 5.00652Z" fill="black"/>
<path d="M154.018 6.67537C154.375 5.90055 155.387 4.88733 156.34 4.41052H156.281C157.352 3.8145 158.841 3.5761 160.329 3.8145C161.699 3.93371 163.306 4.64892 164.08 5.42374C165.211 6.55617 165.747 8.58262 167.176 16.9268C168.188 22.5293 169.677 30.5159 170.51 34.8072C171.344 39.0985 173.13 46.8467 174.44 52.0916C175.69 57.3366 177.953 65.204 179.441 69.5549C180.87 73.8462 183.311 80.1639 184.8 83.5612C186.288 86.8989 188.789 91.9054 190.396 94.7067C191.944 97.5079 194.564 101.501 196.112 103.647C197.66 105.793 200.458 109.19 202.244 111.276C204.09 113.362 207.603 116.759 210.044 118.786C212.485 120.872 216.772 124.031 219.57 125.878C222.369 127.666 227.191 130.408 230.287 131.958C233.383 133.507 239.039 136.01 242.79 137.441C246.541 138.931 253.626 141.315 258.568 142.686C263.45 144.116 271.905 146.202 277.323 147.394C282.741 148.527 292.505 150.434 299.055 151.626C305.604 152.758 311.439 153.831 311.974 154.01C312.57 154.189 313.582 155.023 314.237 155.977C315.07 156.99 315.487 158.48 315.428 160.149C315.428 161.877 315.011 163.129 314.058 164.142C312.927 165.513 311.558 165.871 302.627 167.48C297.03 168.434 288.992 169.924 284.765 170.758C280.538 171.592 273.274 173.202 268.69 174.334C264.105 175.467 257.258 177.374 253.507 178.506C249.756 179.698 243.862 181.784 240.409 183.215C236.956 184.586 232.014 186.791 229.394 188.102C226.774 189.473 221.714 192.513 218.082 194.897C213.795 197.758 209.33 201.453 205.281 205.565C200.994 209.797 197.481 214.088 194.445 218.678C191.885 222.432 188.253 228.869 186.348 232.982C184.383 237.094 181.704 243.531 180.394 247.286C179.084 251.041 177.06 257.657 175.869 261.889C174.738 266.12 172.832 273.928 171.701 279.173C170.57 284.418 168.784 293.656 167.772 299.736C166.759 305.815 165.509 311.656 165.033 312.729C164.497 313.921 163.425 314.993 162.115 315.53C160.984 316.007 159.317 316.245 158.364 316.066C157.471 315.888 156.34 315.411 155.864 315.053C155.387 314.636 154.673 313.921 154.256 313.444C153.839 312.967 152.708 307.722 151.696 301.822C150.684 295.921 149.195 287.756 148.362 283.643C147.528 279.531 145.742 271.902 144.432 266.657C143.122 261.412 140.8 253.604 139.372 249.372C137.883 245.141 135.442 238.823 133.894 235.366C132.406 231.909 129.667 226.664 127.94 223.744C126.154 220.823 123.177 216.353 121.331 213.909C119.426 211.466 115.437 206.996 112.341 204.075C109.245 201.095 104.065 196.923 100.79 194.718C97.5158 192.513 91.2047 188.996 86.7988 186.85C82.3929 184.705 74.7124 181.606 69.8303 179.996C64.8885 178.327 57.2676 176.063 52.8617 174.93C48.4558 173.798 40.7753 172.069 35.8932 171.056C30.9514 170.102 22.7946 168.612 17.7338 167.718C12.673 166.884 7.73131 165.871 6.77869 165.454C5.82607 165.096 4.69483 163.904 4.15898 162.95C3.62313 161.818 3.44452 160.328 3.62313 158.778C3.86129 157.348 4.51622 155.917 5.34976 155.143C6.24284 154.368 8.3267 153.652 11.1846 153.176C13.6256 152.758 20.7108 151.507 26.9623 150.374C33.1544 149.242 43.0973 147.156 48.9917 145.725C54.886 144.295 63.1619 141.971 67.4487 140.6C71.676 139.169 78.2848 136.726 82.0357 135.116C85.7866 133.507 91.3238 130.825 94.2411 129.097C97.1585 127.428 102.16 124.09 105.256 121.766C108.352 119.382 112.579 115.746 114.603 113.66C116.628 111.574 120.141 107.342 122.522 104.243C125.082 100.786 128.535 94.9451 131.334 89.3425C133.894 84.2764 136.99 77.303 138.24 73.8462C139.431 70.3893 141.515 63.8331 142.825 59.2438C144.135 54.6545 146.099 46.4891 147.29 41.0654C148.421 35.6417 150.267 25.9862 151.339 19.6089C152.47 13.2315 153.661 7.39059 154.018 6.67537Z" fill="#A2C7FF"/>
</svg>
