<svg width="1008" height="1010" viewBox="0 0 1008 1010" fill="none" xmlns="http://www.w3.org/2000/svg">
<path d="M477.271 15.8018C478.964 12.6038 483.856 7.90091 487.995 5.07916C493.263 1.31682 497.59 0 503.798 0C509.066 0 514.898 1.50494 519.413 4.13857C523.364 6.39598 528.256 10.9108 530.137 13.9207C532.395 17.4949 536.157 33.6729 540.296 57.1876C543.871 77.8804 549.139 105.345 551.773 118.326C554.406 131.306 559.674 153.692 563.437 168.177C567.011 182.662 573.784 205.236 578.3 218.592C582.815 231.76 590.152 250.76 594.667 260.73C598.994 270.888 607.272 286.878 612.728 296.096C618.372 305.314 628.155 319.799 634.552 328.076C640.949 336.353 653.742 350.274 662.96 358.927C672.179 367.581 687.794 379.996 697.577 386.58C707.36 392.976 725.986 403.511 738.967 409.719C751.948 415.927 773.96 424.768 787.882 429.659C801.804 434.362 824.192 441.134 837.738 444.708C851.095 448.283 876.494 454.114 894.178 457.689C911.863 461.263 939.707 466.53 956.263 469.164C972.819 471.985 989.563 475.936 993.326 477.817C998.029 480.074 1001.79 484.025 1004.24 488.916C1006.31 493.055 1008 499.827 1008 503.965C1008 508.104 1006.87 514.312 1005.55 517.698C1004.05 520.896 1000.47 525.787 997.465 528.609C993.326 532.183 987.681 534.064 974.136 536.51C964.353 538.391 939.707 542.906 919.577 546.48C899.446 550.242 868.028 557.014 849.967 561.529C831.906 566.044 804.25 573.945 788.823 579.212C773.208 584.479 750.443 593.697 738.026 599.717C725.609 605.737 707.737 615.895 698.518 622.103C689.111 628.311 675.942 638.281 669.169 644.489C662.208 650.508 651.296 661.231 644.899 668.568C638.315 675.904 627.967 689.449 621.947 698.666C615.738 707.884 607.272 722.369 603.133 730.646C598.806 738.923 591.657 754.913 587.142 766.388C582.627 777.864 575.101 799.309 570.586 814.358C566.259 829.408 559.486 855.556 555.723 872.675C551.773 889.793 545.376 922.526 541.237 945.476C537.286 968.614 532.771 989.683 531.266 992.505C529.761 995.515 527.127 999.089 525.246 1000.78C523.176 1002.48 518.849 1005.3 515.462 1006.99C512.264 1008.68 507.373 1010 504.739 1010C502.105 1010 496.085 1008.12 491.193 1005.67C486.49 1003.42 481.034 999.465 479.152 996.832C477.459 994.198 475.013 988.367 473.885 983.664C472.756 978.961 468.805 957.892 465.042 936.634C461.468 915.377 455.824 886.971 452.814 873.615C449.803 860.259 444.347 838.061 440.585 824.705C436.822 811.348 430.425 791.032 426.286 779.557C422.148 768.082 414.246 749.646 408.79 738.171C403.334 726.696 392.61 708.26 385.085 696.785C376.243 683.429 364.578 669.32 352.349 657.281C342.002 646.934 325.822 633.202 316.604 626.618C307.197 620.034 290.829 610.251 279.917 604.608C269.006 599.152 251.697 591.252 241.35 587.113C231.002 582.974 211.06 576.202 197.138 571.876C183.216 567.737 162.897 562.093 151.986 559.648C141.074 557.014 121.696 552.876 108.715 550.242C95.7332 547.608 72.0282 543.47 56.0367 540.836C40.0452 538.014 23.3012 534.628 18.786 533.123C14.4589 531.619 9.19107 528.044 7.12159 525.034C4.86397 522.213 2.23007 516.945 1.10126 513.371C0.160589 509.797 -0.403816 503.213 0.348724 498.698C1.10126 493.995 3.54702 488.352 6.55718 484.777C9.56734 481.579 14.2707 477.817 17.469 476.5C20.4792 475.183 40.7978 471.045 62.6214 467.471C84.257 463.708 115.676 457.5 132.231 453.926C148.787 450.164 174.938 443.58 190.553 439.065C205.98 434.55 227.616 427.402 238.528 423.263C249.44 418.936 266.748 411.036 277.095 405.956C287.443 400.689 302.682 391.848 310.96 386.392C319.238 380.749 332.031 370.967 339.368 364.383C346.705 357.798 357.993 346.511 364.39 339.363C370.787 332.215 380.946 319.046 386.778 310.205C392.422 301.363 402.581 283.304 408.978 269.76C415.563 256.215 424.781 233.829 429.485 219.909C434.188 205.988 440.961 183.602 444.536 170.058C448.11 156.513 453.566 133.375 456.576 118.326C459.586 103.276 464.854 75.4349 468.052 56.247C471.439 36.3066 475.39 18.9998 477.271 15.8018Z" fill="black"/>
<path d="M486.678 21.0691C487.806 18.6235 491.005 15.4256 494.015 13.9206H493.827C497.213 12.0394 501.917 11.287 506.62 12.0394C510.947 12.4157 516.027 14.6731 518.472 17.1186C522.047 20.6928 523.74 27.0888 528.255 53.4252C531.454 71.1082 536.157 96.3158 538.791 109.86C541.425 123.405 547.069 147.86 551.208 164.414C555.159 180.968 562.308 205.8 567.011 219.532C571.527 233.077 579.24 253.017 583.943 263.74C588.647 274.275 596.548 290.076 601.628 298.918C606.52 307.759 614.798 320.363 619.689 327.135C624.581 333.908 633.423 344.63 639.067 351.214C644.899 357.798 655.999 368.521 663.713 374.917C671.426 381.501 684.972 391.471 693.814 397.303C702.657 402.947 717.896 411.6 727.679 416.491C737.462 421.382 755.334 429.283 767.187 433.798C779.039 438.501 801.428 446.025 817.043 450.352C832.47 454.867 859.185 461.451 876.305 465.213C893.426 468.787 924.28 474.807 944.975 478.57C965.669 482.144 984.107 485.53 985.8 486.094C987.681 486.659 990.88 489.292 992.949 492.302C995.583 495.5 996.9 500.203 996.712 505.47C996.712 510.926 995.395 514.876 992.385 518.074C988.81 522.401 984.483 523.53 956.263 528.609C938.578 531.619 913.18 536.321 899.822 538.955C886.465 541.589 863.512 546.668 849.026 550.242C834.539 553.816 812.904 559.836 801.051 563.41C789.199 567.173 770.573 573.757 759.662 578.272C748.75 582.598 733.135 589.559 724.857 593.697C716.579 598.024 700.587 607.618 689.111 615.142C675.565 624.172 661.455 635.835 648.662 648.815C635.116 662.172 624.016 675.716 614.421 690.201C606.331 702.052 594.855 722.369 588.835 735.349C582.627 748.329 574.16 768.646 570.021 780.497C565.883 792.349 559.486 813.23 555.723 826.586C552.149 839.942 546.128 864.586 542.554 881.14C538.979 897.694 533.335 926.852 530.137 946.04C526.939 965.228 522.988 983.664 521.483 987.05C519.789 990.812 516.403 994.198 512.264 995.891C508.689 997.396 503.422 998.149 500.411 997.584C497.589 997.02 494.015 995.515 492.51 994.386C491.005 993.069 488.747 990.812 487.43 989.307C486.113 987.802 482.539 971.248 479.34 952.624C476.142 934.001 471.439 908.229 468.805 895.249C466.171 882.269 460.527 858.19 456.388 841.635C452.249 825.081 444.912 800.438 440.396 787.081C435.693 773.725 427.979 753.785 423.088 742.874C418.385 731.963 409.73 715.409 404.274 706.191C398.63 696.973 389.224 682.865 383.391 675.152C377.371 667.439 364.766 653.33 354.983 644.112C345.2 634.707 328.832 621.538 318.485 614.578C308.137 607.618 288.195 596.519 274.273 589.747C260.351 582.974 236.082 573.192 220.655 568.113C205.039 562.846 180.958 555.698 167.036 552.123C153.114 548.549 128.845 543.094 113.418 539.896C97.8025 536.886 72.028 532.183 56.0365 529.361C40.045 526.727 24.4298 523.529 21.4196 522.213C18.4095 521.084 14.8349 517.322 13.1417 514.312C11.4485 510.738 10.8841 506.035 11.4485 501.144C12.201 496.629 14.2705 492.114 16.9044 489.668C19.7264 487.223 26.3111 484.966 35.3416 483.461C43.0552 482.144 65.4432 478.193 85.1974 474.619C104.763 471.045 136.182 464.461 154.807 459.946C173.433 455.431 199.584 448.095 213.129 443.768C226.487 439.253 247.37 431.54 259.222 426.461C271.075 421.382 288.571 412.917 297.79 407.461C307.009 402.194 322.812 391.659 332.595 384.323C342.378 376.798 355.736 365.323 362.132 358.739C368.529 352.155 379.629 338.799 387.154 329.017C395.244 318.106 406.156 299.67 414.998 281.987C423.088 265.997 432.871 243.988 436.822 233.077C440.585 222.166 447.169 201.473 451.308 186.988C455.447 172.503 461.656 146.731 465.418 129.613C468.993 112.494 474.825 82.019 478.212 61.8904C481.786 41.7619 485.549 23.3265 486.678 21.0691Z" fill="#FF3B99"/>
</svg>
