<svg width="1006" height="1008" viewBox="0 0 1006 1008" fill="none" xmlns="http://www.w3.org/2000/svg">
<path d="M476.324 15.7705C478.014 12.5789 482.896 7.88527 487.026 5.0691C492.284 1.31421 496.602 0 502.799 0C508.056 0 513.876 1.50196 518.383 4.13038C522.326 6.38331 527.208 10.8892 529.085 13.8931C531.338 17.4602 535.094 33.6063 539.224 57.0743C542.792 77.7262 548.049 105.137 550.678 118.091C553.306 131.046 558.564 153.387 562.319 167.844C565.886 182.3 572.646 204.829 577.152 218.159C581.658 231.301 588.981 250.263 593.487 260.214C597.806 270.352 606.068 286.31 611.513 295.51C617.145 304.709 626.909 319.166 633.293 327.426C639.677 335.687 652.445 349.58 661.645 358.216C670.845 366.853 686.43 379.244 696.193 385.815C705.957 392.198 724.545 402.712 737.501 408.907C750.456 415.103 772.424 423.927 786.319 428.808C800.213 433.502 822.557 440.261 836.076 443.828C849.407 447.395 874.755 453.215 892.404 456.782C910.054 460.349 937.843 465.606 954.366 468.235C970.889 471.051 987.599 474.993 991.355 476.871C996.049 479.124 999.804 483.066 1002.24 487.948C1004.31 492.078 1006 498.837 1006 502.967C1006 507.098 1004.87 513.293 1003.56 516.673C1002.06 519.864 998.49 524.746 995.485 527.562C991.355 531.129 985.722 533.007 972.203 535.447C962.439 537.325 937.843 541.831 917.752 545.398C897.661 549.153 866.305 555.911 848.28 560.417C830.255 564.923 802.654 572.808 787.258 578.065C771.673 583.322 748.954 592.521 736.562 598.529C724.17 604.537 706.332 614.675 697.132 620.871C687.744 627.066 674.601 637.017 667.841 643.213C660.894 649.22 650.004 659.922 643.62 667.244C637.048 674.566 626.721 688.083 620.713 697.283C614.517 706.482 606.067 720.939 601.937 729.199C597.618 737.46 590.483 753.418 585.977 764.871C581.471 776.323 573.96 797.726 569.454 812.746C565.135 827.765 558.376 853.862 554.621 870.946C550.678 888.031 544.294 920.699 540.163 943.604C536.22 966.696 531.714 987.724 530.212 990.54C528.71 993.544 526.081 997.111 524.203 998.8C522.138 1000.49 517.819 1003.31 514.44 1005C511.248 1006.69 506.366 1008 503.737 1008C501.109 1008 495.1 1006.12 490.218 1003.68C485.524 1001.43 480.079 997.486 478.202 994.858C476.512 992.229 474.071 986.409 472.944 981.716C471.818 977.022 467.875 955.995 464.12 934.78C460.552 913.565 454.919 885.215 451.915 871.885C448.911 858.555 443.466 836.401 439.711 823.072C435.955 809.742 429.571 789.465 425.441 778.013C421.31 766.561 413.424 748.162 407.979 736.709C402.534 725.257 391.831 706.858 384.321 695.405C375.496 682.076 363.855 667.995 351.65 655.979C341.323 645.653 325.176 631.948 315.976 625.377C306.587 618.806 290.252 609.043 279.362 603.411C268.472 597.966 251.198 590.081 240.871 585.95C230.544 581.82 210.641 575.061 196.747 570.743C182.852 566.613 162.574 560.98 151.684 558.54C140.794 555.911 121.454 551.781 108.499 549.153C95.5432 546.524 71.8853 542.394 55.9255 539.765C39.9658 536.949 23.255 533.57 18.7487 532.068C14.4302 530.566 9.17283 526.999 7.10746 523.995C4.85431 521.179 2.22565 515.922 1.09908 512.355C0.16027 508.787 -0.403015 502.216 0.348032 497.711C1.09908 493.017 3.53998 487.385 6.54417 483.817C9.54836 480.626 14.2424 476.871 17.4344 475.557C20.4385 474.242 40.7168 470.112 62.4972 466.545C84.0898 462.79 115.446 456.595 131.969 453.027C148.492 449.272 174.591 442.701 190.175 438.196C205.572 433.69 227.164 426.555 238.054 422.425C248.945 418.107 266.219 410.222 276.546 405.153C286.872 399.896 302.081 391.072 310.343 385.627C318.604 379.995 331.372 370.232 338.695 363.661C346.017 357.09 357.283 345.825 363.667 338.691C370.051 331.557 380.19 318.415 386.011 309.591C391.644 300.767 401.783 282.743 408.167 269.226C414.738 255.708 423.939 233.366 428.633 219.473C433.327 205.58 440.086 183.239 443.654 169.721C447.221 156.203 452.666 133.111 455.67 118.091C458.674 103.072 463.932 75.2855 467.124 56.1356C470.503 36.2347 474.446 18.9622 476.324 15.7705Z" fill="black"/>
<path d="M485.712 21.0273C486.839 18.5866 490.031 15.395 493.035 13.893H492.847C496.227 12.0156 500.921 11.2646 505.615 12.0156C509.934 12.391 515.003 14.644 517.444 17.0847C521.011 20.6518 522.701 27.0351 527.208 53.3193C530.4 70.9673 535.094 96.1251 537.722 109.643C540.351 123.16 545.984 147.567 550.115 164.089C554.058 180.61 561.193 205.392 565.887 219.098C570.393 232.615 578.091 252.516 582.785 263.218C587.479 273.731 595.365 289.502 600.435 298.326C605.317 307.15 613.578 319.729 618.46 326.487C623.342 333.246 632.166 343.948 637.799 350.519C643.62 357.09 654.698 367.791 662.396 374.175C670.094 380.746 683.613 390.696 692.438 396.516C701.263 402.149 716.471 410.785 726.235 415.666C735.999 420.547 753.836 428.433 765.665 432.939C777.494 437.632 799.838 445.142 815.422 449.46C830.818 453.966 857.481 460.537 874.567 464.292C891.653 467.859 922.446 473.867 943.1 477.622C963.754 481.189 982.154 484.568 983.844 485.132C985.722 485.695 988.914 488.323 990.979 491.327C993.608 494.519 994.922 499.212 994.734 504.469C994.734 509.914 993.42 513.857 990.416 517.048C986.848 521.366 982.53 522.493 954.366 527.562C936.716 530.566 911.368 535.259 898.037 537.888C884.706 540.516 861.799 545.585 847.341 549.152C832.884 552.72 811.291 558.727 799.462 562.295C787.633 566.049 769.045 572.62 758.155 577.126C747.264 581.445 731.68 588.391 723.419 592.521C715.157 596.839 699.197 606.414 687.744 613.924C674.225 622.936 660.143 634.576 647.375 647.531C633.856 660.86 622.778 674.378 613.203 688.834C605.129 700.662 593.675 720.939 587.667 733.893C581.471 746.847 573.022 767.124 568.891 778.952C564.76 790.78 558.376 811.619 554.621 824.949C551.053 838.279 545.045 862.873 541.478 879.395C537.91 895.916 532.277 925.017 529.085 944.167C525.893 963.317 521.95 981.716 520.448 985.095C518.758 988.85 515.379 992.229 511.248 993.919C507.68 995.421 502.423 996.172 499.419 995.609C496.602 995.046 493.035 993.544 491.533 992.417C490.031 991.103 487.778 988.85 486.463 987.348C485.149 985.846 481.582 969.325 478.39 950.738C475.198 932.151 470.504 906.43 467.875 893.476C465.246 880.521 459.613 856.49 455.483 839.969C451.352 823.447 444.029 798.853 439.523 785.523C434.829 772.193 427.131 752.292 422.249 741.403C417.555 730.514 408.918 713.992 403.473 704.793C397.84 695.593 388.452 681.512 382.631 673.815C376.623 666.117 364.043 652.036 354.279 642.837C344.515 633.45 328.18 620.308 317.853 613.361C307.526 606.414 287.624 595.338 273.729 588.579C259.835 581.82 235.614 572.057 220.217 566.988C204.633 561.731 180.599 554.597 166.705 551.03C152.811 547.463 128.589 542.018 113.193 538.827C97.6087 535.823 71.8854 531.129 55.9256 528.313C39.9659 525.684 24.3816 522.493 21.3774 521.178C18.3733 520.052 14.8058 516.297 13.1159 513.293C11.4261 509.726 10.8628 505.033 11.4261 500.151C12.1771 495.645 14.2425 491.139 16.8712 488.699C19.6876 486.258 26.2593 484.005 35.2718 482.503C42.9701 481.189 65.3137 477.246 85.0287 473.679C104.556 470.112 135.912 463.541 154.501 459.035C173.089 454.529 199.188 447.207 212.707 442.889C226.038 438.383 246.879 430.686 258.708 425.617C270.537 420.547 287.999 412.099 297.199 406.654C306.4 401.398 322.172 390.884 331.935 383.562C341.699 376.052 355.03 364.6 361.414 358.029C367.798 351.458 378.876 338.128 386.386 328.365C394.46 317.476 405.35 299.077 414.175 281.429C422.249 265.471 432.012 243.504 435.955 232.615C439.711 221.726 446.282 201.074 450.413 186.618C454.544 172.162 460.74 146.441 464.495 129.356C468.063 112.271 473.883 81.8565 477.263 61.7678C480.83 41.6792 484.586 23.2802 485.712 21.0273Z" fill="white"/>
</svg>
