<svg width="1920" height="320" viewBox="0 0 1920 320" fill="none" xmlns="http://www.w3.org/2000/svg">
<path d="M-37 32L28.2333 58.7C93.4667 85 223.933 139 354.4 170.7C484.867 203 615.333 213 745.8 202.7C876.267 192 1006.73 160 1137.2 149.3C1267.67 139 1398.13 149 1528.6 133.3C1659.07 117 1789.53 75 1854.77 53.3L1920 32V320H1854.77C1789.53 320 1659.07 320 1528.6 320C1398.13 320 1267.67 320 1137.2 320C1006.73 320 876.267 320 745.8 320C615.333 320 484.867 320 354.4 320C223.933 320 93.4667 320 28.2333 320H-37V32Z" fill="#A2C7FF"/>
</svg>
