<svg width="2432" height="252" viewBox="0 0 2432 252" fill="none" xmlns="http://www.w3.org/2000/svg">
<g clip-path="url(#clip0_307_2)">
<path d="M1542.82 21.0136C1442.09 -49.9384 1211.34 186.489 1108.55 313.572V335H1779.54C1742.6 259.901 1643.55 91.9656 1542.82 21.0136Z" fill="#94AE79"/>
<path d="M2349.66 33.9159C2252.92 -34.0718 1984.02 213.011 1885.31 334.784L1932.6 334.784H2577C2541.53 262.823 2446.4 101.903 2349.66 33.9159Z" fill="#94AE79"/>
<path d="M1918.2 84.9203C1837.9 28.4582 1614.69 233.654 1532.75 334.784L1572.01 334.784H2106.92C2077.47 275.022 1998.51 141.382 1918.2 84.9203Z" fill="#94AE79"/>
<path d="M289.266 21.0136C188.535 -49.9384 -42.2161 186.489 -145 313.572V335H525.986C489.051 259.901 389.998 91.9656 289.266 21.0136Z" fill="#94AE79"/>
<path d="M1096.11 33.9159C999.368 -34.0718 730.466 213.011 631.755 334.784L679.05 334.784H1323.45C1287.98 262.823 1192.85 101.903 1096.11 33.9159Z" fill="#94AE79"/>
<path d="M664.651 84.9203C584.348 28.4582 361.133 233.654 279.193 334.784L318.453 334.784H853.365C823.92 275.022 744.955 141.382 664.651 84.9203Z" fill="#94AE79"/>
</g>
<defs>
<clipPath id="clip0_307_2">
<rect width="2432" height="252" fill="white"/>
</clipPath>
</defs>
</svg>
