<svg width="1920" height="428" viewBox="0 0 1920 428" fill="none" xmlns="http://www.w3.org/2000/svg">
<path d="M1315 17.0297C1225 -75.8185 1018.83 233.572 927 399.873V427.914H1526.5C1493.5 329.64 1405 109.878 1315 17.0297Z" fill="#94AE79"/>
<path d="M2035.88 33.9137C1949.45 -55.0553 1709.19 268.279 1621 427.632L1663.26 427.632H2239C2207.31 333.463 2122.31 122.883 2035.88 33.9137Z" fill="#94AE79"/>
<path d="M1650.39 100.658C1578.64 26.7717 1379.21 295.293 1306 427.632L1341.08 427.632H1819C1792.69 349.427 1722.14 174.545 1650.39 100.658Z" fill="#94AE79"/>
<path d="M195 17.0297C105 -75.8185 -101.167 233.572 -193 399.873V427.914H406.5C373.5 329.64 285 109.878 195 17.0297Z" fill="#94AE79"/>
<path d="M915.881 33.9137C829.448 -55.0553 589.194 268.279 501 427.632L543.256 427.632H1119C1087.31 333.463 1002.31 122.883 915.881 33.9137Z" fill="#94AE79"/>
<path d="M530.392 100.658C458.643 26.7717 259.21 295.293 186 427.632L221.077 427.632H699C672.692 349.427 602.14 174.545 530.392 100.658Z" fill="#94AE79"/>
</svg>
