<svg width="1920" height="1176" viewBox="0 0 1920 1176" fill="none" xmlns="http://www.w3.org/2000/svg">
<g opacity="0.43" clip-path="url(#clip0_101_364)">
<path fill-rule="evenodd" clip-rule="evenodd" d="M-57.5416 -95H1977.54C2009.14 -95 2035 -69.1434 2035 -37.5416V1117.62C2035 1149.22 2009.14 1175.08 1977.54 1175.08H-57.5416C-89.1435 1175.08 -115 1149.23 -115 1117.62V-37.5416C-115 -69.1434 -89.1435 -95 -57.5416 -95Z" fill="black"/>
<path fill-rule="evenodd" clip-rule="evenodd" d="M1977.54 -95H1156.57C1156.57 -95 1123.36 47.3319 1368.24 51.481C1613.13 55.6301 1650.48 225.802 1638.04 279.761C1570 574.61 1933.64 495.46 1820.67 250.707C1776.4 154.8 1820.67 6.43225 2035.01 32.8854V-37.5201C2035.01 -69.122 2009.15 -94.9785 1977.55 -94.9785" fill="#202020"/>
<path fill-rule="evenodd" clip-rule="evenodd" d="M2035 1117.62V142.788C2035 142.788 1922.33 138.639 1936.86 271.458C1951.38 404.277 1928.55 613.881 1710.65 576.523C1492.75 539.165 1544.63 294.283 1544.63 294.283C1563.32 228.881 1518.64 176.115 1471.83 171.1C1429.22 166.532 1384.83 201.531 1384.83 302.587C1384.83 366.919 1442.94 462.386 1457.47 497.68C1471.99 532.974 1445.01 580.694 1374.45 535.038C1303.89 489.381 1237.48 562.012 1308.04 605.593C1375.39 647.192 1691.82 568.51 1706.5 744.636C1712.72 819.341 1667.06 896.132 1588.2 835.948C1509.33 775.765 1438.79 883.679 1517.64 943.862C1596.49 1004.05 1716.87 883.668 1818.56 939.713C1920.25 995.758 1808.18 1151.06 1654.61 1175.11H1977.54C2009.14 1175.11 2035 1149.26 2035 1117.66" fill="#202020"/>
<path fill-rule="evenodd" clip-rule="evenodd" d="M224.709 -95H-57.5416C-89.1435 -95 -115 -69.1649 -115 -37.5416V312.959C-95.308 286.813 -62.771 264.315 -24.3274 264.229C15.8735 264.138 85.7738 324.423 129.275 284.872C172.303 245.779 111.453 178.85 89.8154 142.782C77.7659 122.703 72.5204 100.19 79.2438 78.7779C86.4187 55.931 107.218 34.3365 147.924 18.2668C226.784 -12.8621 224.709 -94.9892 224.709 -94.9892" fill="#202020"/>
<path fill-rule="evenodd" clip-rule="evenodd" d="M-115 378.313V490.376C64.276 352.553 197.557 549.463 340.905 399.058C404.2 332.651 334.681 210.21 334.681 210.21C334.681 210.21 287.988 150.016 359.587 98.1421C431.185 46.2678 428.068 -95 428.068 -95H292.142C292.142 -95 281.764 35.8897 216.395 74.2956C151.025 112.702 186.298 163.512 206.022 200.891C225.746 238.27 226.773 296.352 204.985 331.63C183.197 366.908 116.784 376.238 26.5096 343.046C-63.7653 309.853 -115 378.313 -115 378.313Z" fill="#202020"/>
<path fill-rule="evenodd" clip-rule="evenodd" d="M-115 611.779V1117.62C-115 1149.23 -89.1435 1175.08 -57.5416 1175.08H496.528C401.067 1097.12 455.021 1024.76 471.628 983.252C537.492 818.599 348.306 703.726 326.356 844.209C315.978 910.6 253.726 1018.53 154.11 999.853C54.4944 981.177 60.7234 862.885 168.621 827.602C276.519 792.318 336.718 607.625 170.696 559.889C4.67316 512.153 -115 611.779 -115 611.779Z" fill="#202020"/>
<path fill-rule="evenodd" clip-rule="evenodd" d="M591.957 1175.08H861.373C839.773 1150.68 835.931 1115.1 849.292 1068.33C870.048 995.699 807.785 956.272 757.979 995.699C708.174 1035.13 681.194 1001.93 693.642 935.505C706.089 869.082 716.472 781.935 645.911 701.001C575.35 620.067 519.321 663.643 508.943 686.49C498.565 709.337 488.192 744.599 537.997 794.404C587.802 844.209 604.409 898.168 550.45 1008.16C496.49 1118.15 591.957 1175.08 591.957 1175.08Z" fill="#202020"/>
<path fill-rule="evenodd" clip-rule="evenodd" d="M608.575 384.52C613.707 247.719 486.574 182.381 591.973 103.318C666.678 47.2889 677.061 -95 677.061 -95H546.317C546.317 -95 523.492 41.0599 457.101 115.77C349.628 236.642 639.693 426.441 353.331 487.248C300.629 498.437 284.844 591.013 411.439 586.863C538.035 582.714 606.161 449.342 608.591 384.52" fill="#202020"/>
<path fill-rule="evenodd" clip-rule="evenodd" d="M1095.22 -95H806.753C806.753 -95 686.365 -24.315 744.49 116.802C802.614 257.92 721.664 249.621 698.807 247.547C675.949 245.472 628.251 272.452 690.508 322.252C752.766 372.052 842.004 311.874 839.918 264.143C837.833 216.413 842.031 191.497 883.538 176.985C925.045 162.474 941.641 215.381 918.816 262.074C895.99 308.767 931.268 365.839 991.451 343.008C1051.63 320.177 1064.09 195.667 1012.2 137.558C960.317 79.4497 999.75 27.5646 1045.41 23.4156C1091.06 19.2665 1134.62 -24.5623 1095.22 -95Z" fill="#202020"/>
<path fill-rule="evenodd" clip-rule="evenodd" d="M657.321 502.801C601.287 540.159 595.063 587.89 649.018 610.721C702.972 633.551 738.234 693.729 736.181 735.236C734.127 776.743 808.816 832.772 825.397 724.858C841.977 616.944 827.788 581.785 893.883 560.91C959.979 540.036 1044.74 486.818 947.198 451.54C849.657 416.262 847.298 453.416 788.044 387.627C745.989 340.928 719.251 461.515 657.3 502.801" fill="#202020"/>
<path fill-rule="evenodd" clip-rule="evenodd" d="M967.573 621.093C884.559 637.701 911.539 702.033 923.991 737.311C936.444 772.589 940.593 859.752 847.201 857.699C753.809 855.646 755.889 961.464 847.201 938.638C938.513 915.813 990.393 949.016 992.467 996.747C994.542 1044.48 939.986 1069.14 960 1175.1H1559.02C1559.02 1175.1 1718.82 1106.71 1700.17 1034.08C1681.52 961.442 1563.2 1040.31 1492.64 1005.02C1422.08 969.74 1368.1 911.637 1415.83 805.798C1463.56 699.958 1426.21 685.41 1351.5 675.053C1276.79 664.696 1183.4 641.85 1185.47 579.592C1186.79 539.944 1169.6 502.823 1140.33 501.99C1084.97 500.378 1071.17 600.375 967.573 621.093Z" fill="#202020"/>
<path fill-rule="evenodd" clip-rule="evenodd" d="M1162.11 86.6945C1162.11 86.6945 1116.43 94.9981 1118.54 159.33C1120.64 223.663 1130.98 269.319 1079.1 327.427C1027.22 385.536 1020.99 449.868 1104.01 433.267C1187.02 416.665 1211.92 379.312 1290.78 420.814C1369.64 462.316 1398.7 420.814 1344.74 341.955C1290.79 263.095 1292.86 196.688 1317.76 140.654C1342.67 84.62 1292.86 59.7147 1243.06 124.047C1193.26 188.379 1220.23 80.4709 1162.12 86.6945" fill="#202020"/>
</g>
<defs>
<clipPath id="clip0_101_364">
<rect width="2150" height="1270.08" fill="white" transform="translate(-115 -95)"/>
</clipPath>
</defs>
</svg>
