<svg width="1920" height="1175" viewBox="0 0 1920 1175" fill="none" xmlns="http://www.w3.org/2000/svg">
<path fill-rule="evenodd" clip-rule="evenodd" d="M-57.5416 -95H1977.54C2009.14 -95 2035 -69.145 2035 -37.5451V1117.55C2035 1149.15 2009.14 1175 1977.54 1175H-57.5416C-89.1435 1175 -115 1149.15 -115 1117.55V-37.5451C-115 -69.145 -89.1435 -95 -57.5416 -95Z" fill="#A2C7FF"/>
<path fill-rule="evenodd" clip-rule="evenodd" d="M1977.54 -95H1156.57C1156.57 -95 1123.36 47.3233 1368.24 51.4721C1613.13 55.6209 1650.48 225.782 1638.04 279.739C1570 574.569 1933.64 495.424 1820.67 250.686C1776.4 154.785 1820.67 6.42609 2035.01 32.8776V-37.5236C2035.01 -69.1235 2009.15 -94.9785 1977.55 -94.9785" fill="#EAF6DF"/>
<path fill-rule="evenodd" clip-rule="evenodd" d="M2035 1117.55V142.773C2035 142.773 1922.33 138.624 1936.86 271.436C1951.38 404.247 1928.55 613.838 1710.65 576.482C1492.75 539.127 1544.63 294.26 1544.63 294.26C1563.32 228.862 1518.64 176.098 1471.83 171.084C1429.22 166.516 1384.83 201.513 1384.83 302.563C1384.83 366.891 1442.94 462.352 1457.47 497.644C1471.99 532.936 1445.01 580.653 1374.45 534.999C1303.89 489.346 1237.48 561.972 1308.04 605.551C1375.39 647.147 1691.82 568.47 1706.5 744.585C1712.72 819.286 1667.06 896.072 1588.2 835.892C1509.33 775.712 1438.79 883.62 1517.64 943.799C1596.49 1003.98 1716.87 883.609 1818.56 939.65C1920.25 995.692 1808.18 1150.99 1654.61 1175.04H1977.54C2009.14 1175.04 2035 1149.18 2035 1117.58" fill="#EAF6DF"/>
<path fill-rule="evenodd" clip-rule="evenodd" d="M224.709 -95H-57.5416C-89.1435 -95 -115 -69.1665 -115 -37.5451V312.935C-95.308 286.789 -62.771 264.293 -24.3274 264.207C15.8735 264.116 85.7738 324.398 129.275 284.849C172.303 245.758 111.453 178.834 89.8154 142.768C77.7659 122.69 72.5204 100.178 79.2438 78.7674C86.4187 55.9219 107.218 34.3287 147.924 18.26C226.784 -12.867 224.709 -94.9892 224.709 -94.9892" fill="#EAF6DF"/>
<path fill-rule="evenodd" clip-rule="evenodd" d="M-115 378.284V490.34C64.276 352.526 197.557 549.424 340.905 399.028C404.2 332.625 334.681 210.192 334.681 210.192C334.681 210.192 287.988 150.002 359.587 98.1304C431.185 46.2592 428.068 -95 428.068 -95H292.142C292.142 -95 281.764 35.8818 216.395 74.2854C151.025 112.689 186.298 163.496 206.022 200.873C225.746 238.25 226.773 296.329 204.985 331.604C183.197 366.88 116.784 376.21 26.5096 343.019C-63.7653 309.828 -115 378.284 -115 378.284Z" fill="#EAF6DF"/>
<path fill-rule="evenodd" clip-rule="evenodd" d="M-115 611.737V1117.55C-115 1149.15 -89.1435 1175.01 -57.5416 1175.01H496.528C401.067 1097.05 455.021 1024.69 471.628 983.186C537.492 818.544 348.306 703.677 326.356 844.152C315.978 910.539 253.726 1018.46 154.11 999.787C54.4944 981.112 60.7234 862.827 168.621 827.546C276.519 792.265 336.718 607.582 170.696 559.849C4.67316 512.116 -115 611.737 -115 611.737Z" fill="#EAF6DF"/>
<path fill-rule="evenodd" clip-rule="evenodd" d="M591.957 1175H861.373C839.773 1150.6 835.931 1115.02 849.292 1068.26C870.048 995.633 807.785 956.208 757.979 995.633C708.174 1035.06 681.194 1001.86 693.642 935.442C706.089 869.023 716.472 781.882 645.911 700.953C575.35 620.024 519.321 663.597 508.943 686.443C498.565 709.288 488.192 744.548 537.997 794.35C587.802 844.152 604.409 898.108 550.45 1008.09C496.49 1118.07 591.957 1175 591.957 1175Z" fill="#EAF6DF"/>
<path fill-rule="evenodd" clip-rule="evenodd" d="M608.575 384.491C613.707 247.698 486.574 182.365 591.973 103.306C666.678 47.2803 677.061 -95 677.061 -95H546.317C546.317 -95 523.492 41.0517 457.101 115.758C349.628 236.622 639.693 426.41 353.331 487.213C300.629 498.402 284.844 590.971 411.439 586.822C538.035 582.673 606.161 449.309 608.591 384.491" fill="#EAF6DF"/>
<path fill-rule="evenodd" clip-rule="evenodd" d="M1095.22 -95H806.753C806.753 -95 686.365 -24.3193 744.49 116.789C802.614 257.898 721.664 249.6 698.807 247.526C675.949 245.452 628.251 272.43 690.508 322.227C752.766 372.023 842.004 311.849 839.918 264.121C837.833 216.394 842.031 191.479 883.538 176.969C925.045 162.459 941.641 215.362 918.816 262.052C895.99 308.743 931.268 365.811 991.451 342.981C1051.63 320.152 1064.09 195.649 1012.2 137.544C960.317 79.4391 999.75 27.5572 1045.41 23.4084C1091.06 19.2595 1134.62 -24.5666 1095.22 -95Z" fill="#EAF6DF"/>
<path fill-rule="evenodd" clip-rule="evenodd" d="M657.321 502.765C601.287 540.121 595.063 587.849 649.018 610.678C702.972 633.507 738.234 693.681 736.181 735.186C734.127 776.69 808.816 832.716 825.397 724.808C841.977 616.901 827.788 581.744 893.883 560.87C959.979 539.997 1044.74 486.783 947.198 451.507C849.657 416.231 847.298 453.382 788.044 387.598C745.989 340.902 719.251 461.481 657.3 502.765" fill="#EAF6DF"/>
<path fill-rule="evenodd" clip-rule="evenodd" d="M967.573 621.05C884.559 637.656 911.539 701.985 923.991 737.26C936.444 772.536 940.593 859.694 847.201 857.641C753.809 855.588 755.889 961.4 847.201 938.576C938.513 915.752 990.393 948.953 992.467 996.681C994.542 1044.41 939.986 1069.07 960 1175.02H1559.02C1559.02 1175.02 1718.82 1106.64 1700.17 1034.01C1681.52 961.378 1563.2 1040.24 1492.64 1004.96C1422.08 969.676 1368.1 911.576 1415.83 805.743C1463.56 699.91 1426.21 685.362 1351.5 675.006C1276.79 664.65 1183.4 641.805 1185.47 579.551C1186.79 539.906 1169.6 502.787 1140.33 501.954C1084.97 500.342 1071.17 600.333 967.573 621.05Z" fill="#EAF6DF"/>
<path fill-rule="evenodd" clip-rule="evenodd" d="M1162.11 86.6835C1162.11 86.6835 1116.43 94.9865 1118.54 159.315C1120.64 223.643 1130.98 269.297 1079.1 327.402C1027.22 385.507 1020.99 449.835 1104.01 433.235C1187.02 416.634 1211.92 379.284 1290.78 420.783C1369.64 462.282 1398.7 420.783 1344.74 341.928C1290.79 263.073 1292.86 196.671 1317.76 140.64C1342.67 84.6091 1292.86 59.7053 1243.06 124.034C1193.26 188.362 1220.23 80.4602 1162.12 86.6835" fill="#EAF6DF"/>
</svg>
