<svg width="61" height="61" viewBox="0 0 61 61" fill="none" xmlns="http://www.w3.org/2000/svg">
<path d="M30.4999 5.08331C27.1622 5.08331 23.8571 5.74073 20.7734 7.01804C17.6897 8.29535 14.8878 10.1675 12.5276 12.5277C7.76107 17.2942 5.08325 23.7591 5.08325 30.5C5.08325 41.7341 12.3778 51.2654 22.4683 54.6458C23.7391 54.8491 24.1458 54.0612 24.1458 53.375V49.0796C17.1053 50.6046 15.6058 45.6737 15.6058 45.6737C14.4366 42.7254 12.7845 41.9375 12.7845 41.9375C10.4716 40.3616 12.9624 40.4125 12.9624 40.4125C15.5041 40.5904 16.8512 43.0304 16.8512 43.0304C19.0624 46.8937 22.7987 45.75 24.2474 45.14C24.4762 43.4879 25.137 42.3696 25.8487 41.7341C20.2062 41.0987 14.2841 38.9129 14.2841 29.2291C14.2841 26.4079 15.2499 24.1458 16.902 22.3412C16.6478 21.7058 15.7583 19.0625 17.1562 15.6312C17.1562 15.6312 19.2912 14.945 24.1458 18.2237C26.1537 17.6646 28.3395 17.385 30.4999 17.385C32.6603 17.385 34.8462 17.6646 36.8541 18.2237C41.7087 14.945 43.8437 15.6312 43.8437 15.6312C45.2416 19.0625 44.352 21.7058 44.0978 22.3412C45.7499 24.1458 46.7158 26.4079 46.7158 29.2291C46.7158 38.9383 40.7683 41.0733 35.1003 41.7087C36.0153 42.4966 36.8541 44.0471 36.8541 46.4108V53.375C36.8541 54.0612 37.2608 54.8746 38.557 54.6458C48.6474 51.24 55.9166 41.7341 55.9166 30.5C55.9166 27.1622 55.2592 23.8571 53.9819 20.7734C52.7046 17.6897 50.8324 14.8878 48.4722 12.5277C46.1121 10.1675 43.3102 8.29535 40.2265 7.01804C37.1428 5.74073 33.8377 5.08331 30.4999 5.08331Z" fill="#A2C7FF"/>
</svg>
