<svg width="61" height="61" viewBox="0 0 61 61" fill="none" xmlns="http://www.w3.org/2000/svg">
<path d="M48.2917 7.625C49.6399 7.625 50.9328 8.16056 51.8861 9.11387C52.8394 10.0672 53.375 11.3601 53.375 12.7083V48.2917C53.375 49.6399 52.8394 50.9328 51.8861 51.8861C50.9328 52.8394 49.6399 53.375 48.2917 53.375H12.7083C11.3601 53.375 10.0672 52.8394 9.11387 51.8861C8.16056 50.9328 7.625 49.6399 7.625 48.2917V12.7083C7.625 11.3601 8.16056 10.0672 9.11387 9.11387C10.0672 8.16056 11.3601 7.625 12.7083 7.625H48.2917ZM47.0208 47.0208V33.55C47.0208 31.3525 46.1479 29.2449 44.594 27.691C43.0401 26.1371 40.9325 25.2642 38.735 25.2642C36.5746 25.2642 34.0583 26.5858 32.8383 28.5683V25.7471H25.7471V47.0208H32.8383V34.4904C32.8383 32.5333 34.4142 30.9321 36.3713 30.9321C37.315 30.9321 38.2201 31.307 38.8874 31.9743C39.5547 32.6416 39.9296 33.5467 39.9296 34.4904V47.0208H47.0208ZM17.4867 21.7567C18.6191 21.7567 19.7052 21.3068 20.506 20.506C21.3068 19.7052 21.7567 18.6191 21.7567 17.4867C21.7567 15.1229 19.8504 13.1913 17.4867 13.1913C16.3475 13.1913 15.2549 13.6438 14.4493 14.4493C13.6438 15.2549 13.1913 16.3475 13.1913 17.4867C13.1913 19.8504 15.1229 21.7567 17.4867 21.7567ZM21.0196 47.0208V25.7471H13.9792V47.0208H21.0196Z" fill="#A2C7FF"/>
</svg>
