<svg width="42" height="42" viewBox="0 0 42 42" fill="none" xmlns="http://www.w3.org/2000/svg">
<path d="M40.3594 17.5875C38.7844 8.33437 30.7125 1.3125 21 1.3125C11.2875 1.3125 3.21563 8.33437 1.64062 17.5875L21 7.875L40.3594 17.5875ZM1.64062 24.4125C3.21563 33.6656 11.2875 40.6875 21 40.6875C30.7125 40.6875 38.7844 33.6656 40.3594 24.4125L21 34.125L1.64062 24.4125Z" fill="#699635"/>
<path d="M21 7.875L1.64062 17.5875C1.44375 18.7031 1.3125 19.8188 1.3125 21C1.3125 22.1812 1.44375 23.2969 1.64062 24.4125L21 34.125L40.3594 24.4125C40.5563 23.2969 40.6875 22.1812 40.6875 21C40.6875 19.8188 40.5563 18.7031 40.3594 17.5875L21 7.875Z" fill="#FFE62E"/>
<path d="M17.0625 18.6375C14.9625 18.6375 12.9938 19.0969 11.2219 19.8844C11.1563 20.2781 11.1562 20.6063 11.1562 21C11.1562 26.4469 15.5531 30.8438 21 30.8438C24.675 30.8438 27.8906 28.8094 29.5969 25.8563C27.1687 21.5906 22.4437 18.6375 17.0625 18.6375Z" fill="#428BC1"/>
<path d="M30.7125 22.575C30.7781 22.05 30.8438 21.525 30.8438 21C30.8438 15.5531 26.4469 11.1562 21 11.1562C17.1281 11.1562 13.7812 13.3875 12.1406 16.6687C13.7156 16.2094 15.3563 15.9469 17.0625 15.9469C22.6406 15.9469 27.5625 18.5719 30.7125 22.575Z" fill="#428BC1"/>
<path d="M17.0625 15.9469C15.3563 15.9469 13.7157 16.2094 12.1407 16.6687C11.6813 17.6531 11.3532 18.7031 11.2219 19.8844C12.9938 19.0969 14.9625 18.6375 17.0625 18.6375C22.4438 18.6375 27.1688 21.525 29.5969 25.7906C30.1875 24.8062 30.5157 23.6906 30.7125 22.575C27.5625 18.5719 22.6407 15.9469 17.0625 15.9469Z" fill="white"/>
<path d="M14.4375 21.6562C14.7999 21.6562 15.0938 21.3624 15.0938 21C15.0938 20.6376 14.7999 20.3438 14.4375 20.3438C14.0751 20.3438 13.7812 20.6376 13.7812 21C13.7812 21.3624 14.0751 21.6562 14.4375 21.6562Z" fill="white"/>
<path d="M17.0625 25.5938C17.4249 25.5938 17.7188 25.2999 17.7188 24.9375C17.7188 24.5751 17.4249 24.2812 17.0625 24.2812C16.7001 24.2812 16.4062 24.5751 16.4062 24.9375C16.4062 25.2999 16.7001 25.5938 17.0625 25.5938Z" fill="white"/>
<path d="M21 25.5938C21.3624 25.5938 21.6562 25.2999 21.6562 24.9375C21.6562 24.5751 21.3624 24.2812 21 24.2812C20.6376 24.2812 20.3438 24.5751 20.3438 24.9375C20.3438 25.2999 20.6376 25.5938 21 25.5938Z" fill="white"/>
<path d="M21 28.2188C21.3624 28.2188 21.6562 27.9249 21.6562 27.5625C21.6562 27.2001 21.3624 26.9062 21 26.9062C20.6376 26.9062 20.3438 27.2001 20.3438 27.5625C20.3438 27.9249 20.6376 28.2188 21 28.2188Z" fill="white"/>
<path d="M26.25 25.5938C26.6124 25.5938 26.9062 25.2999 26.9062 24.9375C26.9062 24.5751 26.6124 24.2812 26.25 24.2812C25.8876 24.2812 25.5938 24.5751 25.5938 24.9375C25.5938 25.2999 25.8876 25.5938 26.25 25.5938Z" fill="white"/>
<path d="M26.25 28.2188C26.6124 28.2188 26.9062 27.9249 26.9062 27.5625C26.9062 27.2001 26.6124 26.9062 26.25 26.9062C25.8876 26.9062 25.5938 27.2001 25.5938 27.5625C25.5938 27.9249 25.8876 28.2188 26.25 28.2188Z" fill="white"/>
<path d="M23.625 26.9062C23.9874 26.9062 24.2812 26.6124 24.2812 26.25C24.2812 25.8876 23.9874 25.5938 23.625 25.5938C23.2626 25.5938 22.9688 25.8876 22.9688 26.25C22.9688 26.6124 23.2626 26.9062 23.625 26.9062Z" fill="white"/>
<path d="M14.4375 24.2812C14.7999 24.2812 15.0938 23.9874 15.0938 23.625C15.0938 23.2626 14.7999 22.9688 14.4375 22.9688C14.0751 22.9688 13.7812 23.2626 13.7812 23.625C13.7812 23.9874 14.0751 24.2812 14.4375 24.2812Z" fill="white"/>
</svg>
