<svg width="42" height="42" viewBox="0 0 42 42" fill="none" xmlns="http://www.w3.org/2000/svg">
<path d="M19.2675 5.3375C11.3925 6.195 5.25 12.88 5.25 21C5.25 25.1772 6.90937 29.1832 9.86307 32.1369C12.8168 35.0906 16.8228 36.75 21 36.75C29.1025 36.75 35.7875 30.625 36.6625 22.75C36.82 21.3675 35.2975 20.265 33.9675 21.0875C32.5389 21.9994 30.8915 22.5105 29.1977 22.5674C27.5038 22.6243 25.8258 22.2249 24.3393 21.4109C22.8528 20.597 21.6123 19.3985 20.7478 17.9408C19.8832 16.4831 19.4264 14.8198 19.425 13.125C19.425 11.27 19.9675 9.52 20.895 8.0675C21.6825 6.895 20.825 5.215 19.2675 5.3375Z" fill="#1E7047"/>
</svg>
