<svg width="61" height="61" viewBox="0 0 61 61" fill="none" xmlns="http://www.w3.org/2000/svg">
<path d="M30.5 5.08331C27.1623 5.08331 23.8572 5.74073 20.7735 7.01804C17.6898 8.29535 14.8879 10.1675 12.5277 12.5277C7.76119 17.2942 5.08337 23.7591 5.08337 30.5C5.08337 41.7341 12.378 51.2654 22.4684 54.6458C23.7392 54.8491 24.1459 54.0612 24.1459 53.375V49.0796C17.1055 50.6046 15.6059 45.6737 15.6059 45.6737C14.4367 42.7254 12.7846 41.9375 12.7846 41.9375C10.4717 40.3616 12.9625 40.4125 12.9625 40.4125C15.5042 40.5904 16.8513 43.0304 16.8513 43.0304C19.0625 46.8937 22.7988 45.75 24.2475 45.14C24.4763 43.4879 25.1371 42.3696 25.8488 41.7341C20.2063 41.0987 14.2842 38.9129 14.2842 29.2291C14.2842 26.4079 15.25 24.1458 16.9021 22.3412C16.648 21.7058 15.7584 19.0625 17.1563 15.6312C17.1563 15.6312 19.2913 14.945 24.1459 18.2237C26.1538 17.6646 28.3396 17.385 30.5 17.385C32.6605 17.385 34.8463 17.6646 36.8542 18.2237C41.7088 14.945 43.8438 15.6312 43.8438 15.6312C45.2417 19.0625 44.3521 21.7058 44.098 22.3412C45.75 24.1458 46.7159 26.4079 46.7159 29.2291C46.7159 38.9383 40.7684 41.0733 35.1005 41.7087C36.0155 42.4966 36.8542 44.0471 36.8542 46.4108V53.375C36.8542 54.0612 37.2609 54.8746 38.5571 54.6458C48.6475 51.24 55.9167 41.7341 55.9167 30.5C55.9167 27.1622 55.2593 23.8571 53.982 20.7734C52.7047 17.6897 50.8325 14.8878 48.4723 12.5277C46.1122 10.1675 43.3103 8.29535 40.2266 7.01804C37.1429 5.74073 33.8378 5.08331 30.5 5.08331Z" fill="black"/>
</svg>
