<svg width="42" height="42" viewBox="0 0 42 42" fill="none" xmlns="http://www.w3.org/2000/svg">
<path d="M21.25 29C18.8292 29 16.7653 28.1466 15.0585 26.4398C13.3517 24.7329 12.4988 22.6697 12.5 20.25C12.5 17.8292 13.3534 15.7653 15.0603 14.0585C16.7671 12.3517 18.8303 11.4988 21.25 11.5C23.6708 11.5 25.7347 12.3534 27.4415 14.0603C29.1483 15.7671 30.0012 17.8303 30 20.25C30 22.6708 29.1466 24.7347 27.4398 26.4415C25.7329 28.1483 23.6697 29.0012 21.25 29ZM3.75001 22C3.25417 22 2.83826 21.832 2.50226 21.496C2.16626 21.16 1.99884 20.7447 2.00001 20.25C2.00001 19.7542 2.16801 19.3383 2.50401 19.0023C2.84001 18.6663 3.25534 18.4988 3.75001 18.5H7.25001C7.74584 18.5 8.16176 18.668 8.49776 19.004C8.83376 19.34 9.00117 19.7553 9.00001 20.25C9.00001 20.7458 8.83201 21.1618 8.49601 21.4978C8.16001 21.8338 7.74467 22.0012 7.25001 22H3.75001ZM35.25 22C34.7542 22 34.3383 21.832 34.0023 21.496C33.6663 21.16 33.4988 20.7447 33.5 20.25C33.5 19.7542 33.668 19.3383 34.004 19.0023C34.34 18.6663 34.7553 18.4988 35.25 18.5H38.75C39.2458 18.5 39.6618 18.668 39.9978 19.004C40.3338 19.34 40.5012 19.7553 40.5 20.25C40.5 20.7458 40.332 21.1618 39.996 21.4978C39.66 21.8338 39.2447 22.0012 38.75 22H35.25ZM21.25 8.00001C20.7542 8.00001 20.3383 7.83201 20.0023 7.49601C19.6663 7.16001 19.4988 6.74467 19.5 6.25001V2.75001C19.5 2.25417 19.668 1.83826 20.004 1.50226C20.34 1.16626 20.7553 0.998839 21.25 1.00001C21.7458 1.00001 22.1618 1.16801 22.4978 1.50401C22.8338 1.84001 23.0012 2.25534 23 2.75001V6.25001C23 6.74584 22.832 7.16176 22.496 7.49776C22.16 7.83376 21.7447 8.00117 21.25 8.00001ZM21.25 39.5C20.7542 39.5 20.3383 39.332 20.0023 38.996C19.6663 38.66 19.4988 38.2447 19.5 37.75V34.25C19.5 33.7542 19.668 33.3383 20.004 33.0023C20.34 32.6663 20.7553 32.4988 21.25 32.5C21.7458 32.5 22.1618 32.668 22.4978 33.004C22.8338 33.34 23.0012 33.7553 23 34.25V37.75C23 38.2458 22.832 38.6618 22.496 38.9978C22.16 39.3338 21.7447 39.5012 21.25 39.5ZM10.1375 11.5875L8.25626 9.75001C7.90626 9.42917 7.73826 9.02084 7.75226 8.52501C7.76626 8.02917 7.93426 7.60626 8.25626 7.25626C8.60626 6.90626 9.02917 6.73126 9.52501 6.73126C10.0208 6.73126 10.4292 6.90626 10.75 7.25626L12.5875 9.13751C12.9083 9.48751 13.0688 9.89584 13.0688 10.3625C13.0688 10.8292 12.9083 11.2375 12.5875 11.5875C12.2667 11.9375 11.8659 12.1055 11.3853 12.0915C10.9046 12.0775 10.4887 11.9095 10.1375 11.5875ZM31.75 33.2438L29.9125 31.3625C29.5917 31.0125 29.4313 30.5966 29.4313 30.1148C29.4313 29.6329 29.5917 29.2322 29.9125 28.9125C30.2333 28.5625 30.6347 28.3951 31.1165 28.4103C31.5983 28.4254 32.0137 28.5928 32.3625 28.9125L34.2438 30.75C34.5938 31.0708 34.7618 31.4792 34.7478 31.975C34.7338 32.4708 34.5658 32.8938 34.2438 33.2438C33.8938 33.5938 33.4708 33.7688 32.975 33.7688C32.4792 33.7688 32.0708 33.5938 31.75 33.2438ZM29.9125 11.5875C29.5625 11.2667 29.3945 10.8659 29.4085 10.3853C29.4225 9.90459 29.5905 9.48867 29.9125 9.13751L31.75 7.25626C32.0708 6.90626 32.4792 6.73826 32.975 6.75226C33.4708 6.76626 33.8938 6.93426 34.2438 7.25626C34.5938 7.60626 34.7688 8.02917 34.7688 8.52501C34.7688 9.02084 34.5938 9.42917 34.2438 9.75001L32.3625 11.5875C32.0125 11.9083 31.6042 12.0688 31.1375 12.0688C30.6708 12.0688 30.2625 11.9083 29.9125 11.5875ZM8.25626 33.2438C7.90626 32.8938 7.73126 32.4708 7.73126 31.975C7.73126 31.4792 7.90626 31.0708 8.25626 30.75L10.1375 28.9125C10.4875 28.5917 10.9028 28.4313 11.3835 28.4313C11.8642 28.4313 12.2655 28.5917 12.5875 28.9125C12.9375 29.2333 13.1055 29.6347 13.0915 30.1165C13.0775 30.5983 12.9095 31.0137 12.5875 31.3625L10.75 33.2438C10.4292 33.5938 10.0208 33.7618 9.52501 33.7478C9.02917 33.7338 8.60626 33.5658 8.25626 33.2438Z" fill="white"/>
</svg>
