<svg width="138" height="75" viewBox="0 0 138 75" fill="none" xmlns="http://www.w3.org/2000/svg">
<path d="M38.4928 71.0077C38.4418 70.9311 38.3781 70.8673 38.3143 70.8036C36.6185 68.4694 35.7515 65.8546 35.7515 63.0357C35.7515 60.8801 36.2233 58.8138 37.1413 56.9005C37.8681 55.2551 38.6586 52.551 39.4236 48.9413C40.2268 45.1403 41.1704 40.0765 42.2286 33.8775C44.0519 22.9209 45.5182 15.8291 46.7039 12.2194C47.7622 8.99235 49.1647 6.35204 50.8605 4.34949C50.9243 4.27296 50.988 4.18367 51.0518 4.10714C51.7148 3.35459 52.4925 2.66582 53.3468 2.04082C51.0008 0.688776 47.7112 0 43.4526 0C38.8116 0 34.9483 0.612245 31.8627 1.83673C28.7772 3.06122 27.1834 4.64286 27.0814 6.58163C26.9284 8.52041 27.1962 10.1531 27.8847 11.4796C28.5732 12.8061 29.6314 14.3367 31.0595 16.0714C31.9265 17.0918 32.564 17.9082 32.972 18.5204C33.38 19.1327 33.6095 19.7704 33.6605 20.4337C33.8135 23.0357 33.89 24.7194 33.89 25.4847C33.89 30.9949 32.7935 33.8776 30.6005 34.1327C29.5804 34.2347 28.6624 33.6097 27.8464 32.2577C27.0304 30.9056 26.6224 29.4388 26.6224 27.8571C26.6224 26.9388 26.7754 26.148 27.0814 25.4847C27.4384 24.7194 27.6169 23.9286 27.6169 23.1122C27.6169 21.1735 26.4821 19.6301 24.2126 18.4821C21.9431 17.3342 19.1763 16.7602 15.9122 16.7602C9.74114 16.8112 5.54633 19.4133 3.3278 24.5663C1.10927 29.7194 0 35.7653 0 42.7041C0 44.4898 0.0255004 45.7398 0.0765011 46.4541C0.433506 55.0765 3.16205 61.977 8.26212 67.1556C13.3622 72.3342 21.0888 74.949 31.442 75C34.757 75 37.9573 74.5536 41.0429 73.6862C40.0866 72.8954 39.2323 72.0025 38.4928 71.0077Z" fill="black"/>
<path d="M91.304 74.0179C89.5063 73.1505 87.8742 72.1811 86.3825 71.1352C83.5519 69.1454 81.2569 66.824 79.5356 64.1964C77.3808 60.9056 76.0293 57.398 75.4811 53.7373C75.3663 52.9464 75.2771 52.1429 75.2261 51.3265L75.1496 49.2475C75.1496 47.1811 75.3281 45.2168 75.6723 43.3291C76.2078 40.3699 77.1641 37.6531 78.5411 35.2041C80.7979 31.2245 84.3042 27.7551 88.9835 24.8725C89.6338 24.4898 90.3223 24.1454 91.0363 23.852C89.7868 23.4566 88.7158 23.0867 87.7722 22.7041C85.7577 21.8878 84.0237 20.7015 82.6339 19.1837C81.0146 17.4107 80.1986 15.1403 80.1986 12.4362C80.1986 10.0638 80.8999 7.88266 82.2642 5.93113C82.8252 5.12755 83.5009 4.34949 84.2914 3.6097C84.3552 3.57143 84.4062 3.52041 84.4572 3.48215C83.6412 3.06123 82.7869 2.67857 81.8562 2.38521C79.1531 1.54337 75.7106 1.12245 71.5285 1.12245C66.6834 1.12245 62.8329 1.54337 59.9768 2.38521C59.5943 2.5 59.2501 2.64031 58.8803 2.76786C57.7838 3.16327 56.7893 3.62245 55.9223 4.15817C54.9788 4.7449 54.15 5.42092 53.4742 6.18623C53.4615 6.18623 53.4487 6.19898 53.436 6.21174C51.9315 7.92092 50.6947 10.2551 49.7257 13.2143C48.6037 16.6327 47.1501 23.699 45.3651 34.4133C44.2941 40.6888 43.3506 45.7526 42.5346 49.6046C41.7186 53.4566 40.8771 56.352 40.01 58.2908C39.296 59.7704 38.939 61.352 38.939 63.0357C38.939 65.1786 39.5893 67.1429 40.8898 68.9286C41.1831 69.324 41.5018 69.7066 41.8333 70.0638C42.6748 70.9694 43.6311 71.7475 44.7276 72.4107C45.1611 72.6658 45.5946 72.9209 46.0536 73.1378C46.8951 73.5332 47.7622 73.8393 48.6292 74.0816C49.9934 74.4515 51.4087 74.6684 52.8622 74.6684C57.3503 74.6684 60.9969 73.4311 63.8019 70.9566C66.6069 68.4822 68.137 65 68.392 60.5102C68.647 55.7143 68.7745 50.6633 68.7745 45.3572C68.7745 42.2449 68.7235 38.75 68.6215 34.8725L68.545 29.3623C68.545 26.6071 68.749 24.6684 69.157 23.5459C69.565 22.4235 70.3555 21.8622 71.5285 21.8622C72.2425 21.8622 72.7398 22.1429 73.0203 22.7041C73.3008 23.2653 73.441 24.2347 73.441 25.6123C73.441 26.2245 73.339 28.2653 73.135 31.7347C72.574 38.8265 72.2935 45.9184 72.2935 53.0102C72.2935 54.7959 72.3445 58.0357 72.4465 62.7296C72.5995 67.3214 74.3208 70.4209 77.6103 72.0281C80.8999 73.6352 84.6102 74.4388 88.7413 74.4388C89.7995 74.4388 90.8323 74.3623 91.8396 74.2475C91.6611 74.1709 91.4698 74.0944 91.304 74.0179ZM73.3645 11.8367C72.8035 12.5 71.962 12.8316 70.84 12.8316C69.922 12.8316 69.259 12.5638 68.851 12.0281C68.443 11.4924 68.239 10.7908 68.239 9.92347C68.239 8.85204 68.5067 7.81888 69.0422 6.82398C69.5777 5.82908 70.177 5.33164 70.84 5.33164C71.809 5.33164 72.6123 5.7398 73.2498 6.55613C73.8873 7.37245 74.206 8.31633 74.206 9.38776C74.206 10.3571 73.9255 11.1735 73.3645 11.8367Z" fill="black"/>
<path d="M135.445 37.2704C134.094 34.3878 132.411 32.1173 130.396 30.4592C128.382 28.801 125.64 26.977 122.172 24.9872C118.602 22.8954 115.682 20.9311 113.413 19.0944C111.143 17.2577 109.193 14.8342 107.561 11.824C106.388 9.63011 105.801 7.8699 105.801 6.54337C105.801 5.72704 105.98 5.10204 106.337 4.66837C106.694 4.2347 107.127 4.01786 107.637 4.01786C108.198 4.01786 108.708 4.28572 109.167 4.82143C109.626 5.35715 109.856 6.03317 109.856 6.84949C109.856 10.3189 110.799 13.2781 112.686 15.727C114.573 18.176 116.906 20.0128 119.686 21.2372C122.466 22.4617 125.13 23.074 127.68 23.074C129.567 23.074 131.097 22.7423 132.27 22.0791C133.443 21.4158 134.03 20.4719 134.03 19.2475C134.03 18.8903 134.004 18.6352 133.953 18.4821C132.882 13.023 130.167 8.58419 125.806 5.16582C121.446 1.74745 115.491 0.038269 107.943 0.038269C103.098 0.038269 98.814 0.561228 95.0909 1.60715C93.1529 2.15562 91.4571 2.80613 89.9781 3.57143C88.9453 4.10715 88.0273 4.68113 87.224 5.31888C86.9563 5.53572 86.7013 5.75255 86.4463 5.96939C85.8853 6.49235 85.4008 7.02806 84.9928 7.58929C83.9345 9.05613 83.3862 10.6633 83.3862 12.4362C83.3862 14.324 83.9217 15.8546 84.9928 17.0281C86.0638 18.2015 87.3898 19.1071 88.9708 19.7449C89.4171 19.9235 89.9398 20.1148 90.4753 20.3061C91.4698 20.6505 92.6174 21.0077 93.9179 21.3648C94.3896 21.4923 94.8741 21.6327 95.3842 21.773C96.0599 21.977 96.6974 22.1684 97.3094 22.3597C99.528 23.0485 101.377 23.699 102.843 24.2985C104.705 25.0638 106.273 26.1352 107.548 27.5128C108.67 28.6862 109.231 30.1403 109.231 31.875C109.231 33.3546 108.81 34.6429 107.969 35.7398C107.127 36.8367 106.018 37.3852 104.641 37.3852C103.723 37.3852 102.971 37.0153 102.384 36.2755C101.798 35.5357 101.504 34.6811 101.504 33.7117C101.504 33.0485 101.708 32.3852 102.116 31.7219C102.83 30.6505 103.187 29.6811 103.187 28.8138C103.187 27.7934 102.69 27.0153 101.696 26.4796C100.701 25.9439 99.4387 25.676 97.9087 25.676C97.8449 25.676 97.7939 25.6888 97.7302 25.6888C96.6719 25.7015 95.6264 25.8418 94.5681 26.0842C94.4024 26.1225 94.2494 26.1352 94.0836 26.1735C93.1401 26.4158 92.2859 26.773 91.4698 27.1684C91.1893 27.3087 90.8961 27.4235 90.6411 27.5893C86.408 30.1913 83.297 33.2526 81.3079 36.773C79.3189 40.2934 78.3244 44.4515 78.3244 49.2475L78.4009 51.1607C78.6049 55.1403 79.8672 58.9031 82.1877 62.449C84.4572 65.9184 87.8488 68.75 92.3496 70.9694C92.4516 71.0204 92.5536 71.0842 92.6684 71.1352C94.1729 71.8623 95.8049 72.449 97.5262 72.9464C99.1327 73.4056 100.816 73.7628 102.614 74.0179C104.909 74.3367 107.369 74.5026 109.983 74.5026C115.44 74.5026 120.183 73.4184 124.212 71.25C128.241 69.0816 131.365 66.2628 133.584 62.7934C135.802 59.324 137.039 55.625 137.294 51.6964C137.396 50.1658 137.447 49.0689 137.447 48.4056C137.473 43.8648 136.797 40.1531 135.445 37.2704Z" fill="black"/>
</svg>
