<svg width="635" height="281" viewBox="0 0 635 281" fill="none" xmlns="http://www.w3.org/2000/svg">
<mask id="path-1-outside-1_41_9" maskUnits="userSpaceOnUse" x="3" y="6" width="629" height="257" fill="black">
<rect fill="white" x="3" y="6" width="629" height="257"/>
<path d="M100.154 95.4C100.154 114.831 86.5369 127.53 67.7179 127.53C47.2159 127.53 35.7409 114.372 35.7409 91.116C35.7409 79.794 40.6369 70.614 47.3689 70.614C53.1829 70.614 55.4779 75.969 59.1499 75.969C66.0349 75.969 70.7779 64.188 70.1659 48.888C69.7069 35.577 65.5759 30.681 60.5269 28.845C64.6579 22.113 73.8379 17.676 83.7829 17.676C100.001 17.676 93.2689 29.61 94.4929 50.724C95.2579 66.177 100.154 83.772 100.154 95.4ZM103.276 104.58C103.276 81.63 118.423 62.505 118.423 41.391C118.423 32.823 114.445 29.916 111.385 28.998C116.128 22.113 129.133 17.523 143.362 17.523C164.629 17.523 175.033 27.774 174.727 45.981C174.421 62.964 190.792 81.63 190.792 104.58C190.792 123.858 177.787 127.53 168.76 127.53C159.733 127.53 148.105 126 148.105 107.793C148.105 98.613 150.553 93.717 151.93 83.925C152.848 76.734 140.761 77.958 141.679 83.925C143.209 93.564 145.963 98.613 145.963 107.793C145.963 126 134.335 127.53 125.308 127.53C116.281 127.53 103.276 123.858 103.276 104.58ZM139.231 54.243C139.231 60.057 143.209 59.904 146.575 59.904C149.788 59.904 154.378 59.904 154.378 54.243C154.378 50.571 152.542 41.544 146.422 41.697C139.996 42.003 139.231 51.795 139.231 54.243ZM266.681 92.187C266.681 126 237.764 127.53 229.961 127.53C206.552 127.53 192.476 113.913 192.476 91.269C192.476 79.335 196.454 72.603 203.492 72.603C208.694 72.603 212.213 76.428 217.109 76.428C220.475 76.428 222.77 74.745 222.77 72.144C222.77 63.882 198.137 65.871 198.137 45.063C198.137 28.998 212.825 17.676 233.939 17.676C250.463 17.676 260.561 24.561 260.561 35.883C260.561 45.828 253.217 52.713 244.343 52.56C246.026 46.287 240.977 39.708 235.01 39.708C231.338 39.708 227.36 42.156 227.36 45.981C227.36 57.762 266.681 52.713 266.681 92.187ZM319.754 80.406C306.902 80.406 318.53 51.489 309.197 51.489C306.596 51.489 305.678 53.631 306.443 60.822C308.891 83.007 313.94 89.739 313.94 101.826C313.94 117.126 306.137 127.53 294.815 127.53C287.012 127.53 269.723 127.836 269.723 102.591C269.723 84.537 279.209 67.707 280.433 48.888C281.504 33.741 276.455 28.998 273.242 29.61C273.854 23.337 282.422 17.523 291.755 17.523C312.257 17.523 315.011 30.681 321.284 30.681C327.557 30.681 327.251 17.523 347.753 17.523C356.015 17.523 360.299 19.971 360.299 27.468C360.299 32.823 358.004 33.741 358.769 45.522C360.299 67.707 369.785 84.537 369.785 102.591C369.785 127.836 352.496 127.53 344.693 127.53C333.371 127.53 325.568 117.126 325.568 101.826C325.568 89.739 330.617 83.007 333.065 60.822C333.83 53.631 332.606 51.489 330.158 51.489C320.978 51.489 332.606 80.406 319.754 80.406ZM372.819 103.05C372.819 86.679 383.529 70.155 383.529 48.582C383.529 32.058 380.01 29.457 376.644 27.621C381.234 21.96 387.966 17.523 399.288 17.523C405.255 17.523 411.528 19.818 411.528 26.703C411.528 34.506 409.692 41.391 409.692 48.276C409.692 67.095 423.003 88.668 423.003 104.58C423.003 127.836 403.572 127.53 397.911 127.53C390.108 127.53 372.819 127.836 372.819 103.05ZM509.242 48.582C509.242 75.051 518.116 88.974 518.116 103.05C518.116 117.738 511.078 127.53 496.696 127.53C481.243 127.53 477.112 116.055 474.817 100.449C472.063 81.783 474.817 73.674 469.156 73.674C463.495 73.674 469.462 90.351 469.462 104.274C469.462 119.727 462.118 127.53 449.725 127.53C441.922 127.53 426.01 127.836 426.01 102.591C426.01 84.537 433.507 65.871 434.731 46.593C435.496 34.353 433.201 29.763 428.305 28.386C430.294 22.113 438.25 17.523 446.971 17.523C471.604 17.523 473.593 55.161 480.478 55.161C482.773 55.161 483.079 46.899 482.926 42.921C482.62 32.364 478.642 32.364 478.642 28.233C478.642 21.96 487.516 17.829 498.838 17.829C504.805 17.829 511.078 20.124 511.078 27.009C511.078 34.812 509.242 41.697 509.242 48.582ZM521.187 103.356C521.187 84.078 528.225 81.018 529.296 64.953C530.52 47.664 523.023 40.167 523.023 29.457C523.023 22.725 530.673 17.676 540.006 17.676C548.268 17.676 554.694 21.501 562.038 21.501C570.606 21.501 581.163 21.348 582.387 16.146C586.059 18.441 588.048 22.266 588.048 27.468C588.048 34.659 584.223 42.615 574.431 42.615C570.3 42.615 558.825 41.697 558.213 49.347C557.754 55.161 564.486 52.866 569.382 52.866C578.256 52.866 577.95 70.002 569.382 70.002C564.027 70.002 555.918 69.543 555.153 72.45C554.694 74.439 557.295 78.111 563.568 78.111C569.688 78.111 575.655 74.592 582.54 74.592C593.403 74.592 598.452 83.16 599.064 93.87C600.135 112.383 592.485 126 580.857 126C573.513 126 572.289 120.492 567.852 120.492C562.956 120.492 559.437 127.53 542.148 127.53C538.476 127.53 521.187 127.836 521.187 103.356ZM9.44406 206.499C9.44406 172.686 27.1921 146.676 57.0271 146.676C72.4801 146.676 82.5781 153.561 82.5781 164.271C82.5781 173.298 75.0811 182.937 67.2781 182.937C67.8901 178.041 62.3821 171.768 54.2731 171.768C45.5521 171.768 39.1261 178.806 39.1261 189.057C39.1261 199.461 45.5521 205.428 53.5081 205.428C57.6391 205.428 59.9341 203.745 60.0871 202.521C60.2401 199.92 49.8361 202.521 50.1421 194.259C50.2951 189.057 54.4261 185.691 62.2291 185.691C77.0701 185.691 85.0261 197.625 85.0261 223.941C85.0261 227.613 85.1791 256.53 69.1141 256.53C63.4531 256.53 60.2401 252.858 58.4041 243.831C56.5681 251.787 50.2951 256.53 41.4211 256.53C23.2141 256.53 9.44406 236.181 9.44406 206.499ZM88.1853 232.356C88.1853 213.078 95.2233 210.018 96.2943 193.953C97.5183 176.664 90.0213 169.167 90.0213 158.457C90.0213 151.725 97.6713 146.676 107.004 146.676C115.266 146.676 121.692 150.501 129.036 150.501C137.604 150.501 148.161 150.348 149.385 145.146C153.057 147.441 155.046 151.266 155.046 156.468C155.046 163.659 151.221 171.615 141.429 171.615C137.298 171.615 125.823 170.697 125.211 178.347C124.752 184.161 131.484 181.866 136.38 181.866C145.254 181.866 144.948 199.002 136.38 199.002C131.025 199.002 122.916 198.543 122.151 201.45C121.692 203.439 124.293 207.111 130.566 207.111C136.686 207.111 142.653 203.592 149.538 203.592C160.401 203.592 165.45 212.16 166.062 222.87C167.133 241.383 159.483 255 147.855 255C140.511 255 139.287 249.492 134.85 249.492C129.954 249.492 126.435 256.53 109.146 256.53C105.474 256.53 88.1853 256.836 88.1853 232.356ZM211.545 178.194C211.392 182.631 212.616 186.456 216.135 186.609C219.807 186.915 221.49 183.09 221.643 178.5C221.949 172.686 219.654 169.167 217.053 169.014C214.605 169.014 211.851 172.074 211.545 178.194ZM203.895 154.02C208.485 149.43 216.135 146.064 225.468 146.064C240.003 146.064 249.795 154.02 249.795 169.473C249.795 181.713 243.675 191.505 236.331 197.013C250.254 200.226 256.068 206.193 258.975 219.81C261.423 231.591 260.811 256.989 238.779 256.989C227.304 256.989 220.113 249.186 220.419 237.558C220.572 231.591 223.173 208.182 216.441 208.182C209.862 208.182 216.135 225.777 216.135 232.203C216.135 256.836 200.07 256.53 194.409 256.53C186.606 256.53 169.317 256.836 169.317 233.427C169.317 213.078 178.65 203.439 178.65 179.877C178.65 164.118 176.049 159.987 170.847 156.621C174.06 151.266 185.535 146.523 195.174 146.523C198.234 146.523 203.895 146.982 203.895 152.49V154.02ZM313.18 209.406C300.328 209.406 311.956 180.489 302.623 180.489C300.022 180.489 299.104 182.631 299.869 189.822C302.317 212.007 307.366 218.739 307.366 230.826C307.366 246.126 299.563 256.53 288.241 256.53C280.438 256.53 263.149 256.836 263.149 231.591C263.149 213.537 272.635 196.707 273.859 177.888C274.93 162.741 269.881 157.998 266.668 158.61C267.28 152.337 275.848 146.523 285.181 146.523C305.683 146.523 308.437 159.681 314.71 159.681C320.983 159.681 320.677 146.523 341.179 146.523C349.441 146.523 353.725 148.971 353.725 156.468C353.725 161.823 351.43 162.741 352.195 174.522C353.725 196.707 363.211 213.537 363.211 231.591C363.211 256.836 345.922 256.53 338.119 256.53C326.797 256.53 318.994 246.126 318.994 230.826C318.994 218.739 324.043 212.007 326.491 189.822C327.256 182.631 326.032 180.489 323.584 180.489C314.404 180.489 326.032 209.406 313.18 209.406ZM366.245 233.58C366.245 210.63 381.392 191.505 381.392 170.391C381.392 161.823 377.414 158.916 374.354 157.998C379.097 151.113 392.102 146.523 406.331 146.523C427.598 146.523 438.002 156.774 437.696 174.981C437.39 191.964 453.761 210.63 453.761 233.58C453.761 252.858 440.756 256.53 431.729 256.53C422.702 256.53 411.074 255 411.074 236.793C411.074 227.613 413.522 222.717 414.899 212.925C415.817 205.734 403.73 206.958 404.648 212.925C406.178 222.564 408.932 227.613 408.932 236.793C408.932 255 397.304 256.53 388.277 256.53C379.25 256.53 366.245 252.858 366.245 233.58ZM402.2 183.243C402.2 189.057 406.178 188.904 409.544 188.904C412.757 188.904 417.347 188.904 417.347 183.243C417.347 179.571 415.511 170.544 409.391 170.697C402.965 171.003 402.2 180.795 402.2 183.243ZM540.022 177.582C540.022 204.051 548.896 217.974 548.896 232.05C548.896 246.738 541.858 256.53 527.476 256.53C512.023 256.53 507.892 245.055 505.597 229.449C502.843 210.783 505.597 202.674 499.936 202.674C494.275 202.674 500.242 219.351 500.242 233.274C500.242 248.727 492.898 256.53 480.505 256.53C472.702 256.53 456.79 256.836 456.79 231.591C456.79 213.537 464.287 194.871 465.511 175.593C466.276 163.353 463.981 158.763 459.085 157.386C461.074 151.113 469.03 146.523 477.751 146.523C502.384 146.523 504.373 184.161 511.258 184.161C513.553 184.161 513.859 175.899 513.706 171.921C513.4 161.364 509.422 161.364 509.422 157.233C509.422 150.96 518.296 146.829 529.618 146.829C535.585 146.829 541.858 149.124 541.858 156.009C541.858 163.812 540.022 170.697 540.022 177.582ZM550.771 210.63C550.771 176.97 566.836 146.37 589.174 146.217C610.594 146.217 625.588 174.522 625.588 208.947C625.588 240.618 612.889 256.53 587.797 256.53C563.623 256.53 550.771 240.618 550.771 210.63ZM579.994 190.434C579.994 197.319 583.054 202.215 588.715 202.215C594.376 202.215 597.589 197.166 597.589 190.281C597.589 182.631 593.458 176.358 588.715 176.358C583.972 176.358 579.994 182.631 579.994 190.434Z"/>
</mask>
<path d="M100.154 95.4C100.154 114.831 86.5369 127.53 67.7179 127.53C47.2159 127.53 35.7409 114.372 35.7409 91.116C35.7409 79.794 40.6369 70.614 47.3689 70.614C53.1829 70.614 55.4779 75.969 59.1499 75.969C66.0349 75.969 70.7779 64.188 70.1659 48.888C69.7069 35.577 65.5759 30.681 60.5269 28.845C64.6579 22.113 73.8379 17.676 83.7829 17.676C100.001 17.676 93.2689 29.61 94.4929 50.724C95.2579 66.177 100.154 83.772 100.154 95.4ZM103.276 104.58C103.276 81.63 118.423 62.505 118.423 41.391C118.423 32.823 114.445 29.916 111.385 28.998C116.128 22.113 129.133 17.523 143.362 17.523C164.629 17.523 175.033 27.774 174.727 45.981C174.421 62.964 190.792 81.63 190.792 104.58C190.792 123.858 177.787 127.53 168.76 127.53C159.733 127.53 148.105 126 148.105 107.793C148.105 98.613 150.553 93.717 151.93 83.925C152.848 76.734 140.761 77.958 141.679 83.925C143.209 93.564 145.963 98.613 145.963 107.793C145.963 126 134.335 127.53 125.308 127.53C116.281 127.53 103.276 123.858 103.276 104.58ZM139.231 54.243C139.231 60.057 143.209 59.904 146.575 59.904C149.788 59.904 154.378 59.904 154.378 54.243C154.378 50.571 152.542 41.544 146.422 41.697C139.996 42.003 139.231 51.795 139.231 54.243ZM266.681 92.187C266.681 126 237.764 127.53 229.961 127.53C206.552 127.53 192.476 113.913 192.476 91.269C192.476 79.335 196.454 72.603 203.492 72.603C208.694 72.603 212.213 76.428 217.109 76.428C220.475 76.428 222.77 74.745 222.77 72.144C222.77 63.882 198.137 65.871 198.137 45.063C198.137 28.998 212.825 17.676 233.939 17.676C250.463 17.676 260.561 24.561 260.561 35.883C260.561 45.828 253.217 52.713 244.343 52.56C246.026 46.287 240.977 39.708 235.01 39.708C231.338 39.708 227.36 42.156 227.36 45.981C227.36 57.762 266.681 52.713 266.681 92.187ZM319.754 80.406C306.902 80.406 318.53 51.489 309.197 51.489C306.596 51.489 305.678 53.631 306.443 60.822C308.891 83.007 313.94 89.739 313.94 101.826C313.94 117.126 306.137 127.53 294.815 127.53C287.012 127.53 269.723 127.836 269.723 102.591C269.723 84.537 279.209 67.707 280.433 48.888C281.504 33.741 276.455 28.998 273.242 29.61C273.854 23.337 282.422 17.523 291.755 17.523C312.257 17.523 315.011 30.681 321.284 30.681C327.557 30.681 327.251 17.523 347.753 17.523C356.015 17.523 360.299 19.971 360.299 27.468C360.299 32.823 358.004 33.741 358.769 45.522C360.299 67.707 369.785 84.537 369.785 102.591C369.785 127.836 352.496 127.53 344.693 127.53C333.371 127.53 325.568 117.126 325.568 101.826C325.568 89.739 330.617 83.007 333.065 60.822C333.83 53.631 332.606 51.489 330.158 51.489C320.978 51.489 332.606 80.406 319.754 80.406ZM372.819 103.05C372.819 86.679 383.529 70.155 383.529 48.582C383.529 32.058 380.01 29.457 376.644 27.621C381.234 21.96 387.966 17.523 399.288 17.523C405.255 17.523 411.528 19.818 411.528 26.703C411.528 34.506 409.692 41.391 409.692 48.276C409.692 67.095 423.003 88.668 423.003 104.58C423.003 127.836 403.572 127.53 397.911 127.53C390.108 127.53 372.819 127.836 372.819 103.05ZM509.242 48.582C509.242 75.051 518.116 88.974 518.116 103.05C518.116 117.738 511.078 127.53 496.696 127.53C481.243 127.53 477.112 116.055 474.817 100.449C472.063 81.783 474.817 73.674 469.156 73.674C463.495 73.674 469.462 90.351 469.462 104.274C469.462 119.727 462.118 127.53 449.725 127.53C441.922 127.53 426.01 127.836 426.01 102.591C426.01 84.537 433.507 65.871 434.731 46.593C435.496 34.353 433.201 29.763 428.305 28.386C430.294 22.113 438.25 17.523 446.971 17.523C471.604 17.523 473.593 55.161 480.478 55.161C482.773 55.161 483.079 46.899 482.926 42.921C482.62 32.364 478.642 32.364 478.642 28.233C478.642 21.96 487.516 17.829 498.838 17.829C504.805 17.829 511.078 20.124 511.078 27.009C511.078 34.812 509.242 41.697 509.242 48.582ZM521.187 103.356C521.187 84.078 528.225 81.018 529.296 64.953C530.52 47.664 523.023 40.167 523.023 29.457C523.023 22.725 530.673 17.676 540.006 17.676C548.268 17.676 554.694 21.501 562.038 21.501C570.606 21.501 581.163 21.348 582.387 16.146C586.059 18.441 588.048 22.266 588.048 27.468C588.048 34.659 584.223 42.615 574.431 42.615C570.3 42.615 558.825 41.697 558.213 49.347C557.754 55.161 564.486 52.866 569.382 52.866C578.256 52.866 577.95 70.002 569.382 70.002C564.027 70.002 555.918 69.543 555.153 72.45C554.694 74.439 557.295 78.111 563.568 78.111C569.688 78.111 575.655 74.592 582.54 74.592C593.403 74.592 598.452 83.16 599.064 93.87C600.135 112.383 592.485 126 580.857 126C573.513 126 572.289 120.492 567.852 120.492C562.956 120.492 559.437 127.53 542.148 127.53C538.476 127.53 521.187 127.836 521.187 103.356ZM9.44406 206.499C9.44406 172.686 27.1921 146.676 57.0271 146.676C72.4801 146.676 82.5781 153.561 82.5781 164.271C82.5781 173.298 75.0811 182.937 67.2781 182.937C67.8901 178.041 62.3821 171.768 54.2731 171.768C45.5521 171.768 39.1261 178.806 39.1261 189.057C39.1261 199.461 45.5521 205.428 53.5081 205.428C57.6391 205.428 59.9341 203.745 60.0871 202.521C60.2401 199.92 49.8361 202.521 50.1421 194.259C50.2951 189.057 54.4261 185.691 62.2291 185.691C77.0701 185.691 85.0261 197.625 85.0261 223.941C85.0261 227.613 85.1791 256.53 69.1141 256.53C63.4531 256.53 60.2401 252.858 58.4041 243.831C56.5681 251.787 50.2951 256.53 41.4211 256.53C23.2141 256.53 9.44406 236.181 9.44406 206.499ZM88.1853 232.356C88.1853 213.078 95.2233 210.018 96.2943 193.953C97.5183 176.664 90.0213 169.167 90.0213 158.457C90.0213 151.725 97.6713 146.676 107.004 146.676C115.266 146.676 121.692 150.501 129.036 150.501C137.604 150.501 148.161 150.348 149.385 145.146C153.057 147.441 155.046 151.266 155.046 156.468C155.046 163.659 151.221 171.615 141.429 171.615C137.298 171.615 125.823 170.697 125.211 178.347C124.752 184.161 131.484 181.866 136.38 181.866C145.254 181.866 144.948 199.002 136.38 199.002C131.025 199.002 122.916 198.543 122.151 201.45C121.692 203.439 124.293 207.111 130.566 207.111C136.686 207.111 142.653 203.592 149.538 203.592C160.401 203.592 165.45 212.16 166.062 222.87C167.133 241.383 159.483 255 147.855 255C140.511 255 139.287 249.492 134.85 249.492C129.954 249.492 126.435 256.53 109.146 256.53C105.474 256.53 88.1853 256.836 88.1853 232.356ZM211.545 178.194C211.392 182.631 212.616 186.456 216.135 186.609C219.807 186.915 221.49 183.09 221.643 178.5C221.949 172.686 219.654 169.167 217.053 169.014C214.605 169.014 211.851 172.074 211.545 178.194ZM203.895 154.02C208.485 149.43 216.135 146.064 225.468 146.064C240.003 146.064 249.795 154.02 249.795 169.473C249.795 181.713 243.675 191.505 236.331 197.013C250.254 200.226 256.068 206.193 258.975 219.81C261.423 231.591 260.811 256.989 238.779 256.989C227.304 256.989 220.113 249.186 220.419 237.558C220.572 231.591 223.173 208.182 216.441 208.182C209.862 208.182 216.135 225.777 216.135 232.203C216.135 256.836 200.07 256.53 194.409 256.53C186.606 256.53 169.317 256.836 169.317 233.427C169.317 213.078 178.65 203.439 178.65 179.877C178.65 164.118 176.049 159.987 170.847 156.621C174.06 151.266 185.535 146.523 195.174 146.523C198.234 146.523 203.895 146.982 203.895 152.49V154.02ZM313.18 209.406C300.328 209.406 311.956 180.489 302.623 180.489C300.022 180.489 299.104 182.631 299.869 189.822C302.317 212.007 307.366 218.739 307.366 230.826C307.366 246.126 299.563 256.53 288.241 256.53C280.438 256.53 263.149 256.836 263.149 231.591C263.149 213.537 272.635 196.707 273.859 177.888C274.93 162.741 269.881 157.998 266.668 158.61C267.28 152.337 275.848 146.523 285.181 146.523C305.683 146.523 308.437 159.681 314.71 159.681C320.983 159.681 320.677 146.523 341.179 146.523C349.441 146.523 353.725 148.971 353.725 156.468C353.725 161.823 351.43 162.741 352.195 174.522C353.725 196.707 363.211 213.537 363.211 231.591C363.211 256.836 345.922 256.53 338.119 256.53C326.797 256.53 318.994 246.126 318.994 230.826C318.994 218.739 324.043 212.007 326.491 189.822C327.256 182.631 326.032 180.489 323.584 180.489C314.404 180.489 326.032 209.406 313.18 209.406ZM366.245 233.58C366.245 210.63 381.392 191.505 381.392 170.391C381.392 161.823 377.414 158.916 374.354 157.998C379.097 151.113 392.102 146.523 406.331 146.523C427.598 146.523 438.002 156.774 437.696 174.981C437.39 191.964 453.761 210.63 453.761 233.58C453.761 252.858 440.756 256.53 431.729 256.53C422.702 256.53 411.074 255 411.074 236.793C411.074 227.613 413.522 222.717 414.899 212.925C415.817 205.734 403.73 206.958 404.648 212.925C406.178 222.564 408.932 227.613 408.932 236.793C408.932 255 397.304 256.53 388.277 256.53C379.25 256.53 366.245 252.858 366.245 233.58ZM402.2 183.243C402.2 189.057 406.178 188.904 409.544 188.904C412.757 188.904 417.347 188.904 417.347 183.243C417.347 179.571 415.511 170.544 409.391 170.697C402.965 171.003 402.2 180.795 402.2 183.243ZM540.022 177.582C540.022 204.051 548.896 217.974 548.896 232.05C548.896 246.738 541.858 256.53 527.476 256.53C512.023 256.53 507.892 245.055 505.597 229.449C502.843 210.783 505.597 202.674 499.936 202.674C494.275 202.674 500.242 219.351 500.242 233.274C500.242 248.727 492.898 256.53 480.505 256.53C472.702 256.53 456.79 256.836 456.79 231.591C456.79 213.537 464.287 194.871 465.511 175.593C466.276 163.353 463.981 158.763 459.085 157.386C461.074 151.113 469.03 146.523 477.751 146.523C502.384 146.523 504.373 184.161 511.258 184.161C513.553 184.161 513.859 175.899 513.706 171.921C513.4 161.364 509.422 161.364 509.422 157.233C509.422 150.96 518.296 146.829 529.618 146.829C535.585 146.829 541.858 149.124 541.858 156.009C541.858 163.812 540.022 170.697 540.022 177.582ZM550.771 210.63C550.771 176.97 566.836 146.37 589.174 146.217C610.594 146.217 625.588 174.522 625.588 208.947C625.588 240.618 612.889 256.53 587.797 256.53C563.623 256.53 550.771 240.618 550.771 210.63ZM579.994 190.434C579.994 197.319 583.054 202.215 588.715 202.215C594.376 202.215 597.589 197.166 597.589 190.281C597.589 182.631 593.458 176.358 588.715 176.358C583.972 176.358 579.994 182.631 579.994 190.434Z" fill="#FF3B99"/>
<path d="M70.1659 48.888L64.1695 49.0948L64.1701 49.1113L64.1707 49.1278L70.1659 48.888ZM60.5269 28.845L55.413 25.7069L51.5686 31.9718L58.4765 34.4838L60.5269 28.845ZM94.4929 50.724L100.486 50.4273L100.484 50.402L100.483 50.3768L94.4929 50.724ZM94.1539 95.4C94.1539 103.661 91.291 110.088 86.8079 114.452C82.3043 118.836 75.7598 121.53 67.7179 121.53V133.53C78.4951 133.53 88.1685 129.874 95.1782 123.051C102.208 116.208 106.154 106.57 106.154 95.4H94.1539ZM67.7179 121.53C58.8082 121.53 52.6129 118.721 48.5532 114.089C44.3883 109.338 41.7409 101.835 41.7409 91.116H29.7409C29.7409 103.653 32.8311 114.357 39.5292 121.999C46.3324 129.76 56.1257 133.53 67.7179 133.53V121.53ZM41.7409 91.116C41.7409 86.2335 42.8103 82.1648 44.2728 79.5377C45.7917 76.8094 47.0614 76.614 47.3689 76.614V64.614C40.9445 64.614 36.4002 69.0086 33.788 73.7008C31.1196 78.4941 29.7409 84.6765 29.7409 91.116H41.7409ZM47.3689 76.614C48.2087 76.614 48.8886 76.894 50.4296 78.0665C51.0352 78.5273 52.2804 79.5386 53.4513 80.2534C54.767 81.0566 56.701 81.969 59.1499 81.969V69.969C59.7629 69.969 60.033 70.212 59.7039 70.0111C59.2301 69.7219 58.8497 69.3944 57.6958 68.5165C55.7177 67.0115 52.3431 64.614 47.3689 64.614V76.614ZM59.1499 81.969C66.4671 81.969 70.8363 75.8293 73.0295 70.4207C75.4072 64.5574 76.4906 56.8848 76.1611 48.6482L64.1707 49.1278C64.4533 56.1912 63.4712 62.0591 61.9091 65.9113C61.1269 67.84 60.3154 68.978 59.7125 69.5552C59.429 69.8267 59.243 69.9256 59.1763 69.9554C59.1434 69.9701 59.1312 69.9719 59.1366 69.9707C59.1384 69.9703 59.1415 69.9698 59.1453 69.9694C59.149 69.969 59.1508 69.969 59.1499 69.969V81.969ZM76.1624 48.6812C75.9154 41.5183 74.6704 35.9196 72.3202 31.6632C69.856 27.2003 66.3818 24.5896 62.5774 23.2062L58.4765 34.4838C59.7211 34.9363 60.8369 35.6917 61.8152 37.4635C62.9075 39.4419 63.9575 42.9467 64.1695 49.0948L76.1624 48.6812ZM65.6409 31.9831C68.4011 27.485 75.3271 23.676 83.7829 23.676V11.676C72.3488 11.676 60.9148 16.741 55.413 25.7069L65.6409 31.9831ZM83.7829 23.676C87.31 23.676 88.1514 24.3655 88.1927 24.4013C88.2086 24.4151 88.2237 24.4303 88.2464 24.4637C88.2717 24.5008 88.324 24.587 88.3887 24.7523C88.5287 25.1101 88.6893 25.7403 88.784 26.8108C88.9862 29.0965 88.8088 32.0276 88.5914 36.3514C88.3838 40.4784 88.1773 45.4522 88.503 51.0712L100.483 50.3768C100.197 45.4388 100.373 41.0031 100.576 36.9541C100.77 33.102 101.032 29.0907 100.737 25.7537C100.436 22.3471 99.4668 18.2979 96.0598 15.3399C92.7637 12.4783 88.3649 11.676 83.7829 11.676V23.676ZM88.5003 51.0207C88.9037 59.1704 90.3896 67.801 91.6947 75.4993C93.0426 83.4499 94.1539 90.2002 94.1539 95.4H106.154C106.154 88.9718 104.817 81.1106 103.526 73.4935C102.192 65.624 100.847 57.7306 100.486 50.4273L88.5003 51.0207ZM111.385 28.998L106.444 25.5942L101.771 32.3779L109.661 34.745L111.385 28.998ZM174.727 45.981L180.726 46.0891L180.726 46.0818L174.727 45.981ZM151.93 83.925L157.872 84.7605L157.877 84.7227L157.882 84.6848L151.93 83.925ZM141.679 83.925L135.749 84.8373L135.751 84.8515L135.753 84.8656L141.679 83.925ZM146.422 41.697L146.272 35.6989L146.204 35.7006L146.137 35.7038L146.422 41.697ZM109.276 104.58C109.276 94.3293 112.65 84.7757 116.48 74.3693C120.178 64.3234 124.423 53.2172 124.423 41.391H112.423C112.423 50.6788 109.095 59.6921 105.219 70.2247C101.475 80.3968 97.2761 91.8807 97.2761 104.58H109.276ZM124.423 41.391C124.423 36.1785 123.205 31.992 120.921 28.8199C118.625 25.6306 115.643 24.0111 113.109 23.251L109.661 34.745C110.188 34.9029 110.725 35.1959 111.182 35.8316C111.652 36.4845 112.423 38.0355 112.423 41.391H124.423ZM116.326 32.4018C117.687 30.4262 120.787 28.1316 125.834 26.3291C130.738 24.5779 136.855 23.523 143.362 23.523V11.523C135.64 11.523 128.141 12.7631 121.798 15.0282C115.6 17.2418 109.826 20.6848 106.444 25.5942L116.326 32.4018ZM143.362 23.523C153.128 23.523 159.341 25.8821 163.056 29.3251C166.675 32.679 168.861 37.9361 168.728 45.8802L180.726 46.0818C180.899 35.8189 178.036 26.847 171.213 20.5236C164.486 14.2894 154.863 11.523 143.362 11.523V23.523ZM168.728 45.8729C168.547 55.9325 173.275 66.2245 177.113 75.3653C181.184 85.0642 184.792 94.4501 184.792 104.58H196.792C196.792 91.7599 192.215 80.3378 188.177 70.7204C183.905 60.545 180.601 53.0125 180.726 46.0891L168.728 45.8729ZM184.792 104.58C184.792 112.731 182.134 116.529 179.531 118.507C176.623 120.717 172.626 121.53 168.76 121.53V133.53C173.922 133.53 180.941 132.507 186.791 128.062C192.948 123.384 196.792 115.707 196.792 104.58H184.792ZM168.76 121.53C164.314 121.53 160.771 121.074 158.348 119.479C156.473 118.243 154.105 115.523 154.105 107.793H142.105C142.105 118.27 145.551 125.418 151.747 129.5C157.395 133.221 164.18 133.53 168.76 133.53V121.53ZM154.105 107.793C154.105 103.803 154.626 100.75 155.363 97.367C156.097 94.0021 157.142 89.952 157.872 84.7605L145.989 83.0895C145.342 87.69 144.473 90.9839 143.639 94.81C142.809 98.6179 142.105 102.603 142.105 107.793H154.105ZM157.882 84.6848C158.347 81.0369 157.128 77.6336 154.368 75.3934C151.909 73.398 148.903 72.8668 146.476 72.9997C144.027 73.1339 141.304 73.982 139.136 75.8253C136.779 77.8298 135.161 81.018 135.749 84.8373L147.609 83.0127C147.654 83.3015 147.633 83.7314 147.449 84.183C147.276 84.6071 147.039 84.8575 146.909 84.9675C146.789 85.0698 146.743 85.0705 146.822 85.0418C146.896 85.0147 147.009 84.9886 147.133 84.9818C147.259 84.9748 147.314 84.9922 147.286 84.9847C147.259 84.9773 147.064 84.9209 146.806 84.7109C146.521 84.4799 146.252 84.1348 146.097 83.7201C145.947 83.3192 145.989 83.0856 145.978 83.1652L157.882 84.6848ZM135.753 84.8656C136.569 90.0056 137.75 94.1029 138.565 97.45C139.389 100.834 139.963 103.873 139.963 107.793H151.963C151.963 102.533 151.16 98.4572 150.225 94.6122C149.28 90.7301 148.319 87.4834 147.605 82.9844L135.753 84.8656ZM139.963 107.793C139.963 115.523 137.595 118.243 135.72 119.479C133.298 121.074 129.755 121.53 125.308 121.53V133.53C129.889 133.53 136.673 133.221 142.321 129.5C148.517 125.418 151.963 118.27 151.963 107.793H139.963ZM125.308 121.53C121.443 121.53 117.446 120.717 114.537 118.507C111.934 116.529 109.276 112.731 109.276 104.58H97.2761C97.2761 115.707 101.121 123.384 107.277 128.062C113.128 132.507 120.147 133.53 125.308 133.53V121.53ZM133.231 54.243C133.231 56.3417 133.585 58.467 134.603 60.3891C135.676 62.4138 137.267 63.7985 139.016 64.6492C141.955 66.0788 145.428 65.904 146.575 65.904V53.904C146.109 53.904 145.758 53.9061 145.393 53.9C145.043 53.8942 144.771 53.8816 144.548 53.8614C144.056 53.817 144.053 53.7548 144.266 53.8583C144.396 53.9219 144.584 54.0359 144.778 54.2189C144.977 54.4056 145.118 54.6039 145.207 54.7715C145.374 55.0871 145.231 55.0513 145.231 54.243H133.231ZM146.575 65.904C147.862 65.904 151.217 66.005 154.174 64.6539C155.858 63.885 157.543 62.6113 158.747 60.6163C159.926 58.6645 160.378 56.4616 160.378 54.243H148.378C148.378 54.8549 148.257 54.7749 148.474 54.4152C148.578 54.243 148.717 54.081 148.872 53.9489C149.021 53.8223 149.142 53.7601 149.189 53.7388C149.242 53.7145 149.087 53.7918 148.551 53.8455C148.015 53.8992 147.422 53.904 146.575 53.904V65.904ZM160.378 54.243C160.378 51.7112 159.797 47.6646 158.159 44.0557C156.585 40.5886 152.989 35.5309 146.272 35.6989L146.572 47.6951C146.577 47.695 146.505 47.6937 146.407 47.6569C146.319 47.6236 146.299 47.5953 146.35 47.6386C146.495 47.7621 146.841 48.1545 147.232 49.0155C148.042 50.7999 148.378 53.1028 148.378 54.243H160.378ZM146.137 35.7038C139.148 36.0366 136.002 41.6808 134.765 45.1536C133.452 48.839 133.231 52.6562 133.231 54.243H145.231C145.231 53.3818 145.393 51.079 146.069 49.1799C146.4 48.2494 146.725 47.7932 146.881 47.6331C146.937 47.5765 146.925 47.6042 146.841 47.644C146.747 47.6886 146.683 47.6914 146.707 47.6902L146.137 35.7038ZM244.343 52.56L238.548 51.0052L236.557 58.4266L244.24 58.5591L244.343 52.56ZM260.681 92.187C260.681 99.7669 259.068 105.13 256.847 108.97C254.63 112.805 251.617 115.449 248.309 117.307C241.496 121.134 233.61 121.53 229.961 121.53V133.53C234.116 133.53 244.59 133.161 254.186 127.769C259.083 125.019 263.787 120.94 267.235 114.978C270.68 109.021 272.681 101.514 272.681 92.187H260.681ZM229.961 121.53C219.408 121.53 211.677 118.478 206.612 113.579C201.572 108.703 198.476 101.327 198.476 91.269H186.476C186.476 103.855 190.418 114.609 198.269 122.203C206.094 129.773 217.106 133.53 229.961 133.53V121.53ZM198.476 91.269C198.476 85.8179 199.41 82.3778 200.512 80.511C201.41 78.9891 202.292 78.603 203.492 78.603V66.603C197.655 66.603 193.028 69.5829 190.178 74.4105C187.532 78.8932 186.476 84.7861 186.476 91.269H198.476ZM203.492 78.603C204.646 78.603 205.727 78.9932 207.97 79.9943C209.902 80.8572 213.171 82.428 217.109 82.428V70.428C216.151 70.428 215.213 70.0863 212.861 69.0367C210.82 68.1253 207.54 66.603 203.492 66.603V78.603ZM217.109 82.428C219.722 82.428 222.509 81.7815 224.802 80.0614C227.242 78.2316 228.77 75.4136 228.77 72.144H216.77C216.77 71.8902 216.832 71.5408 217.017 71.1787C217.199 70.823 217.431 70.5897 217.602 70.4614C217.907 70.233 217.862 70.428 217.109 70.428V82.428ZM228.77 72.144C228.77 66.4762 224.339 63.518 221.866 62.1252C220.445 61.3252 218.862 60.6031 217.448 59.964C215.957 59.2899 214.564 58.6683 213.177 57.9618C210.396 56.5452 208.19 55.0497 206.66 53.1485C205.245 51.3905 204.137 48.9546 204.137 45.063H192.137C192.137 51.5754 194.109 56.6939 197.312 60.6733C200.401 64.5097 204.354 66.9348 207.731 68.6547C209.423 69.5164 211.109 70.2671 212.504 70.8982C213.978 71.5644 215.088 72.0806 215.977 72.5812C218.123 73.7893 216.77 73.6808 216.77 72.144H228.77ZM204.137 45.063C204.137 39.0411 206.822 33.9007 211.771 30.1068C216.82 26.2361 224.403 23.676 233.939 23.676V11.676C222.362 11.676 212.044 14.7769 204.47 20.5835C196.796 26.4668 192.137 35.0199 192.137 45.063H204.137ZM233.939 23.676C241.479 23.676 246.806 25.2629 250.062 27.4876C253.078 29.5485 254.561 32.278 254.561 35.883H266.561C266.561 28.166 262.996 21.792 256.832 17.5799C250.908 13.5316 242.924 11.676 233.939 11.676V23.676ZM254.561 35.883C254.561 42.5726 249.869 46.6544 244.447 46.5609L244.24 58.5591C256.565 58.7716 266.561 49.0834 266.561 35.883H254.561ZM250.138 54.1148C251.519 48.969 250.096 43.8974 247.368 40.2121C244.663 36.5573 240.243 33.708 235.01 33.708V45.708C235.744 45.708 236.832 46.1482 237.723 47.3512C238.591 48.5236 238.851 49.878 238.548 51.0052L250.138 54.1148ZM235.01 33.708C231.938 33.708 228.749 34.7047 226.208 36.6101C223.599 38.567 221.36 41.7762 221.36 45.981H233.36C233.36 46.1023 233.32 46.2373 233.273 46.3218C233.239 46.3822 233.253 46.3269 233.408 46.2101C233.565 46.0926 233.807 45.9584 234.122 45.856C234.436 45.7539 234.747 45.708 235.01 45.708V33.708ZM221.36 45.981C221.36 49.3852 222.873 52.0539 224.824 53.9896C226.613 55.7636 228.867 57.0325 230.871 58.0113C232.906 59.0049 235.283 59.9743 237.467 60.8969C239.742 61.8581 242.011 62.8492 244.239 64.0151C248.683 66.3408 252.69 69.226 255.623 73.4136C258.51 77.5333 260.681 83.3769 260.681 92.187H272.681C272.681 81.26 269.938 72.9321 265.451 66.5282C261.013 60.1923 255.189 56.2021 249.803 53.3831C247.116 51.9767 244.469 50.8282 242.137 49.8428C239.713 48.8189 237.788 48.0347 236.137 47.2283C234.455 46.4068 233.637 45.829 233.275 45.47C233.076 45.2726 233.36 45.522 233.36 45.981H221.36ZM306.443 60.822L300.477 61.4567L300.478 61.4684L300.48 61.4801L306.443 60.822ZM280.433 48.888L274.448 48.4648L274.447 48.4817L274.446 48.4986L280.433 48.888ZM273.242 29.61L267.271 29.0274L266.493 37.0035L274.365 35.504L273.242 29.61ZM358.769 45.522L352.782 45.9108L352.783 45.9228L352.784 45.9348L358.769 45.522ZM333.065 60.822L339.029 61.4801L339.03 61.4684L339.032 61.4567L333.065 60.822ZM319.754 74.406C319.355 74.406 319.571 74.3293 319.879 74.5918C320.085 74.7668 319.935 74.7672 319.713 74.0677C319.197 72.4476 319.086 69.8218 319.155 66.0586C319.215 62.8559 319.433 58.4638 318.905 55.082C318.636 53.3605 318.073 51.0665 316.582 49.1033C314.828 46.7926 312.208 45.489 309.197 45.489V57.489C308.52 57.489 307.578 57.089 307.025 56.3598C306.735 55.978 306.894 55.9431 307.049 56.9326C307.367 58.9727 307.232 61.8098 307.157 65.8364C307.093 69.3024 307.068 73.9059 308.278 77.7078C308.918 79.7192 310.041 81.9788 312.108 83.7351C314.277 85.5791 316.941 86.406 319.754 86.406V74.406ZM309.197 45.489C307.742 45.489 305.847 45.7915 304.082 47.0483C302.301 48.3162 301.346 50.0602 300.844 51.6302C299.96 54.392 300.096 57.8732 300.477 61.4567L312.41 60.1873C312.233 58.5223 312.171 57.3035 312.184 56.4247C312.199 55.5043 312.295 55.2176 312.273 55.2875C312.229 55.4232 311.943 56.1822 311.042 56.8238C310.157 57.4542 309.352 57.489 309.197 57.489V45.489ZM300.48 61.4801C301.752 73.0097 303.713 80.572 305.307 86.6359C306.897 92.6848 307.94 96.6698 307.94 101.826H319.94C319.94 94.8952 318.459 89.4706 316.913 83.5856C315.37 77.7155 313.583 70.8193 312.407 60.1639L300.48 61.4801ZM307.94 101.826C307.94 108.519 306.228 113.591 303.814 116.829C301.49 119.944 298.436 121.53 294.815 121.53V133.53C302.517 133.53 309.025 129.914 313.433 124.002C317.751 118.213 319.94 110.433 319.94 101.826H307.94ZM294.815 121.53C290.646 121.53 286.038 121.479 282.358 119.34C279.381 117.609 275.723 113.685 275.723 102.591H263.723C263.723 116.742 268.711 125.287 276.328 129.715C283.244 133.734 291.182 133.53 294.815 133.53V121.53ZM275.723 102.591C275.723 94.5201 277.843 86.564 280.388 77.678C282.862 69.0361 285.758 59.4591 286.421 49.2774L274.446 48.4986C273.884 57.1359 271.426 65.3834 268.851 74.3747C266.347 83.122 263.723 92.6079 263.723 102.591H275.723ZM286.418 49.3112C286.995 41.1599 286.005 34.9615 283.79 30.6153C281.659 26.4329 277.466 22.6977 272.12 23.716L274.365 35.504C272.232 35.9103 272.17 34.2406 273.098 36.0634C273.944 37.7225 274.943 41.4691 274.448 48.4648L286.418 49.3112ZM279.214 30.1926C279.277 29.5421 279.973 27.9145 282.537 26.2194C284.953 24.6223 288.28 23.523 291.755 23.523V11.523C285.897 11.523 280.274 13.3307 275.92 16.2088C271.714 18.989 267.819 23.4049 267.271 29.0274L279.214 30.1926ZM291.755 23.523C300.445 23.523 304.951 26.2148 308.065 28.7526C308.914 29.4446 309.693 30.1557 310.502 30.909C311.258 31.6129 312.163 32.4716 313.036 33.2091C314.714 34.6259 317.474 36.681 321.284 36.681V24.681C321.958 24.681 322.022 25.0913 320.778 24.041C320.191 23.5449 319.579 22.9645 318.679 22.1264C317.832 21.3378 316.816 20.4042 315.647 19.4514C310.689 15.4102 303.568 11.523 291.755 11.523V23.523ZM321.284 36.681C325.344 36.681 327.985 34.3848 329.53 32.7611C330.28 31.9735 331.032 31.0568 331.601 30.3808C332.229 29.6349 332.804 28.9701 333.438 28.3322C335.592 26.1656 339.114 23.523 347.753 23.523V11.523C335.891 11.523 329.315 15.4594 324.928 19.8717C323.927 20.8787 323.089 21.8586 322.419 22.6546C321.691 23.5206 321.261 24.0431 320.837 24.489C320.034 25.3325 320.361 24.681 321.284 24.681V36.681ZM347.753 23.523C351.564 23.523 353.064 24.1452 353.567 24.5156C353.628 24.5605 354.299 24.8945 354.299 27.468H366.299C366.299 22.5445 364.829 17.906 360.682 14.8527C356.978 12.1248 352.205 11.523 347.753 11.523V23.523ZM354.299 27.468C354.299 29.3474 353.993 29.7904 353.366 32.8994C352.771 35.8518 352.37 39.5613 352.782 45.9108L364.757 45.1332C364.404 39.7017 364.768 37.0616 365.129 35.2711C365.459 33.6371 366.299 30.9436 366.299 27.468H354.299ZM352.784 45.9348C353.597 57.726 356.528 68.049 359.069 77.2096C361.666 86.568 363.785 94.5115 363.785 102.591H375.785C375.785 92.6165 373.162 83.118 370.633 74.0016C368.049 64.6875 365.472 55.5029 364.755 45.1092L352.784 45.9348ZM363.785 102.591C363.785 113.685 360.128 117.609 357.15 119.34C353.471 121.479 348.863 121.53 344.693 121.53V133.53C348.327 133.53 356.265 133.734 363.181 129.715C370.798 125.287 375.785 116.742 375.785 102.591H363.785ZM344.693 121.53C341.073 121.53 338.019 119.944 335.695 116.829C333.281 113.591 331.568 108.519 331.568 101.826H319.568C319.568 110.433 321.758 118.213 326.075 124.002C330.484 129.914 336.992 133.53 344.693 133.53V121.53ZM331.568 101.826C331.568 96.6698 332.612 92.6848 334.202 86.6359C335.796 80.572 337.757 73.0097 339.029 61.4801L327.102 60.1639C325.926 70.8193 324.139 77.7155 322.596 83.5856C321.049 89.4706 319.568 94.8952 319.568 101.826H331.568ZM339.032 61.4567C339.426 57.751 339.473 54.2355 338.462 51.4266C337.899 49.8626 336.902 48.2175 335.195 47.0219C333.486 45.8247 331.652 45.489 330.158 45.489V57.489C329.889 57.489 329.125 57.421 328.31 56.8502C327.498 56.281 327.218 55.6207 327.171 55.4912C327.145 55.4178 327.25 55.6884 327.282 56.5547C327.314 57.3883 327.271 58.5664 327.099 60.1873L339.032 61.4567ZM330.158 45.489C327.125 45.489 324.508 46.8296 322.781 49.1602C321.323 51.1286 320.785 53.4193 320.532 55.128C320.034 58.4927 320.267 62.8769 320.335 66.0745C320.414 69.8315 320.305 72.4564 319.792 74.0722C319.571 74.7701 319.421 74.7683 319.628 74.5924C319.938 74.3292 320.154 74.406 319.754 74.406V86.406C322.568 86.406 325.232 85.5792 327.401 83.7345C329.468 81.9772 330.591 79.7163 331.23 77.7032C332.438 73.8971 332.406 69.2928 332.332 65.8205C332.247 61.7888 332.098 58.9438 332.402 56.8866C332.551 55.8843 332.711 55.9158 332.424 56.3029C331.869 57.0521 330.897 57.489 330.158 57.489V45.489ZM376.644 27.621L371.984 23.8422L367.446 29.4384L373.771 32.8884L376.644 27.621ZM378.819 103.05C378.819 95.9528 381.141 88.7047 383.918 79.4999C386.603 70.6018 389.529 60.3327 389.529 48.582H377.529C377.529 58.4043 375.1 67.1837 372.43 76.0336C369.852 84.5768 366.819 93.7762 366.819 103.05H378.819ZM389.529 48.582C389.529 40.0625 388.649 34.272 386.838 30.1699C384.79 25.5337 381.796 23.5966 379.517 22.3536L373.771 32.8884C374.858 33.4814 375.306 33.7628 375.86 35.0171C376.65 36.8055 377.529 40.5775 377.529 48.582H389.529ZM381.305 31.3998C384.839 27.041 389.903 23.523 399.288 23.523V11.523C386.029 11.523 377.629 16.879 371.984 23.8422L381.305 31.3998ZM399.288 23.523C401.657 23.523 403.471 24.0028 404.485 24.6309C404.93 24.9071 405.141 25.1592 405.255 25.3578C405.361 25.5421 405.528 25.9256 405.528 26.703H417.528C417.528 21.0533 414.772 16.8892 410.807 14.4313C407.192 12.1907 402.887 11.523 399.288 11.523V23.523ZM405.528 26.703C405.528 30.1696 405.121 33.4854 404.659 37.0659C404.213 40.5276 403.692 44.3738 403.692 48.276H415.692C415.692 45.2932 416.089 42.2544 416.561 38.6016C417.017 35.0676 417.528 31.0394 417.528 26.703H405.528ZM403.692 48.276C403.692 58.8534 407.404 69.9041 410.67 79.4589C414.137 89.5994 417.003 97.8588 417.003 104.58H429.003C429.003 95.3892 425.214 84.9061 422.025 75.5773C418.636 65.6628 415.692 56.5175 415.692 48.276H403.692ZM417.003 104.58C417.003 109.552 415.97 112.791 414.709 114.931C413.462 117.048 411.778 118.452 409.86 119.428C405.75 121.518 400.884 121.53 397.911 121.53V133.53C400.599 133.53 408.279 133.695 415.3 130.124C418.947 128.269 422.475 125.389 425.048 121.023C427.607 116.679 429.003 111.236 429.003 104.58H417.003ZM397.911 121.53C393.74 121.53 389.108 121.481 385.412 119.373C382.437 117.676 378.819 113.864 378.819 103.05H366.819C366.819 117.022 371.845 125.45 379.466 129.797C386.365 133.732 394.279 133.53 397.911 133.53V121.53ZM474.817 100.449L480.754 99.576L480.753 99.5732L474.817 100.449ZM434.731 46.593L440.719 46.9732L440.72 46.9673L434.731 46.593ZM428.305 28.386L422.586 26.5725L420.712 32.4831L426.681 34.1619L428.305 28.386ZM482.926 42.921L476.929 43.0948L476.93 43.1232L476.931 43.1516L482.926 42.921ZM503.242 48.582C503.242 62.5402 505.594 73.1938 507.872 81.9705C510.224 91.0342 512.116 96.9992 512.116 103.05H524.116C524.116 95.0248 521.572 86.9903 519.487 78.9562C517.328 70.6352 515.242 61.0928 515.242 48.582H503.242ZM512.116 103.05C512.116 109.529 510.556 114.108 508.184 116.965C505.955 119.649 502.421 121.53 496.696 121.53V133.53C505.354 133.53 512.53 130.515 517.416 124.631C522.158 118.92 524.116 111.259 524.116 103.05H512.116ZM496.696 121.53C490.795 121.53 487.841 119.517 485.797 116.486C483.369 112.888 481.893 107.326 480.754 99.576L468.881 101.322C470.037 109.178 471.774 117.156 475.849 123.197C480.307 129.806 487.145 133.53 496.696 133.53V121.53ZM480.753 99.5732C479.407 90.446 479.47 84.5241 479.056 79.5635C478.881 77.4632 478.572 74.6453 477.294 72.332C476.552 70.9878 475.428 69.6904 473.792 68.7953C472.205 67.927 470.568 67.674 469.156 67.674V79.674C469.155 79.674 469.126 79.674 469.072 79.6687C469.019 79.6634 468.939 79.6526 468.837 79.6302C468.627 79.5842 468.344 79.4933 468.032 79.3224C467.34 78.9438 466.951 78.4257 466.79 78.1334C466.674 77.9238 466.909 78.2998 467.098 80.56C467.411 84.3204 467.474 91.786 468.882 101.325L480.753 99.5732ZM469.156 67.674C466.731 67.674 464.413 68.6863 462.821 70.7172C461.483 72.4251 461.046 74.3684 460.868 75.707C460.513 78.3832 460.855 81.6505 461.239 84.5421C462.095 90.992 463.462 97.8409 463.462 104.274H475.462C475.462 96.7841 473.847 88.333 473.134 82.9637C472.734 79.9456 472.646 78.1734 472.764 77.2877C472.823 76.8452 472.848 77.3769 472.267 78.1184C471.433 79.1829 470.167 79.674 469.156 79.674V67.674ZM463.462 104.274C463.462 111.141 461.824 115.339 459.719 117.754C457.726 120.039 454.614 121.53 449.725 121.53V133.53C457.229 133.53 463.986 131.119 468.764 125.64C473.429 120.29 475.462 112.86 475.462 104.274H463.462ZM449.725 121.53C445.525 121.53 441.376 121.462 438.109 119.432C435.478 117.796 432.01 113.899 432.01 102.591H420.01C420.01 116.528 424.499 125.101 431.774 129.623C438.414 133.751 446.123 133.53 449.725 133.53V121.53ZM432.01 102.591C432.01 94.2966 433.736 85.7129 435.775 76.3246C437.77 67.1401 440.073 57.1613 440.719 46.9732L428.744 46.2128C428.166 55.3027 426.108 64.2959 424.049 73.7774C422.033 83.055 420.01 92.8314 420.01 102.591H432.01ZM440.72 46.9673C441.116 40.6212 440.808 35.3567 439.245 31.2721C437.48 26.6576 434.211 23.8141 429.93 22.6101L426.681 34.1619C427.296 34.3349 427.622 34.4749 428.037 35.5597C428.655 37.1743 429.112 40.3248 428.743 46.2187L440.72 46.9673ZM434.025 30.1995C434.45 28.8583 435.706 27.1961 438.126 25.7913C440.503 24.4118 443.626 23.523 446.971 23.523V11.523C441.596 11.523 436.381 12.9292 432.102 15.413C427.867 17.8714 424.15 21.6407 422.586 26.5725L434.025 30.1995ZM446.971 23.523C455.453 23.523 460.635 29.7437 464.954 38.901C465.986 41.0899 466.904 43.3106 467.778 45.4882C468.626 47.5989 469.486 49.8073 470.303 51.6795C471.098 53.5007 472.058 55.5029 473.249 57.1123C474.309 58.5448 476.653 61.161 480.478 61.161V49.161C482.583 49.161 483.359 50.601 482.896 49.9752C482.564 49.5262 482.047 48.588 481.302 46.8806C480.579 45.2243 479.838 43.316 478.914 41.0159C478.017 38.7829 476.994 36.2989 475.807 33.783C471.251 24.1212 463.123 11.523 446.971 11.523V23.523ZM480.478 61.161C482.775 61.161 484.495 60.0643 485.546 58.9855C486.51 57.9964 487.065 56.8932 487.388 56.1178C488.041 54.5527 488.373 52.7794 488.567 51.3315C488.972 48.3168 489.007 44.8897 488.922 42.6904L476.931 43.1516C476.999 44.9303 476.957 47.6232 476.674 49.7339C476.606 50.2416 476.53 50.6627 476.454 50.9934C476.417 51.1563 476.383 51.2816 476.355 51.3729C476.327 51.466 476.311 51.5041 476.313 51.498C476.314 51.4951 476.349 51.4105 476.432 51.2731C476.512 51.1399 476.676 50.8939 476.952 50.6109C477.547 49.9995 478.756 49.161 480.478 49.161V61.161ZM488.924 42.7472C488.745 36.5675 487.441 32.9674 485.899 30.2257C484.168 27.1478 484.642 28.2339 484.642 28.233H472.642C472.642 32.363 475.106 35.5147 475.44 36.1088C475.964 37.0391 476.802 38.7175 476.929 43.0948L488.924 42.7472ZM484.642 28.233C484.642 28.1824 484.631 28.036 484.903 27.694C485.226 27.2882 485.91 26.6794 487.178 26.0452C489.745 24.7616 493.807 23.829 498.838 23.829V11.829C492.548 11.829 486.512 12.9619 481.811 15.3121C477.229 17.6031 472.642 21.8229 472.642 28.233H484.642ZM498.838 23.829C501.207 23.829 503.022 24.3088 504.035 24.9369C504.481 25.2131 504.691 25.4652 504.805 25.6638C504.911 25.8481 505.078 26.2316 505.078 27.009H517.078C517.078 21.3593 514.323 17.1952 510.357 14.7373C506.742 12.4967 502.437 11.829 498.838 11.829V23.829ZM505.078 27.009C505.078 30.4756 504.672 33.7914 504.21 37.3719C503.763 40.8336 503.242 44.6798 503.242 48.582H515.242C515.242 45.5992 515.64 42.5604 516.111 38.9076C516.567 35.3736 517.078 31.3454 517.078 27.009H505.078ZM529.296 64.953L523.311 64.5293L523.31 64.5416L523.31 64.5539L529.296 64.953ZM582.387 16.146L585.567 11.058L578.465 6.6191L576.547 14.7718L582.387 16.146ZM558.213 49.347L552.232 48.8685L552.232 48.8748L558.213 49.347ZM555.153 72.45L549.351 70.923L549.327 71.0116L549.307 71.1008L555.153 72.45ZM599.064 93.87L593.074 94.2123L593.074 94.2165L599.064 93.87ZM527.187 103.356C527.187 94.6436 528.732 89.7816 530.476 85.0084C532.327 79.9403 534.682 74.3728 535.283 65.3521L523.31 64.5539C522.84 71.5982 521.14 75.5932 519.204 80.8908C517.161 86.4834 515.187 92.7904 515.187 103.356H527.187ZM535.281 65.3767C535.968 55.6809 534.178 48.6689 532.333 42.9077C530.417 36.926 529.023 33.6059 529.023 29.457H517.023C517.023 36.0181 519.378 41.8015 520.905 46.568C522.502 51.5551 523.849 56.9361 523.311 64.5293L535.281 65.3767ZM529.023 29.457C529.023 28.5877 529.48 27.3074 531.4 25.9961C533.335 24.674 536.357 23.676 540.006 23.676V11.676C534.323 11.676 528.853 13.2025 524.63 16.0879C520.391 18.9841 517.023 23.5943 517.023 29.457H529.023ZM540.006 23.676C543.25 23.676 546.217 24.4172 549.809 25.3828C553.194 26.2927 557.428 27.501 562.038 27.501V15.501C559.304 15.501 556.654 14.7968 552.924 13.7942C549.402 12.8473 545.025 11.676 540.006 11.676V23.676ZM562.038 27.501C566.222 27.501 571.544 27.4789 576.019 26.6812C578.256 26.2825 580.732 25.6194 582.89 24.3773C585.139 23.0824 587.431 20.9071 588.228 17.5202L576.547 14.7718C576.732 13.9859 577.245 13.7804 576.903 13.9773C576.469 14.227 575.54 14.5775 573.914 14.8673C570.663 15.4466 566.423 15.501 562.038 15.501V27.501ZM579.207 21.234C580.837 22.2528 582.048 23.9713 582.048 27.468H594.048C594.048 20.5607 591.281 14.6292 585.567 11.058L579.207 21.234ZM582.048 27.468C582.048 30.1164 581.326 32.5296 580.123 34.1229C579.092 35.4888 577.471 36.615 574.431 36.615V48.615C581.184 48.615 586.371 45.7632 589.7 41.3533C592.858 37.1709 594.048 32.0106 594.048 27.468H582.048ZM574.431 36.615C572.891 36.615 568.029 36.3461 563.77 37.2403C561.571 37.702 558.916 38.5752 556.656 40.3986C554.202 42.3793 552.522 45.2475 552.232 48.8685L564.194 49.8255C564.209 49.6371 564.241 49.6286 564.2 49.7042C564.162 49.7753 564.132 49.7861 564.193 49.737C564.386 49.5809 564.973 49.2493 566.235 48.9842C568.899 48.4249 571.841 48.615 574.431 48.615V36.615ZM552.232 48.8748C552.03 51.4304 552.551 54.4586 554.974 56.7284C557.137 58.7543 559.796 59.1644 561.38 59.2728C563.059 59.3876 564.816 59.226 566.073 59.107C567.532 58.9688 568.515 58.866 569.382 58.866V46.866C567.801 46.866 566.107 47.05 564.941 47.1605C563.573 47.2901 562.758 47.3389 562.199 47.3007C561.546 47.2561 562.302 47.1498 563.178 47.9709C564.315 49.0358 564.167 50.1706 564.195 49.8192L552.232 48.8748ZM569.382 58.866C569.488 58.866 569.427 58.8811 569.316 58.8183C569.228 58.7681 569.258 58.7524 569.359 58.9024C569.61 59.2738 569.934 60.146 569.923 61.3804C569.912 62.6108 569.573 63.5253 569.287 63.9454C569.166 64.1227 569.12 64.1193 569.205 64.0704C569.316 64.0061 569.411 64.002 569.382 64.002V76.002C573.837 76.002 577.189 73.6587 579.203 70.7036C581.106 67.9107 581.895 64.5412 581.923 61.4876C581.95 58.4379 581.222 55.0262 579.303 52.1846C577.251 49.1474 573.846 46.866 569.382 46.866V58.866ZM569.382 64.002C567.035 64.002 563.16 63.8794 560.014 64.1595C558.436 64.3001 556.526 64.5746 554.793 65.2407C553.208 65.8501 550.282 67.3839 549.351 70.923L560.956 73.977C560.407 76.0626 558.781 76.5636 559.099 76.4415C559.269 76.3761 559.865 76.2203 561.079 76.1122C563.517 75.8951 566.374 76.002 569.382 76.002V64.002ZM549.307 71.1008C548.383 75.1024 550.62 78.6238 552.958 80.6043C555.592 82.8362 559.257 84.111 563.568 84.111V72.111C561.607 72.111 560.834 71.5498 560.715 71.4485C560.634 71.3797 560.744 71.4427 560.875 71.7368C560.985 71.9829 561.247 72.7257 561 73.7991L549.307 71.1008ZM563.568 84.111C567.621 84.111 571.492 82.9459 574.397 82.126C577.585 81.2264 580.041 80.592 582.54 80.592V68.592C578.154 68.592 574.185 69.7171 571.138 70.577C567.808 71.5166 565.636 72.111 563.568 72.111V84.111ZM582.54 80.592C586.171 80.592 588.376 81.918 589.903 83.8894C591.611 86.0941 592.81 89.5948 593.074 94.2123L605.054 93.5277C604.706 87.4352 603.075 81.2969 599.389 76.5401C595.524 71.55 589.773 68.592 582.54 68.592V80.592ZM593.074 94.2165C593.563 102.658 592.019 109.467 589.499 113.925C587.032 118.29 583.961 120 580.857 120V132C589.381 132 595.949 126.901 599.946 119.83C603.891 112.851 605.637 103.595 605.054 93.5235L593.074 94.2165ZM580.857 120C579.059 120 578.196 119.476 576.938 118.502C575.981 117.761 572.634 114.492 567.852 114.492V126.492C567.508 126.492 566.991 125.977 569.592 127.99C571.891 129.77 575.312 132 580.857 132V120ZM567.852 114.492C565.16 114.492 562.973 115.48 561.467 116.251C560.717 116.635 559.899 117.096 559.233 117.463C558.516 117.857 557.811 118.236 557.044 118.605C554.173 119.988 549.858 121.53 542.148 121.53V133.53C551.727 133.53 557.816 131.553 562.251 129.417C563.311 128.906 564.239 128.405 565.02 127.975C565.852 127.517 566.398 127.208 566.936 126.932C568.008 126.384 568.097 126.492 567.852 126.492V114.492ZM542.148 121.53C540.29 121.53 536.649 121.518 533.467 119.533C530.809 117.874 527.187 113.999 527.187 103.356H515.187C515.187 117.193 520.209 125.405 527.114 129.713C533.495 133.695 540.335 133.53 542.148 133.53V121.53ZM67.2781 182.937L61.3244 182.193L60.4814 188.937H67.2781V182.937ZM60.0871 202.521L66.0407 203.265L66.0652 203.07L66.0767 202.873L60.0871 202.521ZM50.1421 194.259L56.138 194.481L56.1388 194.458L56.1395 194.435L50.1421 194.259ZM58.4041 243.831L64.2837 242.635L52.5577 242.482L58.4041 243.831ZM15.4441 206.499C15.4441 190.572 19.6312 176.989 26.8218 167.542C33.9003 158.242 44.0592 152.676 57.0271 152.676V140.676C40.1599 140.676 26.5273 148.115 17.2731 160.274C8.13097 172.285 3.44406 188.613 3.44406 206.499H15.4441ZM57.0271 152.676C63.9547 152.676 69.0385 154.232 72.201 156.403C75.1794 158.449 76.5781 161.07 76.5781 164.271H88.5781C88.5781 156.762 84.9277 150.586 78.9939 146.511C73.2442 142.563 65.5525 140.676 57.0271 140.676V152.676ZM76.5781 164.271C76.5781 167.221 75.3026 170.592 73.1813 173.226C70.9924 175.943 68.7183 176.937 67.2781 176.937V188.937C73.6409 188.937 79.0167 185.111 82.5271 180.753C86.105 176.31 88.5781 170.348 88.5781 164.271H76.5781ZM73.2317 183.681C73.8438 178.784 71.4091 174.21 68.1604 171.149C64.769 167.954 59.9057 165.768 54.2731 165.768V177.768C56.7494 177.768 58.6947 178.718 59.9315 179.884C61.311 181.183 61.3243 182.193 61.3244 182.193L73.2317 183.681ZM54.2731 165.768C41.5811 165.768 33.1261 176.19 33.1261 189.057H45.1261C45.1261 181.422 49.5231 177.768 54.2731 177.768V165.768ZM33.1261 189.057C33.1261 195.509 35.1386 201.149 38.9432 205.234C42.7569 209.328 47.9824 211.428 53.5081 211.428V199.428C51.0777 199.428 49.1122 198.545 47.7239 197.054C46.3265 195.554 45.1261 193.009 45.1261 189.057H33.1261ZM53.5081 211.428C56.3557 211.428 58.9401 210.852 61.0459 209.763C62.7308 208.891 65.5907 206.865 66.0407 203.265L54.1334 201.777C54.2973 200.465 54.9164 199.696 55.1446 199.446C55.4159 199.149 55.5959 199.072 55.5328 199.104C55.4201 199.162 54.7914 199.428 53.5081 199.428V211.428ZM66.0767 202.873C66.2419 200.065 64.7485 198.007 63.1979 196.89C61.9879 196.018 60.6905 195.653 60.0888 195.494C59.3913 195.31 58.6001 195.158 58.1082 195.06C57.5221 194.942 57.072 194.846 56.6653 194.732C55.7755 194.485 55.7265 194.318 55.895 194.492C56.2707 194.879 56.1126 195.166 56.138 194.481L44.1462 194.037C44.0185 197.483 45.0462 200.543 47.2818 202.847C49.3102 204.938 51.7953 205.833 53.4491 206.293C54.3141 206.534 55.1383 206.703 55.7457 206.825C56.4474 206.966 56.769 207.029 57.0205 207.095C57.3679 207.187 56.8558 207.11 56.1843 206.627C55.1722 205.898 53.9705 204.327 54.0974 202.169L66.0767 202.873ZM56.1395 194.435C56.1654 193.555 56.4298 193.183 56.8729 192.857C57.5202 192.381 59.0918 191.691 62.2291 191.691V179.691C57.5634 179.691 53.1679 180.684 49.7607 183.192C46.1493 185.849 44.2718 189.761 44.1447 194.083L56.1395 194.435ZM62.2291 191.691C67.7043 191.691 71.3961 193.707 74.0771 198.083C77.0618 202.953 79.0261 211.187 79.0261 223.941H91.0261C91.0261 210.379 89.0123 199.488 84.3088 191.812C79.3016 183.642 71.5949 179.691 62.2291 179.691V191.691ZM79.0261 223.941C79.0261 225.783 79.0446 233.245 77.2822 240.123C76.3965 243.58 75.1861 246.364 73.7174 248.175C72.4089 249.789 71.0221 250.53 69.1141 250.53V262.53C75.2385 262.53 79.857 259.656 83.0381 255.733C86.0589 252.008 87.8225 247.333 88.9067 243.102C91.084 234.604 91.0261 225.771 91.0261 223.941H79.0261ZM69.1141 250.53C67.8069 250.53 67.351 250.214 66.8953 249.678C66.1386 248.789 65.1324 246.808 64.2837 242.635L52.5244 245.027C53.5117 249.881 55.03 254.25 57.7541 257.453C60.7791 261.01 64.7602 262.53 69.1141 262.53V250.53ZM52.5577 242.482C51.9289 245.207 50.6271 247.108 48.9518 248.364C47.2494 249.641 44.7839 250.53 41.4211 250.53V262.53C46.9322 262.53 52.0402 261.048 56.1518 257.964C60.2905 254.86 63.0432 250.411 64.2504 245.18L52.5577 242.482ZM41.4211 250.53C34.8211 250.53 28.5322 246.909 23.6356 239.375C18.6984 231.78 15.4441 220.486 15.4441 206.499H3.44406C3.44406 222.194 7.07468 235.916 13.5743 245.915C20.1144 255.977 29.814 262.53 41.4211 262.53V250.53ZM96.2943 193.953L90.3093 193.529L90.3084 193.542L90.3076 193.554L96.2943 193.953ZM149.385 145.146L152.565 140.058L145.463 135.619L143.545 143.772L149.385 145.146ZM125.211 178.347L119.23 177.869L119.23 177.875L125.211 178.347ZM122.151 201.45L116.349 199.923L116.326 200.012L116.305 200.101L122.151 201.45ZM166.062 222.87L160.072 223.212L160.072 223.217L166.062 222.87ZM94.1853 232.356C94.1853 223.644 95.7302 218.782 97.4739 214.008C99.3253 208.94 101.68 203.373 102.281 194.352L90.3076 193.554C89.8379 200.598 88.1377 204.593 86.2024 209.891C84.1594 215.483 82.1853 221.79 82.1853 232.356H94.1853ZM102.279 194.377C102.966 184.681 101.176 177.669 99.3308 171.908C97.415 165.926 96.0213 162.606 96.0213 158.457H84.0213C84.0213 165.018 86.3761 170.802 87.9027 175.568C89.5 180.555 90.8468 185.936 90.3093 193.529L102.279 194.377ZM96.0213 158.457C96.0213 157.588 96.4785 156.307 98.3977 154.996C100.333 153.674 103.355 152.676 107.004 152.676V140.676C101.321 140.676 95.8513 142.203 91.6281 145.088C87.3891 147.984 84.0213 152.594 84.0213 158.457H96.0213ZM107.004 152.676C110.248 152.676 113.215 153.417 116.807 154.383C120.192 155.293 124.427 156.501 129.036 156.501V144.501C126.302 144.501 123.652 143.797 119.922 142.794C116.4 141.847 112.023 140.676 107.004 140.676V152.676ZM129.036 156.501C133.22 156.501 138.542 156.479 143.017 155.681C145.254 155.283 147.73 154.619 149.888 153.377C152.137 152.082 154.429 149.907 155.226 146.52L143.545 143.772C143.73 142.986 144.243 142.78 143.901 142.977C143.467 143.227 142.538 143.577 140.912 143.867C137.661 144.447 133.421 144.501 129.036 144.501V156.501ZM146.205 150.234C147.835 151.253 149.046 152.971 149.046 156.468H161.046C161.046 149.561 158.279 143.629 152.565 140.058L146.205 150.234ZM149.046 156.468C149.046 159.116 148.324 161.53 147.121 163.123C146.09 164.489 144.469 165.615 141.429 165.615V177.615C148.182 177.615 153.369 174.763 156.698 170.353C159.856 166.171 161.046 161.011 161.046 156.468H149.046ZM141.429 165.615C139.889 165.615 135.027 165.346 130.768 166.24C128.569 166.702 125.914 167.575 123.654 169.399C121.2 171.379 119.52 174.248 119.23 177.869L131.192 178.825C131.207 178.637 131.239 178.629 131.198 178.704C131.16 178.775 131.13 178.786 131.191 178.737C131.384 178.581 131.971 178.249 133.233 177.984C135.897 177.425 138.839 177.615 141.429 177.615V165.615ZM119.23 177.875C119.028 180.43 119.549 183.459 121.972 185.728C124.135 187.754 126.794 188.164 128.378 188.273C130.057 188.388 131.814 188.226 133.071 188.107C134.53 187.969 135.513 187.866 136.38 187.866V175.866C134.799 175.866 133.105 176.05 131.939 176.16C130.571 176.29 129.756 176.339 129.197 176.301C128.544 176.256 129.3 176.15 130.176 176.971C131.313 178.036 131.165 179.171 131.193 178.819L119.23 177.875ZM136.38 187.866C136.486 187.866 136.425 187.881 136.314 187.818C136.226 187.768 136.256 187.752 136.357 187.902C136.608 188.274 136.932 189.146 136.921 190.38C136.91 191.611 136.571 192.525 136.285 192.945C136.164 193.123 136.118 193.119 136.203 193.07C136.314 193.006 136.409 193.002 136.38 193.002V205.002C140.835 205.002 144.187 202.659 146.201 199.704C148.104 196.911 148.894 193.541 148.921 190.488C148.948 187.438 148.22 184.026 146.301 181.185C144.249 178.147 140.844 175.866 136.38 175.866V187.866ZM136.38 193.002C134.033 193.002 130.158 192.879 127.012 193.16C125.434 193.3 123.524 193.575 121.791 194.241C120.206 194.85 117.28 196.384 116.349 199.923L127.954 202.977C127.405 205.063 125.78 205.564 126.097 205.442C126.267 205.376 126.863 205.22 128.077 205.112C130.515 204.895 133.372 205.002 136.38 205.002V193.002ZM116.305 200.101C115.381 204.102 117.618 207.624 119.956 209.604C122.59 211.836 126.255 213.111 130.566 213.111V201.111C128.605 201.111 127.832 200.55 127.713 200.448C127.632 200.38 127.742 200.443 127.873 200.737C127.983 200.983 128.245 201.726 127.998 202.799L116.305 200.101ZM130.566 213.111C134.619 213.111 138.49 211.946 141.395 211.126C144.583 210.226 147.039 209.592 149.538 209.592V197.592C145.152 197.592 141.183 198.717 138.136 199.577C134.806 200.517 132.634 201.111 130.566 201.111V213.111ZM149.538 209.592C153.169 209.592 155.374 210.918 156.901 212.889C158.609 215.094 159.808 218.595 160.072 223.212L172.053 222.528C171.704 216.435 170.073 210.297 166.388 205.54C162.522 200.55 156.771 197.592 149.538 197.592V209.592ZM160.072 223.217C160.561 231.658 159.017 238.467 156.498 242.925C154.03 247.29 150.959 249 147.855 249V261C156.379 261 162.947 255.901 166.944 248.83C170.889 241.851 172.635 232.595 172.052 222.523L160.072 223.217ZM147.855 249C146.057 249 145.194 248.476 143.936 247.502C142.979 246.761 139.632 243.492 134.85 243.492V255.492C134.506 255.492 133.989 254.977 136.59 256.99C138.889 258.77 142.31 261 147.855 261V249ZM134.85 243.492C132.158 243.492 129.971 244.48 128.465 245.251C127.715 245.635 126.897 246.096 126.231 246.463C125.514 246.857 124.809 247.236 124.042 247.605C121.171 248.988 116.857 250.53 109.146 250.53V262.53C118.725 262.53 124.814 260.553 129.249 258.417C130.309 257.906 131.237 257.405 132.018 256.975C132.85 256.517 133.396 256.208 133.934 255.932C135.006 255.384 135.095 255.492 134.85 255.492V243.492ZM109.146 250.53C107.288 250.53 103.647 250.518 100.465 248.533C97.8075 246.874 94.1853 242.999 94.1853 232.356H82.1853C82.1853 246.193 87.2075 254.405 94.1124 258.713C100.493 262.695 107.333 262.53 109.146 262.53V250.53ZM211.545 178.194L205.553 177.894L205.55 177.941L205.549 177.987L211.545 178.194ZM216.135 186.609L216.633 180.63L216.515 180.62L216.396 180.615L216.135 186.609ZM221.643 178.5L215.651 178.185L215.648 178.242L215.646 178.3L221.643 178.5ZM217.053 169.014L217.405 163.024L217.229 163.014H217.053V169.014ZM203.895 154.02H197.895V168.505L208.138 158.263L203.895 154.02ZM236.331 197.013L232.731 192.213L222.406 199.957L234.982 202.859L236.331 197.013ZM258.975 219.81L264.85 218.589L264.846 218.573L264.843 218.557L258.975 219.81ZM220.419 237.558L226.417 237.716L226.417 237.712L220.419 237.558ZM170.847 156.621L165.702 153.534L162.718 158.508L167.588 161.658L170.847 156.621ZM205.549 177.987C205.456 180.661 205.732 183.821 207.043 186.582C208.508 189.665 211.433 192.41 215.874 192.603L216.396 180.615C216.648 180.626 217.078 180.732 217.481 181.031C217.838 181.294 217.925 181.524 217.883 181.434C217.835 181.333 217.721 181.033 217.636 180.466C217.553 179.913 217.513 179.218 217.542 178.401L205.549 177.987ZM215.637 192.588C220.174 192.966 223.509 190.538 225.348 187.487C226.986 184.769 227.546 181.513 227.64 178.7L215.646 178.3C215.619 179.122 215.525 179.818 215.396 180.364C215.263 180.924 215.122 181.207 215.07 181.294C215.025 181.368 215.145 181.137 215.543 180.909C215.989 180.654 216.422 180.612 216.633 180.63L215.637 192.588ZM227.635 178.815C227.829 175.125 227.234 171.647 225.741 168.827C224.284 166.074 221.505 163.266 217.405 163.024L216.701 175.004C215.202 174.915 214.872 173.943 215.136 174.441C215.364 174.872 215.763 176.061 215.651 178.185L227.635 178.815ZM217.053 163.014C213.215 163.014 210.272 165.36 208.523 167.952C206.729 170.61 205.745 174.043 205.553 177.894L217.538 178.494C217.651 176.225 218.198 175.068 218.469 174.666C218.785 174.198 218.443 175.014 217.053 175.014V163.014ZM208.138 158.263C211.465 154.935 217.521 152.064 225.468 152.064V140.064C214.749 140.064 205.505 143.925 199.652 149.777L208.138 158.263ZM225.468 152.064C231.688 152.064 236.159 153.76 239.022 156.391C241.806 158.95 243.795 163.061 243.795 169.473H255.795C255.795 160.432 252.888 152.838 247.143 147.556C241.475 142.346 233.784 140.064 225.468 140.064V152.064ZM243.795 169.473C243.795 179.654 238.706 187.732 232.731 192.213L239.931 201.813C248.644 195.278 255.795 183.772 255.795 169.473H243.795ZM234.982 202.859C241.384 204.337 245.08 206.265 247.519 208.73C249.95 211.187 251.777 214.83 253.107 221.063L264.843 218.557C263.266 211.173 260.732 205.024 256.049 200.29C251.374 195.564 245.201 192.902 237.68 191.167L234.982 202.859ZM253.101 221.031C254.189 226.27 254.526 234.423 252.364 240.924C251.31 244.094 249.771 246.549 247.761 248.203C245.833 249.79 243.053 250.989 238.779 250.989V262.989C245.521 262.989 251.08 261.013 255.386 257.47C259.611 253.993 262.204 249.363 263.751 244.711C266.791 235.568 266.209 225.131 264.85 218.589L253.101 221.031ZM238.779 250.989C234.446 250.989 231.454 249.551 229.557 247.529C227.635 245.48 226.298 242.254 226.417 237.716L214.421 237.4C214.235 244.49 216.34 250.979 220.806 255.739C225.296 260.525 231.637 262.989 238.779 262.989V250.989ZM226.417 237.712C226.474 235.482 227.185 227.167 227.01 220.476C226.921 217.052 226.609 213.271 225.661 210.176C225.19 208.637 224.423 206.792 223.058 205.238C221.545 203.517 219.289 202.182 216.441 202.182V214.182C215.276 214.182 214.411 213.578 214.045 213.161C213.825 212.91 213.958 212.941 214.187 213.689C214.641 215.171 214.931 217.614 215.014 220.789C215.184 227.294 214.517 233.667 214.421 237.404L226.417 237.712ZM216.441 202.182C214.122 202.182 211.846 203.032 210.141 204.869C208.621 206.507 208.005 208.447 207.726 209.897C207.183 212.716 207.502 215.989 207.882 218.634C208.28 221.414 208.904 224.444 209.363 226.859C209.873 229.54 210.135 231.267 210.135 232.203H222.135C222.135 229.926 221.613 227.043 221.152 224.618C220.641 221.927 220.108 219.354 219.76 216.931C219.394 214.374 219.378 212.847 219.509 212.166C219.567 211.866 219.541 212.382 218.937 213.032C218.148 213.882 217.116 214.182 216.441 214.182V202.182ZM210.135 232.203C210.135 243.123 206.679 246.95 204.176 248.54C201.121 250.483 197.416 250.53 194.409 250.53V262.53C197.063 262.53 204.222 262.73 210.614 258.668C217.559 254.253 222.135 245.916 222.135 232.203H210.135ZM194.409 250.53C190.235 250.53 185.528 250.489 181.779 248.473C180.077 247.557 178.571 246.216 177.433 244.086C176.264 241.898 175.317 238.556 175.317 233.427H163.317C163.317 240.003 164.531 245.401 166.848 249.739C169.196 254.135 172.499 257.107 176.095 259.041C182.941 262.724 190.78 262.53 194.409 262.53V250.53ZM175.317 233.427C175.317 224.235 177.385 217.52 179.738 209.557C182.109 201.529 184.65 192.551 184.65 179.877H172.65C172.65 190.765 170.525 198.387 168.229 206.157C165.915 213.991 163.317 222.27 163.317 233.427H175.317ZM184.65 179.877C184.65 171.834 184.012 165.955 182.308 161.471C180.435 156.54 177.46 153.753 174.107 151.584L167.588 161.658C169.436 162.855 170.363 163.816 171.09 165.732C171.988 168.095 172.65 172.161 172.65 179.877H184.65ZM175.992 159.708C176.595 158.703 178.798 156.806 182.898 155.107C186.749 153.51 191.248 152.523 195.174 152.523V140.523C189.461 140.523 183.403 141.907 178.303 144.021C173.453 146.032 168.312 149.184 165.702 153.534L175.992 159.708ZM195.174 152.523C195.803 152.523 196.437 152.548 197.029 152.627C197.64 152.709 198.03 152.827 198.234 152.919C198.416 153 198.257 152.971 198.065 152.7C197.84 152.382 197.895 152.196 197.895 152.49H209.895C209.895 150.03 209.243 147.722 207.861 145.768C206.512 143.862 204.746 142.685 203.13 141.963C200.093 140.606 196.81 140.523 195.174 140.523V152.523ZM197.895 152.49V154.02H209.895V152.49H197.895ZM299.869 189.822L293.903 190.457L293.904 190.468L293.905 190.48L299.869 189.822ZM273.859 177.888L267.874 177.465L267.873 177.482L267.872 177.499L273.859 177.888ZM266.668 158.61L260.696 158.027L259.918 166.004L267.791 164.504L266.668 158.61ZM352.195 174.522L346.208 174.911L346.209 174.923L346.209 174.935L352.195 174.522ZM326.491 189.822L332.455 190.48L332.456 190.468L332.457 190.457L326.491 189.822ZM313.18 203.406C312.781 203.406 312.996 203.329 313.305 203.592C313.511 203.767 313.361 203.767 313.138 203.068C312.623 201.448 312.511 198.822 312.581 195.059C312.64 191.856 312.859 187.464 312.331 184.082C312.062 182.361 311.498 180.066 310.008 178.103C308.254 175.793 305.633 174.489 302.623 174.489V186.489C301.946 186.489 301.004 186.089 300.451 185.36C300.161 184.978 300.32 184.943 300.474 185.933C300.793 187.973 300.658 190.81 300.583 194.836C300.519 198.302 300.494 202.906 301.704 206.708C302.344 208.719 303.467 210.979 305.534 212.735C307.703 214.579 310.366 215.406 313.18 215.406V203.406ZM302.623 174.489C301.168 174.489 299.273 174.792 297.508 176.048C295.727 177.316 294.772 179.06 294.269 180.63C293.386 183.392 293.522 186.873 293.903 190.457L305.835 189.187C305.658 187.522 305.596 186.304 305.61 185.425C305.625 184.504 305.721 184.218 305.698 184.288C305.655 184.423 305.369 185.182 304.468 185.824C303.582 186.454 302.778 186.489 302.623 186.489V174.489ZM293.905 190.48C295.178 202.01 297.139 209.572 298.733 215.636C300.323 221.685 301.366 225.67 301.366 230.826H313.366C313.366 223.895 311.885 218.471 310.339 212.586C308.796 206.716 307.009 199.819 305.833 189.164L293.905 190.48ZM301.366 230.826C301.366 237.519 299.654 242.591 297.24 245.829C294.916 248.944 291.862 250.53 288.241 250.53V262.53C295.942 262.53 302.451 258.914 306.859 253.002C311.177 247.213 313.366 239.433 313.366 230.826H301.366ZM288.241 250.53C284.072 250.53 279.464 250.479 275.784 248.34C272.806 246.609 269.149 242.685 269.149 231.591H257.149C257.149 245.742 262.136 254.287 269.754 258.715C276.67 262.734 284.608 262.53 288.241 262.53V250.53ZM269.149 231.591C269.149 223.52 271.269 215.564 273.813 206.678C276.288 198.036 279.184 188.459 279.846 178.277L267.872 177.499C267.31 186.136 264.851 194.383 262.277 203.375C259.772 212.122 257.149 221.608 257.149 231.591H269.149ZM279.844 178.311C280.421 170.16 279.431 163.962 277.216 159.615C275.085 155.433 270.891 151.698 265.545 152.716L267.791 164.504C265.658 164.91 265.595 163.241 266.524 165.063C267.37 166.722 268.369 170.469 267.874 177.465L279.844 178.311ZM272.64 159.193C272.703 158.542 273.399 156.914 275.963 155.219C278.379 153.622 281.706 152.523 285.181 152.523V140.523C279.323 140.523 273.7 142.331 269.346 145.209C265.14 147.989 261.245 152.405 260.696 158.027L272.64 159.193ZM285.181 152.523C293.871 152.523 298.377 155.215 301.49 157.753C302.339 158.445 303.118 159.156 303.927 159.909C304.683 160.613 305.588 161.472 306.462 162.209C308.139 163.626 310.9 165.681 314.71 165.681V153.681C315.384 153.681 315.448 154.091 314.204 153.041C313.617 152.545 313.005 151.965 312.105 151.126C311.258 150.338 310.241 149.404 309.073 148.451C304.115 144.41 296.994 140.523 285.181 140.523V152.523ZM314.71 165.681C318.77 165.681 321.411 163.385 322.956 161.761C323.705 160.973 324.458 160.057 325.027 159.381C325.655 158.635 326.23 157.97 326.864 157.332C329.018 155.166 332.539 152.523 341.179 152.523V140.523C329.317 140.523 322.74 144.459 318.354 148.872C317.353 149.879 316.515 150.859 315.845 151.655C315.116 152.521 314.687 153.043 314.263 153.489C313.46 154.332 313.787 153.681 314.71 153.681V165.681ZM341.179 152.523C344.99 152.523 346.49 153.145 346.993 153.516C347.054 153.561 347.725 153.895 347.725 156.468H359.725C359.725 151.544 358.255 146.906 354.108 143.853C350.404 141.125 345.631 140.523 341.179 140.523V152.523ZM347.725 156.468C347.725 158.347 347.418 158.79 346.792 161.899C346.196 164.852 345.795 168.561 346.208 174.911L358.183 174.133C357.83 168.702 358.194 166.062 358.555 164.271C358.884 162.637 359.725 159.944 359.725 156.468H347.725ZM346.209 174.935C347.023 186.726 349.954 197.049 352.495 206.21C355.092 215.568 357.211 223.512 357.211 231.591H369.211C369.211 221.616 366.588 212.118 364.059 203.002C361.474 193.688 358.898 184.503 358.181 174.109L346.209 174.935ZM357.211 231.591C357.211 242.685 353.554 246.609 350.576 248.34C346.897 250.479 342.289 250.53 338.119 250.53V262.53C341.752 262.53 349.691 262.734 356.606 258.715C364.224 254.287 369.211 245.742 369.211 231.591H357.211ZM338.119 250.53C334.498 250.53 331.444 248.944 329.121 245.829C326.706 242.591 324.994 237.519 324.994 230.826H312.994C312.994 239.433 315.183 247.213 319.501 253.002C323.909 258.914 330.418 262.53 338.119 262.53V250.53ZM324.994 230.826C324.994 225.67 326.038 221.685 327.628 215.636C329.221 209.572 331.183 202.01 332.455 190.48L320.527 189.164C319.352 199.819 317.564 206.716 316.022 212.586C314.475 218.471 312.994 223.895 312.994 230.826H324.994ZM332.457 190.457C332.852 186.751 332.899 183.235 331.888 180.427C331.325 178.863 330.328 177.217 328.621 176.022C326.912 174.825 325.078 174.489 323.584 174.489V186.489C323.314 186.489 322.551 186.421 321.736 185.85C320.924 185.281 320.644 184.621 320.597 184.491C320.571 184.418 320.676 184.688 320.708 185.555C320.739 186.388 320.697 187.566 320.525 189.187L332.457 190.457ZM323.584 174.489C320.551 174.489 317.934 175.83 316.207 178.16C314.749 180.129 314.211 182.419 313.958 184.128C313.459 187.493 313.693 191.877 313.76 195.074C313.84 198.831 313.731 201.456 313.218 203.072C312.996 203.77 312.847 203.768 313.054 203.592C313.364 203.329 313.58 203.406 313.18 203.406V215.406C315.994 215.406 318.658 214.579 320.827 212.735C322.894 210.977 324.016 208.716 324.656 206.703C325.864 202.897 325.831 198.293 325.758 194.821C325.672 190.789 325.523 187.944 325.828 185.887C325.977 184.884 326.137 184.916 325.85 185.303C325.295 186.052 324.322 186.489 323.584 186.489V174.489ZM374.354 157.998L369.413 154.594L364.74 161.378L372.63 163.745L374.354 157.998ZM437.696 174.981L443.695 175.089L443.695 175.082L437.696 174.981ZM414.899 212.925L420.84 213.761L420.846 213.723L420.851 213.685L414.899 212.925ZM404.648 212.925L398.718 213.837L398.72 213.851L398.722 213.866L404.648 212.925ZM409.391 170.697L409.241 164.699L409.173 164.701L409.105 164.704L409.391 170.697ZM372.245 233.58C372.245 223.329 375.619 213.776 379.449 203.369C383.146 193.323 387.392 182.217 387.392 170.391H375.392C375.392 179.679 372.064 188.692 368.188 199.225C364.444 209.397 360.245 220.881 360.245 233.58H372.245ZM387.392 170.391C387.392 165.178 386.173 160.992 383.89 157.82C381.593 154.631 378.611 153.011 376.078 152.251L372.63 163.745C373.156 163.903 373.693 164.196 374.151 164.832C374.621 165.484 375.392 167.036 375.392 170.391H387.392ZM379.295 161.402C380.656 159.426 383.756 157.132 388.803 155.329C393.706 153.578 399.823 152.523 406.331 152.523V140.523C398.609 140.523 391.109 141.763 384.767 144.028C378.569 146.242 372.795 149.685 369.413 154.594L379.295 161.402ZM406.331 152.523C416.097 152.523 422.31 154.882 426.025 158.325C429.644 161.679 431.83 166.936 431.697 174.88L443.695 175.082C443.867 164.819 441.005 155.847 434.182 149.524C427.455 143.289 417.832 140.523 406.331 140.523V152.523ZM431.697 174.873C431.516 184.932 436.244 195.224 440.081 204.365C444.153 214.064 447.761 223.45 447.761 233.58H459.761C459.761 220.76 455.183 209.338 451.146 199.72C446.874 189.545 443.57 182.013 443.695 175.089L431.697 174.873ZM447.761 233.58C447.761 241.731 445.103 245.529 442.5 247.507C439.591 249.717 435.594 250.53 431.729 250.53V262.53C436.89 262.53 443.909 261.507 449.76 257.062C455.916 252.384 459.761 244.707 459.761 233.58H447.761ZM431.729 250.53C427.282 250.53 423.739 250.074 421.317 248.479C419.442 247.243 417.074 244.523 417.074 236.793H405.074C405.074 247.27 408.52 254.418 414.715 258.5C420.364 262.221 427.148 262.53 431.729 262.53V250.53ZM417.074 236.793C417.074 232.803 417.594 229.75 418.332 226.367C419.066 223.002 420.11 218.952 420.84 213.761L408.957 212.089C408.31 216.69 407.442 219.984 406.608 223.81C405.777 227.618 405.074 231.603 405.074 236.793H417.074ZM420.851 213.685C421.316 210.037 420.096 206.634 417.336 204.393C414.878 202.398 411.872 201.867 409.445 202C406.996 202.134 404.273 202.982 402.105 204.825C399.747 206.83 398.13 210.018 398.718 213.837L410.578 212.013C410.623 212.301 410.602 212.731 410.418 213.183C410.245 213.607 410.007 213.857 409.878 213.968C409.758 214.07 409.712 214.071 409.79 214.042C409.865 214.015 409.978 213.989 410.102 213.982C410.228 213.975 410.283 213.992 410.255 213.985C410.228 213.977 410.033 213.921 409.774 213.711C409.49 213.48 409.221 213.135 409.065 212.72C408.915 212.319 408.957 212.086 408.947 212.165L420.851 213.685ZM398.722 213.866C399.538 219.006 400.719 223.103 401.534 226.45C402.357 229.834 402.932 232.873 402.932 236.793H414.932C414.932 231.533 414.129 227.457 413.193 223.612C412.249 219.73 411.288 216.483 410.574 211.984L398.722 213.866ZM402.932 236.793C402.932 244.523 400.564 247.243 398.689 248.479C396.266 250.074 392.723 250.53 388.277 250.53V262.53C392.857 262.53 399.642 262.221 405.29 258.5C411.486 254.418 414.932 247.27 414.932 236.793H402.932ZM388.277 250.53C384.411 250.53 380.414 249.717 377.506 247.507C374.903 245.529 372.245 241.731 372.245 233.58H360.245C360.245 244.707 364.089 252.384 370.246 257.062C376.096 261.507 383.115 262.53 388.277 262.53V250.53ZM396.2 183.243C396.2 185.342 396.554 187.467 397.572 189.389C398.645 191.414 400.236 192.798 401.985 193.649C404.924 195.079 408.397 194.904 409.544 194.904V182.904C409.078 182.904 408.727 182.906 408.362 182.9C408.012 182.894 407.74 182.882 407.516 182.861C407.025 182.817 407.022 182.755 407.234 182.858C407.365 182.922 407.553 183.036 407.747 183.219C407.946 183.406 408.087 183.604 408.176 183.772C408.343 184.087 408.2 184.051 408.2 183.243H396.2ZM409.544 194.904C410.831 194.904 414.186 195.005 417.143 193.654C418.827 192.885 420.512 191.611 421.716 189.616C422.894 187.664 423.347 185.462 423.347 183.243H411.347C411.347 183.855 411.226 183.775 411.443 183.415C411.547 183.243 411.685 183.081 411.841 182.949C411.99 182.822 412.111 182.76 412.157 182.739C412.211 182.714 412.055 182.792 411.52 182.845C410.984 182.899 410.391 182.904 409.544 182.904V194.904ZM423.347 183.243C423.347 180.711 422.765 176.665 421.127 173.056C419.554 169.589 415.958 164.531 409.241 164.699L409.541 176.695C409.545 176.695 409.474 176.694 409.376 176.657C409.288 176.624 409.268 176.595 409.319 176.639C409.463 176.762 409.81 177.155 410.2 178.016C411.01 179.8 411.347 182.103 411.347 183.243H423.347ZM409.105 164.704C402.117 165.037 398.97 170.681 397.733 174.154C396.421 177.839 396.2 181.656 396.2 183.243H408.2C408.2 182.382 408.361 180.079 409.038 178.18C409.369 177.249 409.694 176.793 409.85 176.633C409.905 176.576 409.893 176.604 409.81 176.644C409.716 176.689 409.651 176.691 409.676 176.69L409.105 164.704ZM505.597 229.449L511.533 228.576L511.533 228.573L505.597 229.449ZM465.511 175.593L471.499 175.973L471.499 175.967L465.511 175.593ZM459.085 157.386L453.365 155.573L451.491 161.483L457.46 163.162L459.085 157.386ZM513.706 171.921L507.708 172.095L507.709 172.123L507.71 172.152L513.706 171.921ZM534.022 177.582C534.022 191.54 536.374 202.194 538.651 210.97C541.003 220.034 542.896 225.999 542.896 232.05H554.896C554.896 224.025 552.351 215.99 550.266 207.956C548.107 199.635 546.022 190.093 546.022 177.582H534.022ZM542.896 232.05C542.896 238.529 541.335 243.108 538.963 245.965C536.734 248.649 533.2 250.53 527.476 250.53V262.53C536.134 262.53 543.31 259.515 548.195 253.631C552.938 247.92 554.896 240.259 554.896 232.05H542.896ZM527.476 250.53C521.574 250.53 518.62 248.517 516.576 245.486C514.149 241.888 512.673 236.326 511.533 228.576L499.661 230.322C500.816 238.178 502.553 246.156 506.628 252.197C511.086 258.806 517.924 262.53 527.476 262.53V250.53ZM511.533 228.573C510.186 219.446 510.249 213.524 509.836 208.563C509.661 206.463 509.351 203.645 508.074 201.332C507.331 199.988 506.207 198.69 504.572 197.795C502.984 196.927 501.347 196.674 499.936 196.674V208.674C499.934 208.674 499.905 208.674 499.852 208.669C499.798 208.663 499.718 208.653 499.616 208.63C499.406 208.584 499.123 208.493 498.811 208.322C498.119 207.944 497.73 207.426 497.569 207.133C497.453 206.924 497.689 207.3 497.877 209.56C498.19 213.32 498.254 220.786 499.661 230.325L511.533 228.573ZM499.936 196.674C497.51 196.674 495.192 197.686 493.601 199.717C492.262 201.425 491.826 203.368 491.648 204.707C491.292 207.383 491.634 210.651 492.018 213.542C492.874 219.992 494.242 226.841 494.242 233.274H506.242C506.242 225.784 504.626 217.333 503.914 211.964C503.513 208.946 503.425 207.173 503.543 206.288C503.602 205.845 503.627 206.377 503.046 207.118C502.212 208.183 500.946 208.674 499.936 208.674V196.674ZM494.242 233.274C494.242 240.141 492.604 244.339 490.498 246.754C488.506 249.039 485.394 250.53 480.505 250.53V262.53C488.009 262.53 494.765 260.119 499.543 254.64C504.208 249.29 506.242 241.86 506.242 233.274H494.242ZM480.505 250.53C476.305 250.53 472.156 250.462 468.889 248.432C466.257 246.796 462.79 242.899 462.79 231.591H450.79C450.79 245.528 455.278 254.101 462.554 258.623C469.193 262.751 476.902 262.53 480.505 262.53V250.53ZM462.79 231.591C462.79 223.297 464.515 214.713 466.555 205.325C468.55 196.14 470.852 186.161 471.499 175.973L459.523 175.213C458.946 184.303 456.887 193.296 454.828 202.777C452.813 212.055 450.79 221.831 450.79 231.591H462.79ZM471.499 175.967C471.896 169.621 471.587 164.357 470.025 160.272C468.259 155.658 464.99 152.814 460.709 151.61L457.46 163.162C458.075 163.335 458.402 163.475 458.817 164.56C459.434 166.174 459.891 169.325 459.522 175.219L471.499 175.967ZM464.804 159.199C465.229 157.858 466.485 156.196 468.905 154.791C471.282 153.412 474.405 152.523 477.751 152.523V140.523C472.375 140.523 467.16 141.929 462.881 144.413C458.646 146.871 454.929 150.641 453.365 155.573L464.804 159.199ZM477.751 152.523C486.232 152.523 491.415 158.744 495.733 167.901C496.765 170.09 497.683 172.311 498.558 174.488C499.405 176.599 500.265 178.807 501.082 180.679C501.877 182.501 502.838 184.503 504.028 186.112C505.088 187.545 507.432 190.161 511.258 190.161V178.161C513.362 178.161 514.138 179.601 513.675 178.975C513.343 178.526 512.826 177.588 512.081 175.881C511.358 174.224 510.617 172.316 509.693 170.016C508.796 167.783 507.773 165.299 506.587 162.783C502.031 153.121 493.902 140.523 477.751 140.523V152.523ZM511.258 190.161C513.554 190.161 515.274 189.064 516.325 187.986C517.289 186.996 517.844 185.893 518.168 185.118C518.82 183.553 519.152 181.779 519.346 180.332C519.751 177.317 519.786 173.89 519.701 171.69L507.71 172.152C507.779 173.93 507.737 176.623 507.453 178.734C507.385 179.242 507.31 179.663 507.234 179.993C507.196 180.156 507.162 180.282 507.134 180.373C507.106 180.466 507.09 180.504 507.092 180.498C507.094 180.495 507.129 180.411 507.211 180.273C507.292 180.14 507.455 179.894 507.731 179.611C508.327 179 509.535 178.161 511.258 178.161V190.161ZM519.703 171.747C519.524 165.567 518.221 161.967 516.678 159.226C514.947 156.148 515.422 157.234 515.422 157.233H503.422C503.422 161.363 505.885 164.515 506.22 165.109C506.743 166.039 507.581 167.718 507.708 172.095L519.703 171.747ZM515.422 157.233C515.422 157.182 515.411 157.036 515.683 156.694C516.005 156.288 516.689 155.679 517.957 155.045C520.524 153.762 524.586 152.829 529.618 152.829V140.829C523.327 140.829 517.291 141.962 512.591 144.312C508.009 146.603 503.422 150.823 503.422 157.233H515.422ZM529.618 152.829C531.986 152.829 533.801 153.309 534.814 153.937C535.26 154.213 535.47 154.465 535.585 154.664C535.691 154.848 535.858 155.232 535.858 156.009H547.858C547.858 150.359 545.102 146.195 541.136 143.737C537.522 141.497 533.216 140.829 529.618 140.829V152.829ZM535.858 156.009C535.858 159.476 535.451 162.791 534.989 166.372C534.542 169.834 534.022 173.68 534.022 177.582H546.022C546.022 174.599 546.419 171.56 546.89 167.908C547.346 164.374 547.858 160.345 547.858 156.009H535.858ZM589.174 146.217V140.217H589.154L589.133 140.217L589.174 146.217ZM556.771 210.63C556.771 194.666 560.597 179.666 566.801 168.842C573.074 157.9 581.063 152.273 589.215 152.217L589.133 140.217C574.948 140.314 563.734 150.064 556.391 162.874C548.978 175.804 544.771 192.934 544.771 210.63H556.771ZM589.174 152.217C596.896 152.217 604.348 157.28 610.189 167.623C615.996 177.906 619.588 192.517 619.588 208.947H631.588C631.588 190.952 627.684 174.198 620.638 161.722C613.627 149.307 602.873 140.217 589.174 140.217V152.217ZM619.588 208.947C619.588 224.137 616.517 234.453 611.406 240.881C606.5 247.05 598.992 250.53 587.797 250.53V262.53C601.695 262.53 613.082 258.054 620.798 248.349C628.31 238.904 631.588 225.428 631.588 208.947H619.588ZM587.797 250.53C577.122 250.53 569.753 247.087 564.888 241.058C559.846 234.809 556.771 224.895 556.771 210.63H544.771C544.771 226.352 548.122 239.389 555.55 248.593C563.154 258.017 574.299 262.53 587.797 262.53V250.53ZM573.994 190.434C573.994 194.66 574.919 198.953 577.331 202.368C579.907 206.014 583.899 208.215 588.715 208.215V196.215C588.187 196.215 587.901 196.107 587.746 196.026C587.586 195.942 587.374 195.786 587.132 195.445C586.6 194.69 585.994 193.093 585.994 190.434H573.994ZM588.715 208.215C593.583 208.215 597.584 205.934 600.163 202.309C602.602 198.882 603.589 194.564 603.589 190.281H591.589C591.589 192.883 590.97 194.532 590.387 195.351C589.945 195.972 589.508 196.215 588.715 196.215V208.215ZM603.589 190.281C603.589 185.437 602.293 180.802 599.975 177.202C597.736 173.724 593.892 170.358 588.715 170.358V182.358C588.282 182.358 588.875 182.128 589.886 183.699C590.82 185.149 591.589 187.475 591.589 190.281H603.589ZM588.715 170.358C583.498 170.358 579.684 173.771 577.486 177.293C575.22 180.924 573.994 185.579 573.994 190.434H585.994C585.994 187.486 586.757 185.103 587.666 183.646C588.643 182.081 589.189 182.358 588.715 182.358V170.358Z" fill="black" mask="url(#path-1-outside-1_41_9)"/>
</svg>
