<svg width="233" height="237" viewBox="0 0 233 237" fill="none" xmlns="http://www.w3.org/2000/svg">
<path d="M104.588 5.55275L131.533 37.9961L133.04 39.8114L135.16 38.7739L173.038 20.2314L175.766 62.3162L175.919 64.6709L178.243 65.0772L219.786 72.3402L197.257 107.991L195.997 109.986L197.638 111.681L226.978 141.975L187.796 157.575L185.604 158.448L185.936 160.784L191.866 202.539L150.998 192.129L148.711 191.546L147.606 193.631L127.861 230.897L100.917 198.453L99.4093 196.638L97.29 197.676L59.4119 216.218L56.6832 174.133L56.5306 171.779L54.2062 171.372L12.6632 164.109L35.1924 128.458L36.453 126.463L34.8114 124.768L5.47143 94.4742L44.6532 78.8741L46.8455 78.0013L46.5137 75.6651L40.5837 33.9109L81.4519 44.3207L83.7385 44.9032L84.8433 42.8181L104.588 5.55275Z" fill="#94AE79" stroke="white" stroke-width="6"/>
</svg>
