<svg width="109" height="109" viewBox="0 0 109 109" fill="none" xmlns="http://www.w3.org/2000/svg">
<path d="M52.3823 1.16295C52.5276 0.830676 52.8598 0.436105 53.1505 0.290737C53.4411 0.145368 54.064 0.0207669 54.5415 0C55.2474 0 55.5589 0.124601 56.0156 0.560706C56.5347 1.07988 56.6592 1.45368 57.0745 4.04954C57.3444 5.6486 57.9257 8.7844 58.3617 11.0065C58.8185 13.2285 59.5036 16.2605 59.8981 17.7557C60.2926 19.2509 61.04 21.7014 61.559 23.1966C62.0781 24.7126 62.8878 26.8724 63.3861 27.973C63.8636 29.0944 64.7356 30.7973 65.2962 31.7733C65.8775 32.7494 66.8533 34.2446 67.4969 35.0961C68.1198 35.9475 69.1579 37.2143 69.8015 37.8996C70.4244 38.5849 71.587 39.6648 72.376 40.3085C73.165 40.9523 74.4522 41.9284 75.2619 42.4683C76.0716 43.0082 78.0232 44.0881 79.6219 44.8565C81.2206 45.6456 83.8781 46.7463 85.539 47.307C87.2 47.8677 90.0444 48.7191 91.8714 49.176C93.6985 49.6536 97.1034 50.4013 99.4495 50.8581C101.796 51.315 104.495 51.7926 105.47 51.938C106.446 52.0626 107.484 52.3118 107.796 52.4572C108.128 52.6233 108.522 53.0386 108.689 53.3709C108.855 53.7032 109 54.1601 109 54.347C109 54.5546 108.917 55.0115 108.813 55.3438C108.689 55.676 108.356 56.1329 108.066 56.3198C107.754 56.5483 106.467 56.8598 104.889 57.109C103.436 57.3582 100.799 57.815 99.0343 58.1681C97.2695 58.5211 94.2798 59.1649 92.3905 59.6425C90.5011 60.0994 87.4699 60.9924 85.6429 61.6154C83.8158 62.2384 81.3036 63.2352 80.0371 63.8374C78.7707 64.4397 77.1097 65.3326 76.3 65.8311C75.4903 66.3087 74.0992 67.3055 73.1857 68.0116C72.2722 68.7177 70.7358 70.1298 69.76 71.1682C68.7842 72.1857 67.4554 73.8055 66.8118 74.7608C66.1682 75.7369 65.1301 77.5021 64.5072 78.7065C63.8844 79.911 62.9293 82.0085 62.3895 83.3791C61.8497 84.7497 60.9985 87.2625 60.521 88.9861C60.0227 90.689 59.296 93.5964 58.8808 95.4239C58.4863 97.2514 57.8011 100.699 57.3859 103.108C56.9707 105.517 56.5139 107.697 56.3686 107.988C56.2232 108.279 55.7872 108.632 55.4135 108.798C54.9775 108.985 54.4377 109.047 53.9809 108.964C53.5865 108.881 53.0467 108.611 52.7768 108.362C52.403 107.967 52.1954 107.24 51.6764 104.25C51.3442 102.256 50.8251 99.4527 50.5345 98.0197C50.2438 96.5868 49.6417 93.9287 49.1849 92.1012C48.7282 90.2737 47.9185 87.5117 47.4202 85.9749C46.9011 84.4382 45.9461 82.0085 45.2817 80.5756C44.6381 79.1426 43.5792 77.1282 42.9356 76.1107C42.292 75.0931 41.1086 73.4525 40.2989 72.4765C39.4891 71.5004 38.1189 70.0675 37.2261 69.2991C36.3333 68.51 34.7554 67.3055 33.7381 66.6202C32.7208 65.9349 30.9352 64.8965 29.7933 64.3151C28.6514 63.7544 26.6998 62.8822 25.4333 62.3838C24.1669 61.9061 21.9869 61.1585 20.5543 60.7432C19.1217 60.3071 16.6095 59.6425 14.9486 59.2687C13.2876 58.8741 10.2149 58.2304 8.09714 57.8566C5.97943 57.462 3.55029 57.0259 2.69905 56.8805C1.45333 56.6936 1.0381 56.5067 0.560571 56.0498C0.124571 55.5722 0 55.2607 0 54.5131C0 53.9732 0.145333 53.3709 0.352952 53.0594C0.560571 52.7687 0.872 52.4779 1.0381 52.4156C1.20419 52.3533 3.2181 51.9795 5.5019 51.585C7.78571 51.1904 11.1491 50.5259 12.9762 50.1313C14.8032 49.7367 17.6476 49.0306 19.3086 48.5738C20.9695 48.0961 23.1495 47.4108 24.1876 47.037C25.2257 46.6632 26.949 45.9571 28.0286 45.4795C29.1082 45.0019 30.8522 44.1089 31.8695 43.5066C32.8869 42.9044 34.4855 41.8661 35.399 41.1808C36.3126 40.4747 37.9112 39.0418 38.9286 37.9826C39.9667 36.9028 41.42 35.0961 42.1882 33.9539C42.9564 32.8117 44.1813 30.6104 44.9288 29.0737C45.6762 27.5369 46.735 24.9203 47.2956 23.2589C47.8562 21.5976 48.6451 18.9394 49.0604 17.3404C49.4756 15.7413 50.14 12.8547 50.5345 10.9026C50.929 8.95053 51.448 6.10547 51.6971 4.56872C51.9463 3.03197 52.2577 1.49522 52.3823 1.16295Z" fill="#A2C7FF"/>
</svg>
