<svg width="42" height="42" viewBox="0 0 42 42" fill="none" xmlns="http://www.w3.org/2000/svg">
<path d="M31.5 4.33125C28.4156 2.42812 24.8719 1.3125 21 1.3125V4.33125H31.5Z" fill="#ED4C5C"/>
<path d="M21 7.35H35.175C34.0594 6.23438 32.8125 5.18438 31.5 4.33125H21V7.35Z" fill="white"/>
<path d="M21 10.3687H37.6031C36.8812 9.25312 36.0938 8.26875 35.2406 7.35H21V10.3687Z" fill="#ED4C5C"/>
<path d="M21 13.3875H39.1781C38.7188 12.3375 38.1938 11.2875 37.6031 10.3688H21V13.3875Z" fill="white"/>
<path d="M21 16.4062H40.1625C39.9 15.3562 39.5719 14.3719 39.1781 13.3875H21V16.4062Z" fill="#ED4C5C"/>
<path d="M21 19.4906H40.6219C40.5563 18.4406 40.3594 17.4563 40.1625 16.4719H21V19.4906Z" fill="white"/>
<path d="M40.6219 19.4906H21V21H1.3125C1.3125 21.525 1.3125 21.9844 1.37812 22.5094H40.6219C40.6875 21.9844 40.6875 21.525 40.6875 21C40.6875 20.475 40.6875 19.95 40.6219 19.4906Z" fill="#ED4C5C"/>
<path d="M1.83755 25.5281H40.1626C40.425 24.5438 40.5563 23.5594 40.6219 22.5094H1.37817C1.4438 23.4938 1.57505 24.5438 1.83755 25.5281Z" fill="white"/>
<path d="M2.8219 28.5469H39.1782C39.5719 27.5625 39.9 26.5781 40.1625 25.5281H1.83752C2.10002 26.5781 2.42815 27.5625 2.8219 28.5469Z" fill="#ED4C5C"/>
<path d="M4.3969 31.5656H37.6031C38.1938 30.5812 38.7188 29.5969 39.1782 28.5469H2.8219C3.28127 29.5969 3.80627 30.5812 4.3969 31.5656Z" fill="white"/>
<path d="M6.75935 34.5844H35.2406C36.0937 33.6656 36.9468 32.6156 37.6031 31.5656H4.39685C5.0531 32.6813 5.90623 33.6656 6.75935 34.5844Z" fill="#ED4C5C"/>
<path d="M10.4344 37.6031H31.5656C32.9438 36.75 34.125 35.7 35.2407 34.5844H6.7594C7.87502 35.7656 9.1219 36.75 10.4344 37.6031Z" fill="white"/>
<path d="M21 40.6875C24.8718 40.6875 28.4812 39.5719 31.5656 37.6031H10.4343C13.5187 39.5719 17.1281 40.6875 21 40.6875Z" fill="#ED4C5C"/>
<path d="M10.5 4.33125C9.12188 5.18437 7.875 6.23438 6.75938 7.35C5.84063 8.26875 5.05312 9.31875 4.39687 10.3688C3.80625 11.3531 3.21563 12.3375 2.82188 13.3875C2.42813 14.3719 2.1 15.3562 1.8375 16.4062C1.575 17.3906 1.44375 18.375 1.37812 19.425C1.3125 19.95 1.3125 20.475 1.3125 21H21V1.3125C17.1281 1.3125 13.5844 2.42812 10.5 4.33125Z" fill="#428BC1"/>
<path d="M16.4062 1.96875L16.7343 2.95312H17.7187L16.9312 3.60938L17.1937 4.59375L16.4062 4.00312L15.6187 4.59375L15.8812 3.60938L15.0937 2.95312H16.0781L16.4062 1.96875ZM19.0312 5.90625L19.3593 6.89062H20.3437L19.5562 7.54688L19.8187 8.53125L19.0312 7.94063L18.2437 8.53125L18.5062 7.54688L17.7187 6.89062H18.7031L19.0312 5.90625ZM13.7812 5.90625L14.1093 6.89062H15.0937L14.3062 7.54688L14.5687 8.53125L13.7812 7.94063L12.9937 8.53125L13.2562 7.54688L12.4687 6.89062H13.4531L13.7812 5.90625ZM16.4062 9.84375L16.7343 10.8281H17.7187L16.9312 11.4844L17.1937 12.4688L16.4062 11.8781L15.6187 12.4688L15.8812 11.4844L15.0937 10.8281H16.0781L16.4062 9.84375ZM11.1562 9.84375L11.4843 10.8281H12.4687L11.6812 11.4844L11.9437 12.4688L11.1562 11.8781L10.3687 12.4688L10.6312 11.4844L9.8437 10.8281H10.8281L11.1562 9.84375ZM5.9062 9.84375L6.23433 10.8281H7.2187L6.4312 11.4844L6.6937 12.4688L5.9062 11.8781L5.1187 12.4688L5.3812 11.4844L4.5937 10.8281H5.57808L5.9062 9.84375ZM19.0312 13.7812L19.3593 14.7656H20.3437L19.5562 15.4219L19.8187 16.4062L19.0312 15.8156L18.2437 16.4062L18.5062 15.4219L17.7187 14.7656H18.7031L19.0312 13.7812ZM13.7812 13.7812L14.1093 14.7656H15.0937L14.3062 15.4219L14.5687 16.4062L13.7812 15.8156L12.9937 16.4062L13.2562 15.4219L12.4687 14.7656H13.4531L13.7812 13.7812ZM8.5312 13.7812L8.85933 14.7656H9.8437L9.0562 15.4219L9.3187 16.4062L8.5312 15.8156L7.7437 16.4062L8.0062 15.4219L7.2187 14.7656H8.20308L8.5312 13.7812ZM16.4062 17.7188L16.7343 18.7031H17.7187L16.9312 19.3594L17.1937 20.3438L16.4062 19.7531L15.6187 20.3438L15.8812 19.3594L15.0937 18.7031H16.0781L16.4062 17.7188ZM11.1562 17.7188L11.4843 18.7031H12.4687L11.6812 19.3594L11.9437 20.3438L11.1562 19.7531L10.3687 20.3438L10.6312 19.3594L9.8437 18.7031H10.8281L11.1562 17.7188ZM5.9062 17.7188L6.23433 18.7031H7.2187L6.4312 19.3594L6.6937 20.3438L5.9062 19.7531L5.1187 20.3438L5.3812 19.3594L4.5937 18.7031H5.57808L5.9062 17.7188ZM7.7437 8.53125L8.5312 7.94063L9.3187 8.53125L8.99058 7.54688L9.77808 6.89062H8.7937L8.5312 5.90625L8.20308 6.89062H7.28433L8.07183 7.48125L7.7437 8.53125ZM2.4937 16.4062L3.2812 15.8156L4.0687 16.4062L3.74058 15.4219L4.52808 14.7656H3.60933L3.2812 13.7812L2.95308 14.7656H2.29683C2.29683 14.8313 2.2312 14.8969 2.2312 14.9625L2.7562 15.3562L2.4937 16.4062Z" fill="white"/>
</svg>
