<svg width="1008" height="1008" viewBox="0 0 1008 1008" fill="none" xmlns="http://www.w3.org/2000/svg">
<path fill-rule="evenodd" clip-rule="evenodd" d="M503.616 0C507.456 0 512.832 1.15228 515.52 2.4966C518.208 3.64888 521.664 7.29775 523.008 10.5625C524.544 13.8273 527.424 28.0387 529.728 42.2502C532.224 56.4616 536.64 81.2355 539.712 96.9833C542.976 112.923 548.928 139.618 553.344 156.518C557.568 173.418 564.288 197.231 568.32 209.33C572.352 221.429 579.648 241.018 584.64 252.541C589.632 264.256 596.736 279.235 600.576 286.149C604.224 293.062 612.672 306.506 619.008 315.916C625.728 326.094 639.744 342.418 652.8 355.477C667.968 370.841 681.408 381.98 696 391.582C707.52 399.456 726.528 410.211 738.24 415.78C749.76 421.349 768.768 429.415 780.48 433.64C792 437.865 814.08 444.779 829.44 449.196C844.8 453.421 871.104 459.951 888 463.599C904.896 467.248 936.192 473.394 957.504 477.235C979.008 480.884 998.208 485.109 1000.32 486.261C1002.43 487.605 1004.93 490.678 1006.08 492.982C1007.04 495.479 1008 500.664 1008 504.505C1008 508.538 1006.66 513.723 1005.12 516.028C1003.58 518.525 1000.7 521.213 998.784 522.173C997.056 523.134 977.28 527.167 955.2 531.008C932.928 534.849 901.056 540.994 884.16 544.643C867.264 548.484 840.384 555.205 824.64 559.815C808.704 564.232 785.856 571.913 773.76 576.715C761.664 581.324 743.424 589.39 733.44 594.383C723.456 599.376 707.904 608.21 698.88 613.972C689.856 619.925 675.84 630.295 667.392 637.401C659.136 644.315 646.848 656.606 639.936 664.48C633.216 672.354 623.424 684.837 618.432 692.326C613.248 699.816 604.224 714.796 598.464 725.934C592.704 737.073 583.872 756.086 579.264 768.185C574.464 780.284 566.976 801.985 562.56 816.196C558.336 830.408 551.04 859.407 546.24 880.532C541.632 901.657 534.72 936.609 530.88 958.31C525.312 991.15 523.392 998.448 519.744 1002.1C517.44 1004.4 512.448 1006.9 508.8 1007.67C504.576 1008.43 499.584 1007.86 495.744 1006.13C492.096 1004.59 488.064 1001.71 486.72 999.6C485.376 997.488 482.496 984.044 480 969.833C477.696 955.622 472.32 927.007 468.288 906.458C464.064 885.909 457.728 857.678 454.08 844.043C450.432 830.408 443.904 808.322 439.488 795.071C435.072 781.82 427.776 762.423 423.168 751.861C418.56 741.298 410.304 724.782 404.928 715.372C399.552 705.962 389.376 690.214 382.08 680.804C374.976 671.393 361.344 656.222 351.936 647.196C342.528 638.169 327.168 625.686 317.76 619.157C308.16 612.627 293.952 603.793 286.08 599.568C278.208 595.151 262.656 587.853 251.52 583.244C240.384 578.635 220.032 571.145 206.4 566.536C192.576 562.119 168 555.205 151.68 551.172C135.36 546.947 108.48 541.186 92.16 537.921C75.84 534.657 51.456 530.431 37.824 528.127C24.384 526.014 11.52 523.134 9.024 521.597C6.72 520.061 3.648 516.604 2.304 513.916C1.152 511.227 0 506.618 0 503.545C0 500.664 1.536 495.671 3.456 492.598C5.376 489.334 9.408 485.877 12.672 484.532C15.744 483.38 29.952 480.499 44.16 478.195C58.368 475.89 84.672 471.089 102.72 467.44C120.576 463.791 147.456 457.646 162.24 453.805C177.024 449.964 201.6 442.666 216.96 437.481C232.32 432.296 255.552 422.886 268.8 416.548C282.048 410.211 302.208 398.688 313.92 391.006C326.208 382.94 342.912 369.305 353.472 358.934C363.648 348.948 377.088 333.968 383.232 325.518C389.568 317.068 399.168 302.281 404.544 292.87C410.112 283.46 418.752 265.6 423.936 253.501C429.12 241.402 436.992 220.661 441.216 207.41C445.44 194.159 452.544 169.577 456.768 152.677C460.992 135.777 466.944 108.506 470.208 92.1822C473.472 75.8582 477.888 51.0843 480 37.449C482.304 23.6217 484.992 10.9466 485.952 9.02617C486.912 7.29775 489.6 4.41706 491.904 2.88069C494.4 1.34432 499.584 0 503.424 0L503.616 0ZM840.576 0.384092C845.184 0.960231 845.76 2.11251 849.792 22.0853C852.096 33.6081 855.168 46.6672 856.512 50.8922C857.856 55.1172 862.08 64.5275 865.92 71.8253C869.76 79.123 876.672 88.5333 881.472 92.9503C886.272 97.1754 896.064 103.513 903.552 106.778C911.04 110.234 924.672 114.652 934.272 116.956C943.68 119.069 955.392 121.565 960.192 122.333C967.68 123.87 968.832 124.638 969.216 129.247C969.6 132.896 968.832 134.624 966.336 135.2C964.608 135.777 955.776 137.505 946.752 139.041C937.728 140.77 924.48 144.035 916.992 146.531C909.504 149.028 900.672 152.485 897.216 154.405C893.952 156.134 887.04 161.127 882.24 165.544C877.248 170.153 871.104 177.259 868.416 181.484C865.728 185.709 861.504 194.543 859.008 201.072C856.704 207.794 852.48 223.35 849.984 235.641C845.568 258.302 845.568 258.302 840 258.302C834.624 258.302 834.432 257.918 832.128 243.899C830.784 236.025 827.52 222.005 824.832 212.595C822.144 203.377 818.112 192.238 815.808 187.629C813.504 183.212 807.744 175.338 802.944 170.153C798.144 165.16 790.656 158.822 786.432 156.326C782.208 153.829 772.8 149.796 765.312 147.299C757.824 144.611 744.576 141.154 735.552 139.426C726.528 137.697 717.312 135.777 714.816 135.393C711.552 134.624 710.784 133.28 710.976 129.247C711.552 124.254 712.32 123.87 728.832 120.797C738.24 119.069 751.296 115.996 757.632 114.267C763.968 112.347 774.144 108.506 780.096 105.433C786.24 102.361 794.688 96.5992 799.104 92.5662C803.328 88.7253 809.472 81.6196 812.352 76.8185C815.424 72.0173 820.032 61.6468 822.72 53.7729C825.216 45.899 828.864 31.4956 830.592 22.0853C832.32 12.483 834.24 3.64888 834.624 2.30455C835.2 0.768185 837.696 0 840.576 0.384092V0.384092ZM171.072 676.002C171.648 675.81 172.992 676.963 174.144 678.307C175.488 679.651 178.368 690.214 180.672 701.929C182.976 713.451 187.2 729.007 190.08 736.497C192.768 743.795 198.528 754.741 202.752 760.311C207.36 766.648 215.04 773.754 221.952 778.171C228.288 782.204 239.04 787.389 245.952 789.694C252.864 791.806 267.456 795.455 278.4 797.76C291.84 800.448 298.944 802.945 300.48 805.057C301.888 807.234 301.952 809.026 300.672 810.435C299.52 811.395 288.768 814.468 276.672 816.964C264.576 819.461 248.448 823.878 241.152 826.759C233.664 829.447 224.256 834.248 220.032 837.129C215.808 840.202 209.472 845.771 206.016 849.612C202.752 853.453 197.76 860.559 195.264 865.552C192.768 870.737 189.312 879.571 187.392 885.333C185.472 891.094 182.208 904.921 179.904 916.06C175.872 935.457 175.68 936.225 170.496 936.609C167.616 936.993 165.312 936.801 165.312 936.225C165.312 935.649 163.584 926.431 161.472 915.484C159.36 904.729 156.096 891.094 154.176 885.333C152.064 879.571 148.224 870.161 145.344 864.592C142.656 859.215 136.512 850.764 131.712 845.963C126.912 841.162 117.888 834.633 111.552 831.56C105.216 828.295 93.312 823.878 85.056 821.765C76.992 819.461 64.32 816.772 57.024 815.428C49.536 814.276 43.008 812.163 41.856 810.435C40.896 808.898 40.512 806.018 41.088 804.097C42.048 801.793 45.312 800.448 52.416 799.68C57.984 799.104 70.656 796.415 80.256 793.919C90.048 791.422 103.872 786.429 110.784 782.972C119.04 779.131 127.104 772.986 133.248 766.264C138.624 760.503 145.344 750.516 148.224 744.179C151.104 737.841 154.752 727.471 156.48 721.133C158.016 714.796 160.704 702.697 162.432 694.439C163.968 685.989 166.464 678.499 167.808 677.539C168.96 676.771 170.496 676.002 171.072 676.002V676.002Z" fill="white"/>
</svg>
